GentiumPlus-I.ufo
<glyph name="LtnCapI" format="1">
  <advance width="573"/>
  <unicode hex="0049"/>
  <outline>
    <contour>
      <point x="604" y="1260" type="line"/>
      <point x="195" y="1260" type="line"/>
      <point x="188" y="1217" type="line"/>
      <point x="272" y="1198"/>
      <point x="313" y="1171"/>
      <point x="311" y="1155" type="curve" smooth="yes"/>
      <point x="168" y="104" type="line"/>
      <point x="164" y="86"/>
      <point x="111" y="61"/>
      <point x="27" y="43" type="curve"/>
      <point x="20" y="0" type="line"/>
      <point x="430" y="0" type="line"/>
      <point x="436" y="43" type="line"/>
      <point x="350" y="61"/>
      <point x="309" y="88"/>
      <point x="311" y="104" type="curve" smooth="yes"/>
      <point x="457" y="1155" type="line" smooth="yes"/>
      <point x="459" y="1174"/>
      <point x="514" y="1198"/>
      <point x="598" y="1217" type="curve"/>
    </contour>
    <contour>
      <point x="406" y="1320" type="move" name="U"/>
    </contour>
    <contour>
      <point x="211" y="-100" type="move" name="L"/>
    </contour>
    <contour>
      <point x="285" y="0" type="move" name="O"/>
    </contour>
    <contour>
      <point x="225" y="0" type="move" name="H"/>
    </contour>
    <contour>
      <point x="568" y="1072" type="move" name="R"/>
    </contour>
  </outline>
</glyph>
<glyph name="SupOne" format="1">
  <advance width="576"/>
  <unicode hex="00B9"/>
  <outline>
    <contour>
      <point x="519" y="650" type="line"/>
      <point x="394" y="665"/>
      <point x="377" y="688"/>
      <point x="380" y="704" type="curve" smooth="yes"/>
      <point x="479" y="1334" type="line"/>
      <point x="460" y="1355" type="line"/>
      <point x="399" y="1326"/>
      <point x="244" y="1272"/>
      <point x="172" y="1253" type="curve"/>
      <point x="180" y="1212" type="line"/>
      <point x="293" y="1235"/>
      <point x="328" y="1231"/>
      <point x="336" y="1221" type="curve" smooth="yes"/>
      <point x="345" y="1210"/>
      <point x="343" y="1194"/>
      <point x="338" y="1162" type="curve" smooth="yes"/>
      <point x="265" y="704" type="line" smooth="yes"/>
      <point x="262" y="687"/>
      <point x="230" y="665"/>
      <point x="96" y="650" type="curve"/>
      <point x="89" y="608" type="line"/>
      <point x="511" y="608" type="line"/>
    </contour>
    <contour>
      <point x="285" y="550" type="move" name="L"/>
    </contour>
    <contour>
      <point x="403" y="1400" type="move" name="U"/>
    </contour>
  </outline>
</glyph>
<glyph name="LtnCapAGrave" format="1">
  <advance width="1147"/>
  <unicode hex="00C0"/>
  <outline>
    <component base="LtnCapA"/>
    <component base="CombGrave.LP" xOffset="971" yOffset="320"/>
    <contour>
      <point x="514" y="0" type="move" name="H"/>
    </contour>
    <contour>
      <point x="739" y="1640" type="move" name="U"/>
    </contour>
    <contour>
      <point x="502" y="-100" type="move" name="L"/>
    </contour>
    <contour>
      <point x="846" y="0" type="move" name="O"/>
    </contour>
  </outline>
</glyph>
<glyph name="LtnCapNTilde" format="1">
  <advance width="1239"/>
  <unicode hex="00D1"/>
  <outline>
    <component base="LtnCapN"/>
    <component base="CombTilde.LP" xOffset="1092" yOffset="320"/>
    <contour>
      <point x="940" y="0" type="move" name="H"/>
    </contour>
    <contour>
      <point x="781" y="1640" type="move" name="U"/>
    </contour>
    <contour>
      <point x="542" y="-100" type="move" name="L"/>
    </contour>
  </outline>
</glyph>
<glyph name="LtnCapOTilde" format="1">
  <advance width="1116"/>
  <unicode hex="00D5"/>
  <outline>
    <component base="LtnCapO"/>
    <component base="CombTilde.LP" xOffset="1055" yOffset="320"/>
    <contour>
      <point x="500" y="0" type="move" name="H"/>
    </contour>
    <contour>
      <point x="1202" y="1072" type="move" name="R"/>
    </contour>
    <contour>
      <point x="744" y="1640" type="move" name="U"/>
    </contour>
    <contour>
      <point x="505" y="-100" type="move" name="L"/>
    </contour>
    <contour>
      <point x="560" y="0" type="move" name="O"/>
    </contour>
  </outline>
</glyph>
<glyph name="LtnCapODiaer" format="1">
  <advance width="1116"/>
  <unicode hex="00D6"/>
  <outline>
    <component base="LtnCapO"/>
    <component base="CombDiaer.LP" xOffset="1055" yOffset="320"/>
    <contour>
      <point x="500" y="0" type="move" name="H"/>
    </contour>
    <contour>
      <point x="1202" y="1072" type="move" name="R"/>
    </contour>
    <contour>
      <point x="744" y="1640" type="move" name="U"/>
    </contour>
    <contour>
      <point x="505" y="-100" type="move" name="L"/>
    </contour>
    <contour>
      <point x="560" y="0" type="move" name="O"/>
    </contour>
  </outline>
</glyph>
<glyph name="LtnCapUAcute" format="1">
  <advance width="1227"/>
  <unicode hex="00DA"/>
  <outline>
    <component base="LtnCapU"/>
    <component base="CombAcute.LP" xOffset="1110" yOffset="320"/>
    <contour>
      <point x="580" y="0" type="move" name="H"/>
    </contour>
    <contour>
      <point x="1256" y="1072" type="move" name="R"/>
    </contour>
    <contour>
      <point x="801" y="1640" type="move" name="U"/>
    </contour>
    <contour>
      <point x="563" y="-100" type="move" name="L"/>
    </contour>
    <contour>
      <point x="661" y="0" type="move" name="O"/>
    </contour>
  </outline>
</glyph>
<glyph name="LtnCapUCircum" format="1">
  <advance width="1227"/>
  <unicode hex="00DB"/>
  <outline>
    <component base="LtnCapU"/>
    <component base="CombCircum.LP" xOffset="1109" yOffset="320"/>
    <contour>
      <point x="580" y="0" type="move" name="H"/>
    </contour>
    <contour>
      <point x="1256" y="1072" type="move" name="R"/>
    </contour>
    <contour>
      <point x="816" y="1735" type="move" name="U"/>
    </contour>
    <contour>
      <point x="563" y="-100" type="move" name="L"/>
    </contour>
    <contour>
      <point x="661" y="0" type="move" name="O"/>
    </contour>
  </outline>
</glyph>
<glyph name="LtnCapUDiaer" format="1">
  <advance width="1227"/>
  <unicode hex="00DC"/>
  <outline>
    <component base="LtnCapU"/>
    <component base="CombDiaer.LP" xOffset="1112" yOffset="320"/>
    <contour>
      <point x="580" y="0" type="move" name="H"/>
    </contour>
    <contour>
      <point x="1256" y="1072" type="move" name="R"/>
    </contour>
    <contour>
      <point x="801" y="1640" type="move" name="U"/>
    </contour>
    <contour>
      <point x="563" y="-100" type="move" name="L"/>
    </contour>
    <contour>
      <point x="661" y="0" type="move" name="O"/>
    </contour>
  </outline>
</glyph>
<glyph name="LtnCapYAcute" format="1">
  <advance width="1145"/>
  <unicode hex="00DD"/>
  <outline>
    <component base="LtnCapY"/>
    <component base="CombAcute.LP" xOffset="1040" yOffset="320"/>
    <contour>
      <point x="731" y="1640" type="move" name="U"/>
    </contour>
    <contour>
      <point x="493" y="-100" type="move" name="L"/>
    </contour>
  </outline>
</glyph>
<glyph name="LtnSmAGrave" format="1">
  <advance width="922"/>
  <unicode hex="00E0"/>
  <outline>
    <component base="LtnSmA"/>
    <component base="CombGrave" xOffset="825"/>
    <contour>
      <point x="368" y="0" type="move" name="H"/>
    </contour>
    <contour>
      <point x="933" y="870" type="move" name="R"/>
    </contour>
    <contour>
      <point x="600" y="1370" type="move" name="U"/>
    </contour>
    <contour>
      <point x="400" y="-100" type="move" name="L"/>
    </contour>
    <contour>
      <point x="723" y="0" type="move" name="O"/>
    </contour>
  </outline>
</glyph>
<glyph name="LtnSmEAcute" format="1">
  <advance width="805"/>
  <unicode hex="00E9"/>
  <outline>
    <component base="LtnSmE"/>
    <component base="CombAcute" xOffset="863"/>
    <contour>
      <point x="358" y="0" type="move" name="H"/>
    </contour>
    <contour>
      <point x="884" y="870" type="move" name="R"/>
    </contour>
    <contour>
      <point x="561" y="1370" type="move" name="U"/>
    </contour>
    <contour>
      <point x="344" y="-100" type="move" name="L"/>
    </contour>
    <contour>
      <point x="408" y="0" type="move" name="O"/>
    </contour>
  </outline>
</glyph>
<glyph name="LtnSmICircum" format="1">
  <advance width="504"/>
  <unicode hex="00EE"/>
  <outline>
    <component base="LtnSmDotlessI"/>
    <component base="CombCircum" xOffset="686"/>
    <contour>
      <point x="210" y="0" type="move" name="H"/>
    </contour>
    <contour>
      <point x="520" y="870" type="move" name="R"/>
    </contour>
    <contour>
      <point x="407" y="1490" type="move" name="U"/>
    </contour>
    <contour>
      <point x="212" y="-100" type="move" name="L"/>
    </contour>
    <contour>
      <point x="272" y="0" type="move" name="O"/>
    </contour>
  </outline>
</glyph>
<glyph name="LtnSmIDiaer" format="1">
  <advance width="504"/>
  <unicode hex="00EF"/>
  <outline>
    <component base="LtnSmDotlessI"/>
    <component base="CombDiaer" xOffset="689"/>
    <contour>
      <point x="210" y="0" type="move" name="H"/>
    </contour>
    <contour>
      <point x="520" y="870" type="move" name="R"/>
    </contour>
    <contour>
      <point x="386" y="1370" type="move" name="U"/>
    </contour>
    <contour>
      <point x="212" y="-100" type="move" name="L"/>
    </contour>
    <contour>
      <point x="272" y="0" type="move" name="O"/>
    </contour>
  </outline>
</glyph>
<glyph name="LtnSmOCircum" format="1">
  <advance width="864"/>
  <unicode hex="00F4"/>
  <outline>
    <component base="LtnSmO"/>
    <component base="CombCircum" xOffset="857"/>
    <contour>
      <point x="374" y="0" type="move" name="H"/>
    </contour>
    <contour>
      <point x="920" y="870" type="move" name="R"/>
    </contour>
    <contour>
      <point x="578" y="1490" type="move" name="U"/>
    </contour>
    <contour>
      <point x="354" y="-100" type="move" name="L"/>
    </contour>
    <contour>
      <point x="429" y="0" type="move" name="O"/>
    </contour>
  </outline>
</glyph>
<glyph name="LtnSmYDiaer" format="1">
  <advance width="926"/>
  <unicode hex="00FF"/>
  <outline>
    <component base="LtnSmY"/>
    <component base="CombDiaer" xOffset="920"/>
    <contour>
      <point x="988" y="870" type="move" name="R"/>
    </contour>
    <contour>
      <point x="617" y="1370" type="move" name="U"/>
    </contour>
    <contour>
      <point x="620" y="-100" type="move" name="L"/>
    </contour>
  </outline>
</glyph>
<glyph name="LtnCapCAcute" format="1">
  <advance width="995"/>
  <unicode hex="0106"/>
  <outline>
    <component base="LtnCapC"/>
    <component base="CombAcute.LP" xOffset="1039" yOffset="320"/>
    <contour>
      <point x="465" y="0" type="move" name="H"/>
    </contour>
    <contour>
      <point x="730" y="1640" type="move" name="U"/>
    </contour>
    <contour>
      <point x="491" y="-100" type="move" name="L"/>
    </contour>
  </outline>
</glyph>
<glyph name="LtnCapCDotAbv" format="1">
  <advance width="995"/>
  <unicode hex="010A"/>
  <outline>
    <component base="LtnCapC"/>
    <component base="CombDotAbv.LP" xOffset="1042" yOffset="320"/>
    <contour>
      <point x="465" y="0" type="move" name="H"/>
    </contour>
    <contour>
      <point x="730" y="1640" type="move" name="U"/>
    </contour>
    <contour>
      <point x="491" y="-100" type="move" name="L"/>
    </contour>
  </outline>
</glyph>
<glyph name="LtnSmCCaron" format="1">
  <advance width="795"/>
  <unicode hex="010D"/>
  <outline>
    <component base="LtnSmC"/>
    <component base="CombCaron" xOffset="887"/>
    <contour>
      <point x="353" y="0" type="move" name="H"/>
    </contour>
    <contour>
      <point x="870" y="870" type="move" name="R"/>
    </contour>
    <contour>
      <point x="590" y="1422" type="move" name="U"/>
    </contour>
    <contour>
      <point x="380" y="-100" type="move" name="L"/>
    </contour>
  </outline>
</glyph>
<glyph name="LtnSmDCaron" format="1">
  <advance width="1208"/>
  <unicode hex="010F"/>
  <outline>
    <component base="LtnSmD"/>
    <component base="CombCommaAbvRt" xOffset="949"/>
    <contour>
      <point x="455" y="1000" type="move" name="U"/>
    </contour>
    <contour>
      <point x="700" y="0" type="move" name="H"/>
    </contour>
    <contour>
      <point x="374" y="-100" type="move" name="L"/>
    </contour>
  </outline>
</glyph>
<glyph name="LtnSmEMacron" format="1">
  <advance width="805"/>
  <unicode hex="0113"/>
  <outline>
    <component base="LtnSmE"/>
    <component base="CombMacron" xOffset="875"/>
    <contour>
      <point x="358" y="0" type="move" name="H"/>
    </contour>
    <contour>
      <point x="884" y="870" type="move" name="R"/>
    </contour>
    <contour>
      <point x="562" y="1370" type="move" name="U"/>
    </contour>
    <contour>
      <point x="344" y="-100" type="move" name="L"/>
    </contour>
    <contour>
      <point x="408" y="0" type="move" name="O"/>
    </contour>
  </outline>
</glyph>
<glyph name="LtnCapECaron" format="1">
  <advance width="946"/>
  <unicode hex="011A"/>
  <outline>
    <component base="LtnCapE"/>
    <component base="CombCaron.LP" xOffset="948" yOffset="320"/>
    <contour>
      <point x="411" y="0" type="move" name="H"/>
    </contour>
    <contour>
      <point x="972" y="1072" type="move" name="R"/>
    </contour>
    <contour>
      <point x="640" y="1668" type="move" name="U"/>
    </contour>
    <contour>
      <point x="397" y="-100" type="move" name="L"/>
    </contour>
    <contour>
      <point x="621" y="0" type="move" name="O"/>
    </contour>
  </outline>
</glyph>
<glyph name="LtnCapGCircum" format="1">
  <advance width="1073"/>
  <unicode hex="011C"/>
  <outline>
    <component base="LtnCapG"/>
    <component base="CombCircum.LP" xOffset="1072" yOffset="320"/>
    <contour>
      <point x="520" y="0" type="move" name="H"/>
    </contour>
    <contour>
      <point x="779" y="1735" type="move" name="U"/>
    </contour>
    <contour>
      <point x="525" y="-100" type="move" name="L"/>
    </contour>
  </outline>
</glyph>
<glyph name="LtnCapGBreve" format="1">
  <advance width="1073"/>
  <unicode hex="011E"/>
  <outline>
    <component base="LtnCapG"/>
    <component base="CombBreve" xOffset="1074" yOffset="320"/>
    <contour>
      <point x="520" y="0" type="move" name="H"/>
    </contour>
    <contour>
      <point x="764" y="1640" type="move" name="U"/>
    </contour>
    <contour>
      <point x="525" y="-100" type="move" name="L"/>
    </contour>
  </outline>
</glyph>
<glyph name="LtnSmGBreve" format="1">
  <advance width="911"/>
  <unicode hex="011F"/>
  <outline>
    <component base="LtnSmG"/>
    <component base="CombBreve" xOffset="869"/>
    <contour>
      <point x="310" y="-450" type="move" name="H"/>
    </contour>
    <contour>
      <point x="940" y="870" type="move" name="R"/>
    </contour>
    <contour>
      <point x="559" y="1320" type="move" name="U"/>
    </contour>
    <contour>
      <point x="296" y="-600" type="move" name="L"/>
    </contour>
  </outline>
</glyph>
<glyph name="LtnCapGCedilla" format="1">
  <advance width="1073"/>
  <unicode hex="0122"/>
  <outline>
    <component base="LtnCapG"/>
    <component base="CombCommaBlw" xOffset="1032"/>
    <contour>
      <point x="520" y="0" type="move" name="H"/>
    </contour>
    <contour>
      <point x="720" y="1320" type="move" name="U"/>
    </contour>
    <contour>
      <point x="457" y="-600" type="move" name="L"/>
    </contour>
  </outline>
</glyph>
<glyph name="LtnCapHCircum" format="1">
  <advance width="1235"/>
  <unicode hex="0124"/>
  <outline>
    <component base="LtnCapH"/>
    <component base="CombCircum.LP" xOffset="1089" yOffset="320"/>
    <contour>
      <point x="216" y="0" type="move" name="H"/>
    </contour>
    <contour>
      <point x="796" y="1735" type="move" name="U"/>
    </contour>
    <contour>
      <point x="542" y="-100" type="move" name="L"/>
    </contour>
  </outline>
</glyph>
<glyph name="LtnCapIBreve" format="1">
  <advance width="573"/>
  <unicode hex="012C"/>
  <outline>
    <component base="LtnCapI"/>
    <component base="CombBreve" xOffset="760" yOffset="320"/>
    <contour>
      <point x="225" y="0" type="move" name="H"/>
    </contour>
    <contour>
      <point x="568" y="1072" type="move" name="R"/>
    </contour>
    <contour>
      <point x="450" y="1640" type="move" name="U"/>
    </contour>
    <contour>
      <point x="211" y="-100" type="move" name="L"/>
    </contour>
    <contour>
      <point x="285" y="0" type="move" name="O"/>
    </contour>
  </outline>
</glyph>
<glyph name="LtnCapLigIj" format="1">
  <advance width="1151"/>
  <unicode hex="0132"/>
  <outline>
    <component base="LtnCapI"/>
    <component base="LtnCapJ" xOffset="573"/>
    <contour>
      <point x="202" y="0" type="move" name="H"/>
    </contour>
    <contour>
      <point x="225" y="0" type="move" name="O"/>
    </contour>
    <contour>
      <point x="1003" y="1320" type="move" name="U"/>
    </contour>
    <contour>
      <point x="731" y="-600" type="move" name="L"/>
    </contour>
  </outline>
</glyph>
<glyph name="LtnSmJCircum" format="1">
  <advance width="502"/>
  <unicode hex="0135"/>
  <outline>
    <component base="LtnSmJ.Dotless"/>
    <component base="CombCircum" xOffset="679"/>
    <contour>
      <point x="400" y="1490" type="move" name="U"/>
    </contour>
    <contour>
      <point x="108" y="-600" type="move" name="L"/>
    </contour>
  </outline>
</glyph>
<glyph name="LtnSmKCedilla" format="1">
  <advance width="899"/>
  <unicode hex="0137"/>
  <outline>
    <component base="LtnSmK"/>
    <component base="CombCommaBlw" xOffset="890"/>
    <contour>
      <point x="170" y="0" type="move" name="H"/>
    </contour>
    <contour>
      <point x="984" y="870" type="move" name="R"/>
    </contour>
    <contour>
      <point x="617" y="1580" type="move" name="U"/>
    </contour>
    <contour>
      <point x="315" y="-600" type="move" name="L"/>
    </contour>
  </outline>
</glyph>
<glyph name="LtnSmLCedilla" format="1">
  <advance width="481"/>
  <unicode hex="013C"/>
  <outline>
    <component base="LtnSmL"/>
    <component base="CombCommaBlw" xOffset="695"/>
    <contour>
      <point x="180" y="0" type="move" name="H"/>
    </contour>
    <contour>
      <point x="484" y="870" type="move" name="R"/>
    </contour>
    <contour>
      <point x="384" y="1640" type="move" name="U"/>
    </contour>
    <contour>
      <point x="120" y="-600" type="move" name="L"/>
    </contour>
  </outline>
</glyph>
<glyph name="LtnCapLCaron" format="1">
  <advance width="918"/>
  <unicode hex="013D"/>
  <outline>
    <component base="LtnCapL"/>
    <component base="CombCommaAbvRt" xOffset="693"/>
    <contour>
      <point x="557" y="1320" type="move" name="U"/>
    </contour>
    <contour>
      <point x="210" y="0" type="move" name="H"/>
    </contour>
    <contour>
      <point x="393" y="-100" type="move" name="L"/>
    </contour>
  </outline>
</glyph>
<glyph name="LtnCapLMiddleDot" format="1">
  <advance width="918"/>
  <unicode hex="013F"/>
  <outline>
    <component base="LtnCapL"/>
    <component base="MiddleDot" xOffset="518"/>
    <contour>
      <point x="557" y="1320" type="move" name="U"/>
    </contour>
    <contour>
      <point x="210" y="0" type="move" name="H"/>
    </contour>
    <contour>
      <point x="393" y="-100" type="move" name="L"/>
    </contour>
  </outline>
</glyph>
<glyph name="LtnSmNAcute" format="1">
  <advance width="1012"/>
  <unicode hex="0144"/>
  <outline>
    <component base="LtnSmN"/>
    <component base="CombAcute" xOffset="937"/>
    <contour>
      <point x="720" y="0" type="move" name="H"/>
    </contour>
    <contour>
      <point x="635" y="1370" type="move" name="U"/>
    </contour>
    <contour>
      <point x="433" y="-100" type="move" name="L"/>
    </contour>
  </outline>
</glyph>
<glyph name="LtnSmNCedilla" format="1">
  <advance width="1012"/>
  <unicode hex="0146"/>
  <outline>
    <component base="LtnSmN"/>
    <component base="CombCommaBlw" xOffset="940"/>
    <contour>
      <point x="720" y="0" type="move" name="H"/>
    </contour>
    <contour>
      <point x="584" y="1000" type="move" name="U"/>
    </contour>
    <contour>
      <point x="365" y="-600" type="move" name="L"/>
    </contour>
  </outline>
</glyph>
<glyph name="LtnSmNCaron" format="1">
  <advance width="1012"/>
  <unicode hex="0148"/>
  <outline>
    <component base="LtnSmN"/>
    <component base="CombCaron" xOffset="941"/>
    <contour>
      <point x="720" y="0" type="move" name="H"/>
    </contour>
    <contour>
      <point x="644" y="1422" type="move" name="U"/>
    </contour>
    <contour>
      <point x="433" y="-100" type="move" name="L"/>
    </contour>
  </outline>
</glyph>
<glyph name="LtnCapOBreve" format="1">
  <advance width="1116"/>
  <unicode hex="014E"/>
  <outline>
    <component base="LtnCapO"/>
    <component base="CombBreve" xOffset="1054" yOffset="320"/>
    <contour>
      <point x="500" y="0" type="move" name="H"/>
    </contour>
    <contour>
      <point x="1202" y="1072" type="move" name="R"/>
    </contour>
    <contour>
      <point x="744" y="1640" type="move" name="U"/>
    </contour>
    <contour>
      <point x="505" y="-100" type="move" name="L"/>
    </contour>
    <contour>
      <point x="560" y="0" type="move" name="O"/>
    </contour>
  </outline>
</glyph>
<glyph name="LtnSmODblAcute" format="1">
  <advance width="864"/>
  <unicode hex="0151"/>
  <outline>
    <component base="LtnSmO"/>
    <component base="CombDblAcute" xOffset="866"/>
    <contour>
      <point x="374" y="0" type="move" name="H"/>
    </contour>
    <contour>
      <point x="920" y="870" type="move" name="R"/>
    </contour>
    <contour>
      <point x="650" y="1524" type="move" name="U"/>
    </contour>
    <contour>
      <point x="354" y="-100" type="move" name="L"/>
    </contour>
    <contour>
      <point x="429" y="0" type="move" name="O"/>
    </contour>
  </outline>
</glyph>
<glyph name="LtnSmRAcute" format="1">
  <advance width="727"/>
  <unicode hex="0155"/>
  <outline>
    <component base="LtnSmR"/>
    <component base="CombAcute" xOffset="813"/>
    <contour>
      <point x="175" y="0" type="move" name="H"/>
    </contour>
    <contour>
      <point x="511" y="1370" type="move" name="U"/>
    </contour>
    <contour>
      <point x="164" y="-100" type="move" name="L"/>
    </contour>
  </outline>
</glyph>
<glyph name="LtnCapRCedilla" format="1">
  <advance width="1077"/>
  <unicode hex="0156"/>
  <outline>
    <component base="LtnCapR"/>
    <component base="CombCommaBlw" xOffset="930"/>
    <contour>
      <point x="200" y="0" type="move" name="H"/>
    </contour>
    <contour>
      <point x="618" y="1320" type="move" name="U"/>
    </contour>
    <contour>
      <point x="355" y="-600" type="move" name="L"/>
    </contour>
  </outline>
</glyph>
<glyph name="LtnCapRCaron" format="1">
  <advance width="1077"/>
  <unicode hex="0158"/>
  <outline>
    <component base="LtnCapR"/>
    <component base="CombCaron.LP" xOffset="975" yOffset="320"/>
    <contour>
      <point x="200" y="0" type="move" name="H"/>
    </contour>
    <contour>
      <point x="667" y="1668" type="move" name="U"/>
    </contour>
    <contour>
      <point x="423" y="-100" type="move" name="L"/>
    </contour>
  </outline>
</glyph>
<glyph name="LtnSmSAcute" format="1">
  <advance width="711"/>
  <unicode hex="015B"/>
  <outline>
    <component base="LtnSmS"/>
    <component base="CombAcute" xOffset="790"/>
    <contour>
      <point x="290" y="0" type="move" name="H"/>
    </contour>
    <contour>
      <point x="488" y="1370" type="move" name="U"/>
    </contour>
    <contour>
      <point x="286" y="-100" type="move" name="L"/>
    </contour>
  </outline>
</glyph>
<glyph name="LtnCapSCedilla" format="1">
  <advance width="899"/>
  <unicode hex="015E"/>
  <outline>
    <component base="LtnCapS"/>
    <component base="CombCedilla" xOffset="881"/>
    <contour>
      <point x="574" y="1320" type="move" name="U"/>
    </contour>
    <contour>
      <point x="312" y="-600" type="move" name="L"/>
    </contour>
  </outline>
</glyph>
<glyph name="LtnCapSCaron" format="1">
  <advance width="899"/>
  <unicode hex="0160"/>
  <outline>
    <component base="LtnCapS"/>
    <component base="CombCaron.LP" xOffset="931" yOffset="320"/>
    <contour>
      <point x="394" y="0" type="move" name="H"/>
    </contour>
    <contour>
      <point x="623" y="1668" type="move" name="U"/>
    </contour>
    <contour>
      <point x="380" y="-100" type="move" name="L"/>
    </contour>
  </outline>
</glyph>
<glyph name="LtnSmUTilde" format="1">
  <advance width="1022"/>
  <unicode hex="0169"/>
  <outline>
    <component base="LtnSmU"/>
    <component base="CombTilde" xOffset="936"/>
    <contour>
      <point x="408" y="0" type="move" name="H"/>
    </contour>
    <contour>
      <point x="1000" y="870" type="move" name="R"/>
    </contour>
    <contour>
      <point x="630" y="1353" type="move" name="U"/>
    </contour>
    <contour>
      <point x="430" y="-100" type="move" name="L"/>
    </contour>
    <contour>
      <point x="797" y="0" type="move" name="O"/>
    </contour>
  </outline>
</glyph>
<glyph name="LtnSmURingAbv" format="1">
  <advance width="1022"/>
  <unicode hex="016F"/>
  <outline>
    <component base="LtnSmU"/>
    <component base="CombRingAbv" xOffset="935"/>
    <contour>
      <point x="408" y="0" type="move" name="H"/>
    </contour>
    <contour>
      <point x="1000" y="870" type="move" name="R"/>
    </contour>
    <contour>
      <point x="635" y="1420" type="move" name="U"/>
    </contour>
    <contour>
      <point x="430" y="-100" type="move" name="L"/>
    </contour>
    <contour>
      <point x="797" y="0" type="move" name="O"/>
    </contour>
  </outline>
</glyph>
<glyph name="LtnSmUDblAcute" format="1">
  <advance width="1022"/>
  <unicode hex="0171"/>
  <outline>
    <component base="LtnSmU"/>
    <component base="CombDblAcute" xOffset="942"/>
    <contour>
      <point x="408" y="0" type="move" name="H"/>
    </contour>
    <contour>
      <point x="1000" y="870" type="move" name="R"/>
    </contour>
    <contour>
      <point x="726" y="1524" type="move" name="U"/>
    </contour>
    <contour>
      <point x="430" y="-100" type="move" name="L"/>
    </contour>
    <contour>
      <point x="797" y="0" type="move" name="O"/>
    </contour>
  </outline>
</glyph>
<glyph name="LtnSmZDotAbv" format="1">
  <advance width="776"/>
  <unicode hex="017C"/>
  <outline>
    <component base="LtnSmZ"/>
    <component base="CombDotAbv" xOffset="844"/>
    <contour>
      <point x="380" y="0" type="move" name="H"/>
    </contour>
    <contour>
      <point x="537" y="1353" type="move" name="U"/>
    </contour>
    <contour>
      <point x="347" y="-100" type="move" name="L"/>
    </contour>
  </outline>
</glyph>
<glyph name="LtnCapZCaron" format="1">
  <advance width="1022"/>
  <unicode hex="017D"/>
  <outline>
    <component base="LtnCapZ"/>
    <component base="CombCaron.LP" xOffset="996" yOffset="320"/>
    <contour>
      <point x="688" y="1668" type="move" name="U"/>
    </contour>
    <contour>
      <point x="465" y="-100" type="move" name="L"/>
    </contour>
  </outline>
</glyph>
<glyph name="LtnCapSchwa" format="1">
  <advance width="1073"/>
  <unicode hex="018F"/>
  <outline>
    <contour>
      <point x="990" y="678" type="curve" smooth="yes"/>
      <point x="1042" y="1065"/>
      <point x="844" y="1290"/>
      <point x="619" y="1290" type="curve" smooth="yes"/>
      <point x="498" y="1290"/>
      <point x="378" y="1260"/>
      <point x="191" y="1081" type="curve"/>
      <point x="195" y="1073"/>
      <point x="205" y="1042"/>
      <point x="217" y="1036" type="curve"/>
      <point x="376" y="1149"/>
      <point x="476" y="1174"/>
      <point x="540" y="1174" type="curve" smooth="yes"/>
      <point x="712" y="1174"/>
      <point x="892" y="995"/>
      <point x="843" y="641" type="curve" smooth="yes"/>
      <point x="787" y="225"/>
      <point x="626" y="84"/>
      <point x="457" y="84" type="curve" smooth="yes"/>
      <point x="315" y="84"/>
      <point x="218" y="234"/>
      <point x="238" y="379" type="curve" smooth="yes"/>
      <point x="248" y="453"/>
      <point x="281" y="500"/>
      <point x="315" y="500" type="curve" smooth="yes"/>
      <point x="837" y="500" type="line"/>
      <point x="850" y="590" type="line"/>
      <point x="315" y="590" type="line" smooth="yes"/>
      <point x="299" y="590"/>
      <point x="192" y="540"/>
      <point x="131" y="502" type="curve"/>
      <point x="99" y="461"/>
      <point x="86" y="401"/>
      <point x="80" y="354" type="curve" smooth="yes"/>
      <point x="56" y="177"/>
      <point x="166" y="-30"/>
      <point x="400" y="-30" type="curve" smooth="yes"/>
      <point x="695" y="-30"/>
      <point x="933" y="258"/>
    </contour>
    <contour>
      <point x="644" y="1320" type="move" name="U"/>
    </contour>
    <contour>
      <point x="450" y="-100" type="move" name="L"/>
    </contour>
  </outline>
</glyph>
<glyph name="LtnCapOHorn" format="1">
  <advance width="1174"/>
  <unicode hex="01A0"/>
  <outline>
    <component base="LtnCapO"/>
    <component base="CombHorn" xOffset="1086" yOffset="380"/>
    <contour>
      <point x="507" y="-100" type="move" name="L"/>
    </contour>
    <contour>
      <point x="700" y="1320" type="move" name="U"/>
    </contour>
  </outline>
</glyph>
<glyph name="LtnCapUHorn" format="1">
  <advance width="1365"/>
  <unicode hex="01AF"/>
  <outline>
    <component base="LtnCapU"/>
    <component base="CombHorn" xOffset="1277" yOffset="380"/>
    <contour>
      <point x="563" y="-100" type="move" name="L"/>
    </contour>
    <contour>
      <point x="757" y="1320" type="move" name="U"/>
    </contour>
  </outline>
</glyph>
<glyph name="LtnLateralClick" format="1">
  <advance width="790"/>
  <unicode hex="01C1"/>
  <outline>
    <contour>
      <point x="201" y="-439" type="curve"/>
      <point x="201" y="-203"/>
      <point x="412" y="1229"/>
      <point x="461" y="1498" type="curve"/>
      <point x="433" y="1520" type="line"/>
      <point x="397" y="1510"/>
      <point x="304" y="1481"/>
      <point x="268" y="1459" type="curve"/>
      <point x="294" y="1220"/>
      <point x="69" y="-217"/>
      <point x="19" y="-478" type="curve"/>
      <point x="47" y="-500" type="line"/>
      <point x="78" y="-489"/>
      <point x="176" y="-460"/>
    </contour>
    <contour>
      <point x="521" y="-439" type="curve"/>
      <point x="521" y="-203"/>
      <point x="732" y="1229"/>
      <point x="781" y="1498" type="curve"/>
      <point x="753" y="1520" type="line"/>
      <point x="717" y="1510"/>
      <point x="624" y="1481"/>
      <point x="588" y="1459" type="curve"/>
      <point x="614" y="1220"/>
      <point x="389" y="-217"/>
      <point x="339" y="-478" type="curve"/>
      <point x="367" y="-500" type="line"/>
      <point x="398" y="-489"/>
      <point x="496" y="-460"/>
    </contour>
    <contour>
      <point x="547" y="1640" type="move" name="U"/>
    </contour>
    <contour>
      <point x="240" y="-600" type="move" name="L"/>
    </contour>
  </outline>
</glyph>
<glyph name="LtnCapICaron" format="1">
  <advance width="573"/>
  <unicode hex="01CF"/>
  <outline>
    <component base="LtnCapI"/>
    <component base="CombCaron.LP" xOffset="763" yOffset="320"/>
    <contour>
      <point x="225" y="0" type="move" name="H"/>
    </contour>
    <contour>
      <point x="568" y="1072" type="move" name="R"/>
    </contour>
    <contour>
      <point x="455" y="1668" type="move" name="U"/>
    </contour>
    <contour>
      <point x="211" y="-100" type="move" name="L"/>
    </contour>
    <contour>
      <point x="285" y="0" type="move" name="O"/>
    </contour>
  </outline>
</glyph>
<glyph name="LtnCapOCaron" format="1">
  <advance width="1116"/>
  <unicode hex="01D1"/>
  <outline>
    <component base="LtnCapO"/>
    <component base="CombCaron.LP" xOffset="1057" yOffset="320"/>
    <contour>
      <point x="500" y="0" type="move" name="H"/>
    </contour>
    <contour>
      <point x="1202" y="1072" type="move" name="R"/>
    </contour>
    <contour>
      <point x="749" y="1668" type="move" name="U"/>
    </contour>
    <contour>
      <point x="505" y="-100" type="move" name="L"/>
    </contour>
    <contour>
      <point x="560" y="0" type="move" name="O"/>
    </contour>
  </outline>
</glyph>
<glyph name="LtnCapUDiaerMacron" format="1">
  <advance width="1227"/>
  <unicode hex="01D5"/>
  <outline>
    <component base="LtnCapU"/>
    <component base="CombDiaer.LP" xOffset="1112" yOffset="320"/>
    <component base="CombMacron.LP" xOffset="1166" yOffset="640"/>
    <contour>
      <point x="580" y="0" type="move" name="H"/>
    </contour>
    <contour>
      <point x="1256" y="1072" type="move" name="R"/>
    </contour>
    <contour>
      <point x="845" y="1960" type="move" name="U"/>
    </contour>
    <contour>
      <point x="563" y="-100" type="move" name="L"/>
    </contour>
    <contour>
      <point x="661" y="0" type="move" name="O"/>
    </contour>
  </outline>
</glyph>
<glyph name="LtnSmUDiaerMacron" format="1">
  <advance width="1022"/>
  <unicode hex="01D6"/>
  <outline>
    <component base="LtnSmU"/>
    <component base="CombDiaer" xOffset="936"/>
    <component base="CombMacron" xOffset="998" yOffset="370"/>
    <contour>
      <point x="408" y="0" type="move" name="H"/>
    </contour>
    <contour>
      <point x="1000" y="870" type="move" name="R"/>
    </contour>
    <contour>
      <point x="685" y="1740" type="move" name="U"/>
    </contour>
    <contour>
      <point x="430" y="-100" type="move" name="L"/>
    </contour>
    <contour>
      <point x="797" y="0" type="move" name="O"/>
    </contour>
  </outline>
</glyph>
<glyph name="LtnCapAeMacron" format="1">
  <advance width="1464"/>
  <unicode hex="01E2"/>
  <outline>
    <component base="LtnCapAe"/>
    <component base="CombMacron.LP" xOffset="1351" yOffset="320"/>
    <contour>
      <point x="1030" y="1640" type="move" name="U"/>
    </contour>
    <contour>
      <point x="721" y="-100" type="move" name="L"/>
    </contour>
  </outline>
</glyph>
<glyph name="LtnCapGCaron" format="1">
  <advance width="1073"/>
  <unicode hex="01E6"/>
  <outline>
    <component base="LtnCapG"/>
    <component base="CombCaron.LP" xOffset="1077" yOffset="320"/>
    <contour>
      <point x="520" y="0" type="move" name="H"/>
    </contour>
    <contour>
      <point x="769" y="1668" type="move" name="U"/>
    </contour>
    <contour>
      <point x="525" y="-100" type="move" name="L"/>
    </contour>
  </outline>
</glyph>
<glyph name="LtnSmGCaron" format="1">
  <advance width="911"/>
  <unicode hex="01E7"/>
  <outline>
    <component base="LtnSmG"/>
    <component base="CombCaron" xOffset="872"/>
    <contour>
      <point x="310" y="-450" type="move" name="H"/>
    </contour>
    <contour>
      <point x="940" y="870" type="move" name="R"/>
    </contour>
    <contour>
      <point x="575" y="1422" type="move" name="U"/>
    </contour>
    <contour>
      <point x="296" y="-600" type="move" name="L"/>
    </contour>
  </outline>
</glyph>
<glyph name="LtnCapKCaron" format="1">
  <advance width="1102"/>
  <unicode hex="01E8"/>
  <outline>
    <component base="LtnCapK"/>
    <component base="CombCaron.LP" xOffset="1068" yOffset="320"/>
    <contour>
      <point x="200" y="0" type="move" name="H"/>
    </contour>
    <contour>
      <point x="760" y="1668" type="move" name="U"/>
    </contour>
    <contour>
      <point x="516" y="-100" type="move" name="L"/>
    </contour>
  </outline>
</glyph>
<glyph name="LtnSmJCaron" format="1">
  <advance width="502"/>
  <unicode hex="01F0"/>
  <outline>
    <component base="LtnSmJ.Dotless"/>
    <component base="CombCaron" xOffset="684"/>
    <contour>
      <point x="387" y="1422" type="move" name="U"/>
    </contour>
    <contour>
      <point x="108" y="-600" type="move" name="L"/>
    </contour>
  </outline>
</glyph>
<glyph name="LtnCapDz" format="1">
  <advance width="2140"/>
  <unicode hex="01F1"/>
  <outline>
    <component base="LtnCapD"/>
    <component base="LtnCapZ" xOffset="1118"/>
    <contour>
      <point x="1757" y="1320" type="move" name="U"/>
    </contour>
    <contour>
      <point x="1583" y="-100" type="move" name="L"/>
    </contour>
  </outline>
</glyph>
<glyph name="LtnCapDSmZ" format="1">
  <advance width="1894"/>
  <unicode hex="01F2"/>
  <outline>
    <component base="LtnCapD"/>
    <component base="LtnSmZ" xOffset="1118"/>
    <contour>
      <point x="1498" y="0" type="move" name="H"/>
    </contour>
    <contour>
      <point x="1606" y="1000" type="move" name="U"/>
    </contour>
    <contour>
      <point x="1465" y="-100" type="move" name="L"/>
    </contour>
  </outline>
</glyph>
<glyph name="LtnSmGAcute" format="1">
  <advance width="911"/>
  <unicode hex="01F5"/>
  <outline>
    <component base="LtnSmG"/>
    <component base="CombAcute" xOffset="868"/>
    <contour>
      <point x="310" y="-450" type="move" name="H"/>
    </contour>
    <contour>
      <point x="940" y="870" type="move" name="R"/>
    </contour>
    <contour>
      <point x="566" y="1370" type="move" name="U"/>
    </contour>
    <contour>
      <point x="296" y="-600" type="move" name="L"/>
    </contour>
  </outline>
</glyph>
<glyph name="LtnCapNGrave" format="1">
  <advance width="1239"/>
  <unicode hex="01F8"/>
  <outline>
    <component base="LtnCapN"/>
    <component base="CombGrave.LP" xOffset="1012" yOffset="320"/>
    <contour>
      <point x="940" y="0" type="move" name="H"/>
    </contour>
    <contour>
      <point x="780" y="1640" type="move" name="U"/>
    </contour>
    <contour>
      <point x="542" y="-100" type="move" name="L"/>
    </contour>
  </outline>
</glyph>
<glyph name="LtnSmNGrave" format="1">
  <advance width="1012"/>
  <unicode hex="01F9"/>
  <outline>
    <component base="LtnSmN"/>
    <component base="CombGrave" xOffset="859"/>
    <contour>
      <point x="720" y="0" type="move" name="H"/>
    </contour>
    <contour>
      <point x="634" y="1370" type="move" name="U"/>
    </contour>
    <contour>
      <point x="433" y="-100" type="move" name="L"/>
    </contour>
  </outline>
</glyph>
<glyph name="LtnCapIDblGrave" format="1">
  <advance width="573"/>
  <unicode hex="0208"/>
  <outline>
    <component base="LtnCapI"/>
    <component base="CombDblGrave" xOffset="764" yOffset="320"/>
    <contour>
      <point x="225" y="0" type="move" name="H"/>
    </contour>
    <contour>
      <point x="568" y="1072" type="move" name="R"/>
    </contour>
    <contour>
      <point x="492" y="1816" type="move" name="U"/>
    </contour>
    <contour>
      <point x="211" y="-100" type="move" name="L"/>
    </contour>
    <contour>
      <point x="285" y="0" type="move" name="O"/>
    </contour>
  </outline>
</glyph>
<glyph name="LtnSmOInvBreve" format="1">
  <advance width="864"/>
  <unicode hex="020F"/>
  <outline>
    <component base="LtnSmO"/>
    <component base="CombInvBreve" xOffset="859"/>
    <contour>
      <point x="374" y="0" type="move" name="H"/>
    </contour>
    <contour>
      <point x="920" y="870" type="move" name="R"/>
    </contour>
    <contour>
      <point x="549" y="1320" type="move" name="U"/>
    </contour>
    <contour>
      <point x="354" y="-100" type="move" name="L"/>
    </contour>
    <contour>
      <point x="429" y="0" type="move" name="O"/>
    </contour>
  </outline>
</glyph>
<glyph name="LtnCapRDblGrave" format="1">
  <advance width="1077"/>
  <unicode hex="0210"/>
  <outline>
    <component base="LtnCapR"/>
    <component base="CombDblGrave" xOffset="976" yOffset="320"/>
    <contour>
      <point x="200" y="0" type="move" name="H"/>
    </contour>
    <contour>
      <point x="704" y="1816" type="move" name="U"/>
    </contour>
    <contour>
      <point x="423" y="-100" type="move" name="L"/>
    </contour>
  </outline>
</glyph>
<glyph name="LtnCapRInvBreve" format="1">
  <advance width="1077"/>
  <unicode hex="0212"/>
  <outline>
    <component base="LtnCapR"/>
    <component base="CombInvBreve" xOffset="972" yOffset="320"/>
    <contour>
      <point x="200" y="0" type="move" name="H"/>
    </contour>
    <contour>
      <point x="662" y="1640" type="move" name="U"/>
    </contour>
    <contour>
      <point x="423" y="-100" type="move" name="L"/>
    </contour>
  </outline>
</glyph>
<glyph name="LtnSmRInvBreve" format="1">
  <advance width="727"/>
  <unicode hex="0213"/>
  <outline>
    <component base="LtnSmR"/>
    <component base="CombInvBreve" xOffset="814"/>
    <contour>
      <point x="175" y="0" type="move" name="H"/>
    </contour>
    <contour>
      <point x="504" y="1320" type="move" name="U"/>
    </contour>
    <contour>
      <point x="164" y="-100" type="move" name="L"/>
    </contour>
  </outline>
</glyph>
<glyph name="LtnSmUInvBreve" format="1">
  <advance width="1022"/>
  <unicode hex="0217"/>
  <outline>
    <component base="LtnSmU"/>
    <component base="CombInvBreve" xOffset="935"/>
    <contour>
      <point x="408" y="0" type="move" name="H"/>
    </contour>
    <contour>
      <point x="1000" y="870" type="move" name="R"/>
    </contour>
    <contour>
      <point x="625" y="1320" type="move" name="U"/>
    </contour>
    <contour>
      <point x="430" y="-100" type="move" name="L"/>
    </contour>
    <contour>
      <point x="797" y="0" type="move" name="O"/>
    </contour>
  </outline>
</glyph>
<glyph name="LtnCapTCommaBlw" format="1">
  <advance width="1067"/>
  <unicode hex="021A"/>
  <outline>
    <component base="LtnCapT"/>
    <component base="CombCommaBlw" xOffset="954"/>
    <contour>
      <point x="461" y="0" type="move" name="H"/>
    </contour>
    <contour>
      <point x="641" y="1320" type="move" name="U"/>
    </contour>
    <contour>
      <point x="379" y="-600" type="move" name="L"/>
    </contour>
  </outline>
</glyph>
<glyph name="LtnCapHCaron" format="1">
  <advance width="1235"/>
  <unicode hex="021E"/>
  <outline>
    <component base="LtnCapH"/>
    <component base="CombCaron.LP" xOffset="1094" yOffset="320"/>
    <contour>
      <point x="216" y="0" type="move" name="H"/>
    </contour>
    <contour>
      <point x="786" y="1668" type="move" name="U"/>
    </contour>
    <contour>
      <point x="542" y="-100" type="move" name="L"/>
    </contour>
  </outline>
</glyph>
<glyph name="LtnCapECedilla" format="1">
  <advance width="946"/>
  <unicode hex="0228"/>
  <outline>
    <component base="LtnCapE"/>
    <component base="CombCedilla" xOffset="898"/>
    <contour>
      <point x="972" y="1072" type="move" name="R"/>
    </contour>
    <contour>
      <point x="591" y="1320" type="move" name="U"/>
    </contour>
    <contour>
      <point x="329" y="-600" type="move" name="L"/>
    </contour>
    <contour>
      <point x="621" y="0" type="move" name="O"/>
    </contour>
  </outline>
</glyph>
<glyph name="LtnCapODiaerMacron" format="1">
  <advance width="1116"/>
  <unicode hex="022A"/>
  <outline>
    <component base="LtnCapO"/>
    <component base="CombDiaer.LP" xOffset="1055" yOffset="320"/>
    <component base="CombMacron.LP" xOffset="1109" yOffset="640"/>
    <contour>
      <point x="500" y="0" type="move" name="H"/>
    </contour>
    <contour>
      <point x="1202" y="1072" type="move" name="R"/>
    </contour>
    <contour>
      <point x="788" y="1960" type="move" name="U"/>
    </contour>
    <contour>
      <point x="505" y="-100" type="move" name="L"/>
    </contour>
    <contour>
      <point x="560" y="0" type="move" name="O"/>
    </contour>
  </outline>
</glyph>
<glyph name="LtnSmODotAbvMacron" format="1">
  <advance width="864"/>
  <unicode hex="0231"/>
  <outline>
    <component base="LtnSmO"/>
    <component base="CombDotAbv" xOffset="861"/>
    <component base="CombMacron" xOffset="919" yOffset="353"/>
    <contour>
      <point x="374" y="0" type="move" name="H"/>
    </contour>
    <contour>
      <point x="920" y="870" type="move" name="R"/>
    </contour>
    <contour>
      <point x="606" y="1723" type="move" name="U"/>
    </contour>
    <contour>
      <point x="354" y="-100" type="move" name="L"/>
    </contour>
    <contour>
      <point x="429" y="0" type="move" name="O"/>
    </contour>
  </outline>
</glyph>
<glyph name="LtnCapYMacron" format="1">
  <advance width="1145"/>
  <unicode hex="0232"/>
  <outline>
    <component base="LtnCapY"/>
    <component base="CombMacron.LP" xOffset="1052" yOffset="320"/>
    <contour>
      <point x="731" y="1640" type="move" name="U"/>
    </contour>
    <contour>
      <point x="493" y="-100" type="move" name="L"/>
    </contour>
  </outline>
</glyph>
<glyph name="LtnSmCapI" format="1">
  <advance width="504"/>
  <unicode hex="026A"/>
  <outline>
    <contour>
      <point x="381" y="0" type="line"/>
      <point x="386" y="42" type="line"/>
      <point x="303" y="60"/>
      <point x="268" y="87"/>
      <point x="271" y="102" type="curve" smooth="yes"/>
      <point x="366" y="804" type="line" smooth="yes"/>
      <point x="368" y="821"/>
      <point x="416" y="846"/>
      <point x="498" y="864" type="curve"/>
      <point x="504" y="906" type="line"/>
      <point x="113" y="906" type="line"/>
      <point x="107" y="864" type="line"/>
      <point x="190" y="846"/>
      <point x="225" y="819"/>
      <point x="223" y="804" type="curve" smooth="yes"/>
      <point x="128" y="102" type="line" smooth="yes"/>
      <point x="125" y="85"/>
      <point x="78" y="60"/>
      <point x="-5" y="42" type="curve"/>
      <point x="-10" y="0" type="line"/>
    </contour>
    <contour>
      <point x="322" y="1000" type="move" name="U"/>
    </contour>
    <contour>
      <point x="171" y="-100" type="move" name="L"/>
    </contour>
    <contour>
      <point x="520" y="870" type="move" name="R"/>
    </contour>
    <contour>
      <point x="190" y="0" type="move" name="H"/>
    </contour>
    <contour>
      <point x="224" y="0" type="move" name="O"/>
    </contour>
  </outline>
</glyph>
<glyph name="ModAcuteAccent" format="1">
  <advance width="400"/>
  <unicode hex="02CA"/>
  <outline>
    <component base="CombAcute" xOffset="558"/>
    <contour>
      <point x="256" y="1370" type="move" name="U"/>
    </contour>
  </outline>
</glyph>
<glyph name="ModLowGraveAccent" format="1">
  <advance width="498"/>
  <unicode hex="02CE"/>
  <outline>
    <contour>
      <point x="426" y="-367" type="curve"/>
      <point x="113" y="-52" type="line"/>
      <point x="82" y="-68"/>
      <point x="15" y="-103"/>
      <point x="-10" y="-123" type="curve"/>
      <point x="-22" y="-170" type="line"/>
      <point x="379" y="-414" type="line"/>
      <point x="400" y="-402"/>
      <point x="408" y="-394"/>
    </contour>
    <contour>
      <point x="148" y="-600" type="move" name="L"/>
    </contour>
  </outline>
</glyph>
<glyph name="CombAcute" format="1">
  <advance width="0"/>
  <unicode hex="0301"/>
  <outline>
    <contour>
      <point x="-23" y="1419" type="line"/>
      <point x="-45" y="1432"/>
      <point x="-110" y="1452"/>
      <point x="-136" y="1459" type="curve"/>
      <point x="-408" y="1061" type="line"/>
      <point x="-389" y="1038"/>
      <point x="-384" y="1031"/>
      <point x="-363" y="1026" type="curve"/>
      <point x="-8" y="1374" type="line"/>
    </contour>
    <contour>
      <point x="-302" y="1370" type="move" name="U"/>
    </contour>
    <contour>
      <point x="-353" y="1000" type="move" name="_U"/>
    </contour>
  </outline>
</glyph>
<glyph name="CombTilde" format="1">
  <advance width="0"/>
  <unicode hex="0303"/>
  <outline>
    <contour>
      <point x="-4" y="1326" type="curve"/>
      <point x="-49" y="1346" type="line"/>
      <point x="-99" y="1272"/>
      <point x="-152" y="1227"/>
      <point x="-199" y="1227" type="curve" smooth="yes"/>
      <point x="-254" y="1227"/>
      <point x="-310" y="1336"/>
      <point x="-398" y="1336" type="curve" smooth="yes"/>
      <point x="-500" y="1336"/>
      <point x="-590" y="1221"/>
      <point x="-645" y="1115" type="curve"/>
      <point x="-602" y="1094" type="line"/>
      <point x="-547" y="1168"/>
      <point x="-500" y="1213"/>
      <point x="-453" y="1213" type="curve" smooth="yes"/>
      <point x="-383" y="1213"/>
      <point x="-334" y="1104"/>
      <point x="-250" y="1104" type="curve" smooth="yes"/>
      <point x="-146" y="1104"/>
      <point x="-60" y="1219"/>
    </contour>
    <contour>
      <point x="-306" y="1353" type="move" name="U"/>
    </contour>
    <contour>
      <point x="-355" y="1000" type="move" name="_U"/>
    </contour>
  </outline>
</glyph>
<glyph name="CombTrndCommaAbv" format="1">
  <advance width="0"/>
  <unicode hex="0312"/>
  <outline>
    <contour>
      <point x="-432" y="1203" type="curve"/>
      <point x="-445" y="1137"/>
      <point x="-436" y="1069"/>
      <point x="-376" y="1039" type="curve"/>
      <point x="-339" y="1035"/>
      <point x="-206" y="1078"/>
      <point x="-183" y="1104" type="curve"/>
      <point x="-188" y="1144" type="line"/>
      <point x="-282" y="1144"/>
      <point x="-309" y="1204"/>
      <point x="-295" y="1273" type="curve" smooth="yes"/>
      <point x="-282" y="1332"/>
      <point x="-249" y="1383"/>
      <point x="-192" y="1433" type="curve"/>
      <point x="-222" y="1464" type="line"/>
      <point x="-336" y="1401"/>
      <point x="-412" y="1292"/>
    </contour>
    <contour>
      <point x="-314" y="1320" type="move" name="U"/>
    </contour>
    <contour>
      <point x="-358" y="1000" type="move" name="_U"/>
    </contour>
  </outline>
</glyph>
<glyph name="CombHorn" format="1">
  <advance width="88"/>
  <unicode hex="031B"/>
  <outline>
    <contour>
      <point x="163" y="1038" type="curve"/>
      <point x="163" y="1067"/>
      <point x="153" y="1098"/>
      <point x="120" y="1118" type="curve"/>
      <point x="-48" y="1038" type="line"/>
      <point x="-9" y="1018"/>
      <point x="-3" y="987"/>
      <point x="-3" y="963" type="curve" smooth="yes"/>
      <point x="-3" y="874"/>
      <point x="-60" y="818"/>
      <point x="-181" y="782" type="curve"/>
      <point x="-183" y="714" type="line"/>
      <point x="2" y="783"/>
      <point x="163" y="893"/>
    </contour>
    <contour>
      <point x="0" y="870" type="move" name="_R"/>
    </contour>
  </outline>
</glyph>
<glyph name="CombLowLine" format="1">
  <advance width="0"/>
  <unicode hex="0332"/>
  <outline>
    <contour>
      <point x="-30" y="-235" type="curve"/>
      <point x="-49" y="-210" type="line"/>
      <point x="-976" y="-210" type="line"/>
      <point x="-991" y="-237"/>
      <point x="-1015" y="-285"/>
      <point x="-1025" y="-312" type="curve"/>
      <point x="-1009" y="-336" type="line"/>
      <point x="-80" y="-336" type="line"/>
      <point x="-67" y="-314"/>
      <point x="-39" y="-264"/>
    </contour>
    <contour>
      <point x="-572" y="-600" type="move" name="L"/>
    </contour>
    <contour>
      <point x="-503" y="-100" type="move" name="_L"/>
    </contour>
  </outline>
</glyph>
<glyph name="CombLngStrkOverlay" format="1">
  <advance width="0"/>
  <unicode hex="0336"/>
  <outline>
    <contour>
      <point x="44" y="485" type="line"/>
      <point x="25" y="510" type="line"/>
      <point x="-877" y="510" type="line"/>
      <point x="-889" y="489"/>
      <point x="-899" y="463"/>
      <point x="-908" y="442" type="curve"/>
      <point x="-889" y="420" type="line"/>
      <point x="13" y="420" type="line"/>
    </contour>
  </outline>
</glyph>
<glyph name="CombSqrBlw" format="1">
  <advance width="0"/>
  <unicode hex="033B"/>
  <outline>
    <contour>
      <point x="-339" y="-173" type="line"/>
      <point x="-356" y="-150" type="line"/>
      <point x="-641" y="-150" type="line"/>
      <point x="-666" y="-164"/>
      <point x="-685" y="-181"/>
      <point x="-703" y="-199" type="curve"/>
      <point x="-738" y="-457" type="line"/>
      <point x="-721" y="-480" type="line"/>
      <point x="-436" y="-480" type="line"/>
      <point x="-411" y="-466"/>
      <point x="-392" y="-449"/>
      <point x="-374" y="-431" type="curve"/>
    </contour>
    <contour>
      <point x="-432" y="-230" type="line"/>
      <point x="-455" y="-400" type="line"/>
      <point x="-645" y="-400" type="line"/>
      <point x="-622" y="-230" type="line"/>
    </contour>
    <contour>
      <point x="-577" y="-600" type="move" name="L"/>
    </contour>
    <contour>
      <point x="-508" y="-100" type="move" name="_L"/>
    </contour>
  </outline>
</glyph>
<glyph name="CombLftRtArrwBlw" format="1">
  <advance width="0"/>
  <unicode hex="034D"/>
  <outline>
    <contour>
      <point x="-325" y="-286" type="curve"/>
      <point x="-344" y="-260" type="line"/>
      <point x="-719" y="-260" type="line"/>
      <point x="-736" y="-286"/>
      <point x="-743" y="-298"/>
      <point x="-754" y="-325" type="curve"/>
      <point x="-737" y="-348" type="line"/>
      <point x="-358" y="-348" type="line"/>
      <point x="-344" y="-327"/>
      <point x="-335" y="-312"/>
    </contour>
    <contour>
      <point x="-351" y="-304" type="line"/>
      <point x="-468" y="-476" type="line"/>
      <point x="-422" y="-500" type="line"/>
      <point x="-261" y="-304" type="line"/>
      <point x="-369" y="-108" type="line"/>
      <point x="-421" y="-133" type="line"/>
    </contour>
    <contour>
      <point x="-728" y="-304" type="line"/>
      <point x="-610" y="-133" type="line"/>
      <point x="-657" y="-108" type="line"/>
      <point x="-818" y="-304" type="line"/>
      <point x="-709" y="-500" type="line"/>
      <point x="-658" y="-476" type="line"/>
    </contour>
    <contour>
      <point x="-579" y="-600" type="move" name="L"/>
    </contour>
    <contour>
      <point x="-511" y="-100" type="move" name="_L"/>
    </contour>
  </outline>
</glyph>
<glyph name="CombUpArrwBlw" format="1">
  <advance width="0"/>
  <unicode hex="034E"/>
  <outline>
    <contour>
      <point x="-518" y="-470" type="curve"/>
      <point x="-488" y="-245" type="line"/>
      <point x="-371" y="-332" type="line"/>
      <point x="-341" y="-278" type="line"/>
      <point x="-510" y="-108" type="line"/>
      <point x="-732" y="-278" type="line"/>
      <point x="-716" y="-332" type="line"/>
      <point x="-572" y="-245" type="line"/>
      <point x="-604" y="-478" type="line"/>
      <point x="-584" y="-500" type="line"/>
      <point x="-561" y="-492"/>
      <point x="-544" y="-485"/>
    </contour>
    <contour>
      <point x="-579" y="-600" type="move" name="L"/>
    </contour>
    <contour>
      <point x="-511" y="-100" type="move" name="_L"/>
    </contour>
  </outline>
</glyph>
<glyph name="CombRtArrwhdAbv" format="1">
  <advance width="0"/>
  <unicode hex="0350"/>
  <outline>
    <contour>
      <point x="-20" y="1300" type="curve"/>
      <point x="-34" y="1320" type="line"/>
      <point x="-489" y="1520" type="line"/>
      <point x="-508" y="1504"/>
      <point x="-531" y="1487"/>
      <point x="-556" y="1468" type="curve"/>
      <point x="-549" y="1436" type="line"/>
      <point x="-55" y="1220" type="line"/>
      <point x="-43" y="1241"/>
      <point x="-29" y="1277"/>
    </contour>
    <contour>
      <point x="-20" y="1300" type="curve"/>
      <point x="-34" y="1320" type="line"/>
      <point x="-585" y="1104" type="line"/>
      <point x="-595" y="1085"/>
      <point x="-609" y="1046"/>
      <point x="-618" y="1025" type="curve"/>
      <point x="-603" y="1005" type="line"/>
      <point x="-55" y="1220" type="line"/>
      <point x="-43" y="1241"/>
      <point x="-29" y="1277"/>
    </contour>
    <contour>
      <point x="-317" y="1422" type="move" name="U"/>
    </contour>
    <contour>
      <point x="-376" y="1000" type="move" name="_U"/>
    </contour>
  </outline>
</glyph>
<glyph name="CombDblMacronBlw" format="1">
  <advance width="0"/>
  <unicode hex="035F"/>
  <outline>
    <contour>
      <point x="612" y="-624" type="curve"/>
      <point x="593" y="-599" type="line"/>
      <point x="-824" y="-599" type="line"/>
      <point x="-839" y="-626"/>
      <point x="-863" y="-674"/>
      <point x="-873" y="-701" type="curve"/>
      <point x="-857" y="-725" type="line"/>
      <point x="562" y="-725" type="line"/>
      <point x="575" y="-703"/>
      <point x="603" y="-653"/>
    </contour>
    <contour>
      <point x="-94" y="-700" type="move" name="L"/>
    </contour>
  </outline>
</glyph>
<glyph name="GrSmBeta" format="1">
  <advance width="948"/>
  <unicode hex="03B2"/>
  <outline>
    <contour>
      <point x="864" y="379" type="curve"/>
      <point x="922" y="653"/>
      <point x="809" y="815"/>
      <point x="616" y="819" type="curve"/>
      <point x="811" y="959"/>
      <point x="841" y="1117"/>
      <point x="854" y="1240" type="curve" smooth="yes"/>
      <point x="868" y="1374"/>
      <point x="773" y="1520"/>
      <point x="652" y="1520" type="curve" smooth="yes"/>
      <point x="310" y="1520"/>
      <point x="197" y="997"/>
      <point x="147" y="647" type="curve" smooth="yes"/>
      <point x="72" y="96"/>
      <point x="15" y="-324"/>
      <point x="-3" y="-471" type="curve"/>
      <point x="30" y="-500" type="line"/>
      <point x="64" y="-484"/>
      <point x="154" y="-440"/>
      <point x="196" y="-427" type="curve"/>
      <point x="165" y="-324"/>
      <point x="170" y="-184"/>
      <point x="307" y="762" type="curve" smooth="yes"/>
      <point x="358" y="1107"/>
      <point x="425" y="1406"/>
      <point x="577" y="1406" type="curve" smooth="yes"/>
      <point x="667" y="1406"/>
      <point x="730" y="1316"/>
      <point x="711" y="1149" type="curve" smooth="yes"/>
      <point x="692" y="995"/>
      <point x="567" y="828"/>
      <point x="401" y="793" type="curve"/>
      <point x="397" y="715" type="line"/>
      <point x="432" y="723"/>
      <point x="471" y="733"/>
      <point x="504" y="733" type="curve" smooth="yes"/>
      <point x="674" y="733"/>
      <point x="774" y="578"/>
      <point x="721" y="334" type="curve" smooth="yes"/>
      <point x="694" y="209"/>
      <point x="606" y="74"/>
      <point x="465" y="74" type="curve" smooth="yes"/>
      <point x="324" y="74"/>
      <point x="221" y="301"/>
      <point x="217" y="399" type="curve"/>
      <point x="190" y="283" type="line"/>
      <point x="166" y="104"/>
      <point x="369" y="-41"/>
      <point x="457" y="-41" type="curve" smooth="yes"/>
      <point x="705" y="-41"/>
      <point x="834" y="229"/>
    </contour>
    <contour>
      <point x="634" y="1580" type="move" name="U"/>
    </contour>
    <contour>
      <point x="327" y="-600" type="move" name="L"/>
    </contour>
  </outline>
</glyph>
<glyph name="CyCapIo" format="1">
  <advance width="946"/>
  <unicode hex="0401"/>
  <outline>
    <component base="CyCapIe"/>
    <component base="CombDiaer.LP" xOffset="972" yOffset="320"/>
    <contour>
      <point x="661" y="1640" type="move" name="U"/>
    </contour>
    <contour>
      <point x="420" y="-100" type="move" name="L"/>
    </contour>
  </outline>
</glyph>
<glyph name="CyCapGje" format="1">
  <advance width="902"/>
  <unicode hex="0403"/>
  <outline>
    <component base="CyCapGhe"/>
    <component base="CombAcute.LP" xOffset="931" yOffset="320"/>
    <contour>
      <point x="622" y="1640" type="move" name="U"/>
    </contour>
    <contour>
      <point x="384" y="-100" type="move" name="L"/>
    </contour>
  </outline>
</glyph>
<glyph name="CyCapShortU" format="1">
  <advance width="1116"/>
  <unicode hex="040E"/>
  <outline>
    <component base="CyCapU"/>
    <component base="CombBreve.CyShortMrkAlt.UCHt" xOffset="1116" yOffset="-50"/>
    <contour>
      <point x="795" y="1700" type="move" name="U"/>
    </contour>
    <contour>
      <point x="545" y="-100" type="move" name="L"/>
    </contour>
  </outline>
</glyph>
<glyph name="CyCapEn" format="1">
  <advance width="1206"/>
  <unicode hex="041D"/>
  <outline>
    <contour>
      <point x="1103" y="0" type="line"/>
      <point x="1108" y="43" type="line"/>
      <point x="1025" y="61"/>
      <point x="984" y="88"/>
      <point x="986" y="104" type="curve" smooth="yes"/>
      <point x="1130" y="1155" type="line" smooth="yes"/>
      <point x="1132" y="1174"/>
      <point x="1186" y="1198"/>
      <point x="1269" y="1217" type="curve"/>
      <point x="1275" y="1260" type="line"/>
      <point x="870" y="1260" type="line"/>
      <point x="864" y="1217" type="line"/>
      <point x="948" y="1198"/>
      <point x="988" y="1171"/>
      <point x="986" y="1155" type="curve" smooth="yes"/>
      <point x="842" y="104" type="line" smooth="yes"/>
      <point x="839" y="86"/>
      <point x="787" y="61"/>
      <point x="703" y="43" type="curve"/>
      <point x="698" y="0" type="line"/>
    </contour>
    <contour>
      <point x="930" y="615" type="line"/>
      <point x="942" y="705" type="line"/>
      <point x="350" y="705" type="line"/>
      <point x="338" y="615" type="line"/>
    </contour>
    <contour>
      <point x="410" y="0" type="line"/>
      <point x="415" y="43" type="line"/>
      <point x="331" y="61"/>
      <point x="291" y="88"/>
      <point x="293" y="104" type="curve" smooth="yes"/>
      <point x="437" y="1155" type="line" smooth="yes"/>
      <point x="439" y="1174"/>
      <point x="493" y="1198"/>
      <point x="576" y="1217" type="curve"/>
      <point x="582" y="1260" type="line"/>
      <point x="177" y="1260" type="line"/>
      <point x="171" y="1217" type="line"/>
      <point x="255" y="1198"/>
      <point x="295" y="1171"/>
      <point x="293" y="1155" type="curve" smooth="yes"/>
      <point x="149" y="104" type="line" smooth="yes"/>
      <point x="146" y="86"/>
      <point x="94" y="61"/>
      <point x="10" y="43" type="curve"/>
      <point x="5" y="0" type="line"/>
    </contour>
    <contour>
      <point x="748" y="1320" type="move" name="U"/>
    </contour>
    <contour>
      <point x="554" y="-100" type="move" name="L"/>
    </contour>
  </outline>
</glyph>
<glyph name="CySmByelorusUkrainI" format="1">
  <advance width="504"/>
  <unicode hex="0456"/>
  <outline>
    <component base="LtnSmI"/>
    <contour>
      <point x="210" y="0" type="move" name="H"/>
    </contour>
    <contour>
      <point x="504" y="870" type="move" name="R"/>
    </contour>
    <contour>
      <point x="357" y="1000" type="move" name="U"/>
    </contour>
    <contour>
      <point x="206" y="-100" type="move" name="L"/>
    </contour>
    <contour>
      <point x="275" y="0" type="move" name="O"/>
    </contour>
  </outline>
</glyph>
<glyph name="CySmJe" format="1">
  <advance width="502"/>
  <unicode hex="0458"/>
  <outline>
    <component base="LtnSmJ"/>
    <contour>
      <point x="327" y="1000" type="move" name="U"/>
    </contour>
    <contour>
      <point x="108" y="-600" type="move" name="L"/>
    </contour>
  </outline>
</glyph>
<glyph name="CySmKje" format="1">
  <advance width="982"/>
  <unicode hex="045C"/>
  <outline>
    <component base="CySmKa"/>
    <component base="CombAcute" xOffset="933"/>
    <contour>
      <point x="631" y="1370" type="move" name="U"/>
    </contour>
    <contour>
      <point x="400" y="-100" type="move" name="L"/>
    </contour>
  </outline>
</glyph>
<glyph name="CySmIGrave" format="1">
  <advance width="1022"/>
  <unicode hex="045D"/>
  <outline>
    <component base="CySmI"/>
    <component base="CombGrave" xOffset="856"/>
    <contour>
      <point x="631" y="1370" type="move" name="U"/>
    </contour>
    <contour>
      <point x="430" y="-100" type="move" name="L"/>
    </contour>
  </outline>
</glyph>
<glyph name="CySmIzhitsa" format="1">
  <advance width="986"/>
  <unicode hex="0475"/>
  <outline>
    <contour>
      <point x="655" y="541" type="curve" smooth="yes"/>
      <point x="741" y="754"/>
      <point x="802" y="787"/>
      <point x="847" y="787" type="curve" smooth="yes"/>
      <point x="892" y="787"/>
      <point x="919" y="718"/>
      <point x="898" y="604" type="curve"/>
      <point x="931" y="595" type="line"/>
      <point x="979" y="691"/>
      <point x="1032" y="884"/>
      <point x="1009" y="899" type="curve" smooth="yes"/>
      <point x="965" y="926"/>
      <point x="919" y="935"/>
      <point x="879" y="935" type="curve" smooth="yes"/>
      <point x="775" y="935"/>
      <point x="690" y="811"/>
      <point x="611" y="622" type="curve" smooth="yes"/>
      <point x="566" y="514"/>
      <point x="521" y="398"/>
      <point x="477" y="225" type="curve"/>
      <point x="420" y="496"/>
      <point x="377" y="641"/>
      <point x="317" y="809" type="curve" smooth="yes"/>
      <point x="285" y="901"/>
      <point x="268" y="936"/>
      <point x="231" y="936" type="curve" smooth="yes"/>
      <point x="199" y="936"/>
      <point x="106" y="891"/>
      <point x="-6" y="840" type="curve"/>
      <point x="6" y="803" type="line"/>
      <point x="6" y="803"/>
      <point x="80" y="827"/>
      <point x="104" y="827" type="curve" smooth="yes"/>
      <point x="127" y="827"/>
      <point x="145" y="813"/>
      <point x="176" y="745" type="curve"/>
      <point x="236" y="618"/>
      <point x="337" y="190"/>
      <point x="376" y="-41" type="curve"/>
      <point x="407" y="-33"/>
      <point x="494" y="3"/>
      <point x="502" y="24" type="curve" smooth="yes"/>
      <point x="506" y="33" type="line"/>
      <point x="550" y="245"/>
      <point x="598" y="400"/>
    </contour>
    <contour>
      <point x="563" y="1000" type="move" name="U"/>
    </contour>
    <contour>
      <point x="410" y="-100" type="move" name="L"/>
    </contour>
    <contour>
      <point x="417" y="0" type="move" name="H"/>
    </contour>
    <contour>
      <point x="412" y="0" type="move" name="O"/>
    </contour>
  </outline>
</glyph>
<glyph name="CyCapPeMiddleHook" format="1">
  <advance width="1593"/>
  <unicode hex="04A6"/>
  <outline>
    <contour>
      <point x="410" y="0" type="line"/>
      <point x="415" y="43" type="line"/>
      <point x="331" y="61"/>
      <point x="291" y="88"/>
      <point x="293" y="104" type="curve" smooth="yes"/>
      <point x="439" y="1170" type="line"/>
      <point x="912" y="1170" type="line"/>
      <point x="766" y="104" type="line" smooth="yes"/>
      <point x="763" y="86"/>
      <point x="711" y="61"/>
      <point x="627" y="43" type="curve"/>
      <point x="622" y="0" type="line"/>
      <point x="1027" y="0" type="line"/>
      <point x="1032" y="43" type="line"/>
      <point x="948" y="61"/>
      <point x="908" y="88"/>
      <point x="910" y="104" type="curve" smooth="yes"/>
      <point x="1054" y="1155" type="line" smooth="yes"/>
      <point x="1056" y="1174"/>
      <point x="1109" y="1198"/>
      <point x="1193" y="1217" type="curve"/>
      <point x="1199" y="1260" type="line"/>
      <point x="177" y="1260" type="line"/>
      <point x="171" y="1217" type="line"/>
      <point x="255" y="1198"/>
      <point x="295" y="1171"/>
      <point x="293" y="1155" type="curve" smooth="yes"/>
      <point x="149" y="104" type="line" smooth="yes"/>
      <point x="146" y="86"/>
      <point x="94" y="61"/>
      <point x="10" y="43" type="curve"/>
      <point x="5" y="0" type="line"/>
    </contour>
    <contour>
      <point x="1517" y="230" type="curve" smooth="yes"/>
      <point x="1575" y="539"/>
      <point x="1436" y="740"/>
      <point x="1160" y="740" type="curve" smooth="yes"/>
      <point x="1076" y="740"/>
      <point x="969" y="708"/>
      <point x="885" y="690" type="curve"/>
      <point x="883" y="612" type="line"/>
      <point x="950" y="625"/>
      <point x="1046" y="650"/>
      <point x="1100" y="650" type="curve" smooth="yes"/>
      <point x="1334" y="650"/>
      <point x="1410" y="450"/>
      <point x="1357" y="190" type="curve" smooth="yes"/>
      <point x="1314" y="-21"/>
      <point x="1216" y="-214"/>
      <point x="919" y="-312" type="curve"/>
      <point x="925" y="-335"/>
      <point x="938" y="-362"/>
      <point x="950" y="-380" type="curve"/>
      <point x="1309" y="-259"/>
      <point x="1459" y="-81"/>
    </contour>
    <contour>
      <point x="715" y="1320" type="move" name="U"/>
    </contour>
    <contour>
      <point x="536" y="-100" type="move" name="L"/>
    </contour>
  </outline>
</glyph>
<glyph name="CySmPeMiddleHook" format="1">
  <advance width="1338"/>
  <unicode hex="04A7"/>
  <outline>
    <contour>
      <point x="867" y="762" type="curve" smooth="yes"/>
      <point x="867" y="891"/>
      <point x="822" y="936"/>
      <point x="738" y="936" type="curve" smooth="yes"/>
      <point x="619" y="936"/>
      <point x="489" y="860"/>
      <point x="344" y="678" type="curve"/>
      <point x="348" y="711"/>
      <point x="354" y="795"/>
      <point x="354" y="823" type="curve" smooth="yes"/>
      <point x="354" y="918"/>
      <point x="352" y="936"/>
      <point x="315" y="936" type="curve" smooth="yes"/>
      <point x="282" y="936"/>
      <point x="160" y="891"/>
      <point x="47" y="842" type="curve"/>
      <point x="61" y="803" type="line"/>
      <point x="61" y="803"/>
      <point x="145" y="829"/>
      <point x="168" y="829" type="curve" smooth="yes"/>
      <point x="192" y="829"/>
      <point x="205" y="823"/>
      <point x="205" y="762" type="curve" smooth="yes"/>
      <point x="205" y="668"/>
      <point x="147" y="256"/>
      <point x="92" y="-10" type="curve"/>
      <point x="125" y="-41" type="line"/>
      <point x="158" y="-23"/>
      <point x="233" y="6"/>
      <point x="268" y="25" type="curve"/>
      <point x="266" y="104"/>
      <point x="270" y="182"/>
      <point x="291" y="301" type="curve" smooth="yes"/>
      <point x="313" y="430"/>
      <point x="334" y="516"/>
      <point x="371" y="580" type="curve" smooth="yes"/>
      <point x="471" y="750"/>
      <point x="602" y="836"/>
      <point x="637" y="836" type="curve" smooth="yes"/>
      <point x="695" y="836"/>
      <point x="713" y="791"/>
      <point x="713" y="730" type="curve" smooth="yes"/>
      <point x="713" y="614"/>
      <point x="652" y="233"/>
      <point x="600" y="-10" type="curve"/>
      <point x="633" y="-41" type="line"/>
      <point x="666" y="-23"/>
      <point x="741" y="6"/>
      <point x="776" y="25" type="curve"/>
      <point x="774" y="104"/>
      <point x="778" y="182"/>
      <point x="799" y="301" type="curve" smooth="yes"/>
      <point x="821" y="430"/>
      <point x="867" y="688"/>
    </contour>
    <contour>
      <point x="1251" y="80" type="curve" smooth="yes"/>
      <point x="1312" y="388"/>
      <point x="1226" y="540"/>
      <point x="992" y="540" type="curve" smooth="yes"/>
      <point x="944" y="540"/>
      <point x="836" y="518"/>
      <point x="774" y="471" type="curve"/>
      <point x="770" y="396" type="line"/>
      <point x="828" y="440"/>
      <point x="911" y="460"/>
      <point x="955" y="460" type="curve" smooth="yes"/>
      <point x="1099" y="460"/>
      <point x="1156" y="300"/>
      <point x="1101" y="40" type="curve" smooth="yes"/>
      <point x="1050" y="-201"/>
      <point x="893" y="-371"/>
      <point x="665" y="-439" type="curve"/>
      <point x="671" y="-462"/>
      <point x="682" y="-482"/>
      <point x="694" y="-500" type="curve"/>
      <point x="1003" y="-400"/>
      <point x="1190" y="-230"/>
    </contour>
    <contour>
      <point x="584" y="1000" type="move" name="U"/>
    </contour>
    <contour>
      <point x="433" y="-100" type="move" name="L"/>
    </contour>
  </outline>
</glyph>
<glyph name="CyCapKaHook" format="1">
  <advance width="1098"/>
  <unicode hex="04C3"/>
  <outline>
    <contour>
      <point x="410" y="0" type="line"/>
      <point x="415" y="43" type="line"/>
      <point x="331" y="61"/>
      <point x="291" y="88"/>
      <point x="293" y="104" type="curve" smooth="yes"/>
      <point x="437" y="1155" type="line" smooth="yes"/>
      <point x="439" y="1174"/>
      <point x="493" y="1198"/>
      <point x="576" y="1217" type="curve"/>
      <point x="582" y="1260" type="line"/>
      <point x="177" y="1260" type="line"/>
      <point x="171" y="1217" type="line"/>
      <point x="255" y="1198"/>
      <point x="295" y="1171"/>
      <point x="293" y="1155" type="curve" smooth="yes"/>
      <point x="149" y="104" type="line" smooth="yes"/>
      <point x="146" y="86"/>
      <point x="94" y="61"/>
      <point x="10" y="43" type="curve"/>
      <point x="5" y="0" type="line"/>
    </contour>
    <contour>
      <point x="1062" y="955" type="line"/>
      <point x="1122" y="1098"/>
      <point x="1171" y="1235"/>
      <point x="1150" y="1245" type="curve" smooth="yes"/>
      <point x="1113" y="1262"/>
      <point x="1056" y="1276"/>
      <point x="1021" y="1276" type="curve" smooth="yes"/>
      <point x="903" y="1276"/>
      <point x="839" y="1241"/>
      <point x="718" y="953" type="curve" smooth="yes"/>
      <point x="614" y="708"/>
      <point x="568" y="714"/>
      <point x="456" y="694" type="curve"/>
      <point x="460" y="668"/>
      <point x="464" y="632"/>
      <point x="469" y="616" type="curve"/>
      <point x="591" y="625"/>
      <point x="710" y="688"/>
      <point x="792" y="895" type="curve" smooth="yes"/>
      <point x="869" y="1089"/>
      <point x="914" y="1127"/>
      <point x="955" y="1127" type="curve" smooth="yes"/>
      <point x="991" y="1127"/>
      <point x="1009" y="1098"/>
      <point x="1012" y="955" type="curve"/>
    </contour>
    <contour>
      <point x="986" y="230" type="curve" smooth="yes"/>
      <point x="1036" y="511"/>
      <point x="885" y="710"/>
      <point x="609" y="710" type="curve" smooth="yes"/>
      <point x="525" y="710"/>
      <point x="418" y="688"/>
      <point x="334" y="670" type="curve"/>
      <point x="332" y="592" type="line"/>
      <point x="399" y="605"/>
      <point x="495" y="620"/>
      <point x="549" y="620" type="curve" smooth="yes"/>
      <point x="783" y="620"/>
      <point x="873" y="432"/>
      <point x="826" y="190" type="curve" smooth="yes"/>
      <point x="793" y="20"/>
      <point x="665" y="-214"/>
      <point x="368" y="-312" type="curve"/>
      <point x="374" y="-335"/>
      <point x="387" y="-362"/>
      <point x="399" y="-380" type="curve"/>
      <point x="758" y="-259"/>
      <point x="937" y="-45"/>
    </contour>
    <contour>
      <point x="690" y="1320" type="move" name="U"/>
    </contour>
    <contour>
      <point x="424" y="-600" type="move" name="L"/>
    </contour>
  </outline>
</glyph>
<glyph name="CySmABreve" format="1">
  <advance width="922"/>
  <unicode hex="04D1"/>
  <outline>
    <component base="CySmA"/>
    <component base="CombBreve.CyShortMrkAlt" xOffset="1026"/>
    <contour>
      <point x="632" y="1320" type="move" name="U"/>
    </contour>
    <contour>
      <point x="434" y="-100" type="move" name="L"/>
    </contour>
  </outline>
</glyph>
<glyph name="CyCapADiaer" format="1">
  <advance width="1147"/>
  <unicode hex="04D2"/>
  <outline>
    <component base="CyCapA"/>
    <component base="CombDiaer.LP" xOffset="1051" yOffset="320"/>
    <contour>
      <point x="740" y="1640" type="move" name="U"/>
    </contour>
    <contour>
      <point x="502" y="-100" type="move" name="L"/>
    </contour>
  </outline>
</glyph>
<glyph name="CySmADiaer" format="1">
  <advance width="922"/>
  <unicode hex="04D3"/>
  <outline>
    <component base="CySmA"/>
    <component base="CombDiaer" xOffset="940"/>
    <contour>
      <point x="637" y="1370" type="move" name="U"/>
    </contour>
    <contour>
      <point x="434" y="-100" type="move" name="L"/>
    </contour>
  </outline>
</glyph>
<glyph name="CyCapLigAIe" format="1">
  <advance width="1464"/>
  <unicode hex="04D4"/>
  <outline>
    <component base="LtnCapAe"/>
    <contour>
      <point x="986" y="1320" type="move" name="U"/>
    </contour>
    <contour>
      <point x="721" y="-100" type="move" name="L"/>
    </contour>
  </outline>
</glyph>
<glyph name="CySmIeBreve" format="1">
  <advance width="805"/>
  <unicode hex="04D7"/>
  <outline>
    <component base="CySmIe"/>
    <component base="CombBreve.CyShortMrkAlt" xOffset="936"/>
    <contour>
      <point x="542" y="1320" type="move" name="U"/>
    </contour>
    <contour>
      <point x="344" y="-100" type="move" name="L"/>
    </contour>
  </outline>
</glyph>
<glyph name="CyCapSchwa" format="1">
  <advance width="1073"/>
  <unicode hex="04D8"/>
  <outline>
    <component base="LtnCapSchwa"/>
    <contour>
      <point x="644" y="1320" type="move" name="U"/>
    </contour>
    <contour>
      <point x="450" y="-100" type="move" name="L"/>
    </contour>
  </outline>
</glyph>
<glyph name="CySmSchwa" format="1">
  <advance width="805"/>
  <unicode hex="04D9"/>
  <outline>
    <component base="LtnSmSchwa"/>
    <contour>
      <point x="300" y="0" type="move" name="H"/>
    </contour>
    <contour>
      <point x="470" y="1000" type="move" name="U"/>
    </contour>
    <contour>
      <point x="319" y="-100" type="move" name="L"/>
    </contour>
    <contour>
      <point x="345" y="0" type="move" name="O"/>
    </contour>
  </outline>
</glyph>
<glyph name="CySmSchwaDiaer" format="1">
  <advance width="805"/>
  <unicode hex="04DB"/>
  <outline>
    <component base="LtnSmSchwa"/>
    <component base="CombDiaer" xOffset="825"/>
    <contour>
      <point x="300" y="0" type="move" name="H"/>
    </contour>
    <contour>
      <point x="522" y="1370" type="move" name="U"/>
    </contour>
    <contour>
      <point x="319" y="-100" type="move" name="L"/>
    </contour>
    <contour>
      <point x="345" y="0" type="move" name="O"/>
    </contour>
  </outline>
</glyph>
<glyph name="CyCapZeDiaer" format="1">
  <advance width="926"/>
  <unicode hex="04DE"/>
  <outline>
    <component base="CyCapZe"/>
    <component base="CombDiaer.LP" xOffset="969" yOffset="320"/>
    <contour>
      <point x="658" y="1640" type="move" name="U"/>
    </contour>
    <contour>
      <point x="405" y="-100" type="move" name="L"/>
    </contour>
  </outline>
</glyph>
<glyph name="CySmAbkhasDze" format="1">
  <advance width="816"/>
  <unicode hex="04E1"/>
  <outline>
    <component base="LtnSmEzh"/>
    <contour>
      <point x="479" y="1000" type="move" name="U"/>
    </contour>
    <contour>
      <point x="236" y="-600" type="move" name="L"/>
    </contour>
  </outline>
</glyph>
<glyph name="CySmIMacron" format="1">
  <advance width="1022"/>
  <unicode hex="04E3"/>
  <outline>
    <component base="CySmI"/>
    <component base="CombMacron" xOffset="946"/>
    <contour>
      <point x="633" y="1370" type="move" name="U"/>
    </contour>
    <contour>
      <point x="430" y="-100" type="move" name="L"/>
    </contour>
  </outline>
</glyph>
<glyph name="CyCapIDiaer" format="1">
  <advance width="1224"/>
  <unicode hex="04E4"/>
  <outline>
    <component base="CyCapI"/>
    <component base="CombDiaer.LP" xOffset="1103" yOffset="320"/>
    <contour>
      <point x="792" y="1640" type="move" name="U"/>
    </contour>
    <contour>
      <point x="550" y="-100" type="move" name="L"/>
    </contour>
  </outline>
</glyph>
<glyph name="CyCapODiaer" format="1">
  <advance width="1116"/>
  <unicode hex="04E6"/>
  <outline>
    <component base="CyCapO"/>
    <component base="CombDiaer.LP" xOffset="1036" yOffset="320"/>
    <contour>
      <point x="725" y="1640" type="move" name="U"/>
    </contour>
    <contour>
      <point x="487" y="-100" type="move" name="L"/>
    </contour>
  </outline>
</glyph>
<glyph name="CySmODiaer" format="1">
  <advance width="864"/>
  <unicode hex="04E7"/>
  <outline>
    <component base="CySmO"/>
    <component base="CombDiaer" xOffset="860"/>
    <contour>
      <point x="557" y="1370" type="move" name="U"/>
    </contour>
    <contour>
      <point x="354" y="-100" type="move" name="L"/>
    </contour>
  </outline>
</glyph>
<glyph name="CyCapBarredO" format="1">
  <advance width="1116"/>
  <unicode hex="04E8"/>
  <outline>
    <component base="LtnCapOMiddleTilde"/>
    <contour>
      <point x="701" y="1320" type="move" name="U"/>
    </contour>
    <contour>
      <point x="507" y="-100" type="move" name="L"/>
    </contour>
  </outline>
</glyph>
<glyph name="CySmEDiaer" format="1">
  <advance width="822"/>
  <unicode hex="04ED"/>
  <outline>
    <component base="CySmE"/>
    <component base="CombDiaer" xOffset="834"/>
    <contour>
      <point x="531" y="1370" type="move" name="U"/>
    </contour>
    <contour>
      <point x="300" y="-100" type="move" name="L"/>
    </contour>
  </outline>
</glyph>
<glyph name="CyCapUDiaer" format="1">
  <advance width="1116"/>
  <unicode hex="04F0"/>
  <outline>
    <component base="CyCapU"/>
    <component base="CombDiaer.LP" xOffset="1087" yOffset="320"/>
    <contour>
      <point x="776" y="1640" type="move" name="U"/>
    </contour>
    <contour>
      <point x="545" y="-100" type="move" name="L"/>
    </contour>
  </outline>
</glyph>
<glyph name="CySmHaStrk" format="1">
  <advance width="901"/>
  <unicode hex="04FF"/>
  <outline>
    <contour>
      <point x="877" y="72" type="curve"/>
      <point x="860" y="109" type="line"/>
      <point x="811" y="84"/>
      <point x="770" y="76"/>
      <point x="739" y="76" type="curve" smooth="yes"/>
      <point x="678" y="76"/>
      <point x="605" y="251"/>
      <point x="531" y="444" type="curve"/>
      <point x="767" y="701"/>
      <point x="893" y="831"/>
      <point x="893" y="883" type="curve" smooth="yes"/>
      <point x="893" y="911"/>
      <point x="870" y="936"/>
      <point x="807" y="936" type="curve" smooth="yes"/>
      <point x="774" y="936"/>
      <point x="702" y="930"/>
      <point x="614" y="911" type="curve"/>
      <point x="616" y="870" type="line"/>
      <point x="702" y="879"/>
      <point x="713" y="866"/>
      <point x="713" y="838" type="curve" smooth="yes"/>
      <point x="713" y="819"/>
      <point x="606" y="664"/>
      <point x="497" y="533" type="curve"/>
      <point x="417" y="739"/>
      <point x="337" y="936"/>
      <point x="266" y="936" type="curve" smooth="yes"/>
      <point x="238" y="936"/>
      <point x="139" y="889"/>
      <point x="27" y="840" type="curve"/>
      <point x="41" y="801" type="line"/>
      <point x="41" y="801"/>
      <point x="143" y="827"/>
      <point x="166" y="827" type="curve" smooth="yes"/>
      <point x="231" y="827"/>
      <point x="305" y="633"/>
      <point x="382" y="429" type="curve"/>
      <point x="263" y="286"/>
      <point x="93" y="101"/>
      <point x="-29" y="-6" type="curve"/>
      <point x="-6" y="-41" type="line"/>
      <point x="43" y="-27"/>
      <point x="111" y="-16"/>
      <point x="160" y="-10" type="curve"/>
      <point x="254" y="131"/>
      <point x="356" y="256"/>
      <point x="416" y="338" type="curve"/>
      <point x="492" y="141"/>
      <point x="572" y="-41"/>
      <point x="653" y="-41" type="curve" smooth="yes"/>
      <point x="705" y="-41"/>
      <point x="762" y="-8"/>
    </contour>
    <contour>
      <point x="843" y="485" type="line"/>
      <point x="824" y="510" type="line"/>
      <point x="121" y="510" type="line"/>
      <point x="109" y="489"/>
      <point x="99" y="463"/>
      <point x="90" y="442" type="curve"/>
      <point x="109" y="420" type="line"/>
      <point x="812" y="420" type="line"/>
    </contour>
    <contour>
      <point x="526" y="1000" type="move" name="U"/>
    </contour>
    <contour>
      <point x="375" y="-100" type="move" name="L"/>
    </contour>
  </outline>
</glyph>
<glyph name="CyCapKomiTje" format="1">
  <advance width="1221"/>
  <unicode hex="050E"/>
  <outline>
    <contour>
      <point x="1105" y="1235" type="curve"/>
      <point x="1081" y="1260" type="line"/>
      <point x="624" y="1260" type="line"/>
      <point x="586" y="1170" type="line"/>
      <point x="927" y="1170" type="line" smooth="yes"/>
      <point x="981" y="1170"/>
      <point x="995" y="1075"/>
      <point x="991" y="950" type="curve"/>
      <point x="1031" y="950" type="line"/>
      <point x="1057" y="1034"/>
      <point x="1094" y="1167"/>
    </contour>
    <contour>
      <point x="748" y="1170" type="line"/>
      <point x="735" y="1260" type="line"/>
      <point x="171" y="1260" type="line"/>
      <point x="149" y="1190"/>
      <point x="112" y="1042"/>
      <point x="96" y="964" type="curve"/>
      <point x="132" y="945" type="line"/>
      <point x="207" y="1101"/>
      <point x="256" y="1170"/>
      <point x="293" y="1170" type="curve" smooth="yes"/>
    </contour>
    <contour>
      <point x="689" y="-30" type="curve" smooth="yes"/>
      <point x="880" y="-30"/>
      <point x="1022" y="130"/>
      <point x="1060" y="404" type="curve" smooth="yes"/>
      <point x="1087" y="600" type="line" smooth="yes"/>
      <point x="1089" y="619"/>
      <point x="1142" y="643"/>
      <point x="1225" y="662" type="curve"/>
      <point x="1231" y="705" type="line"/>
      <point x="826" y="705" type="line"/>
      <point x="820" y="662" type="line"/>
      <point x="905" y="643"/>
      <point x="945" y="616"/>
      <point x="943" y="600" type="curve" smooth="yes"/>
      <point x="906" y="334" type="line" smooth="yes"/>
      <point x="879" y="135"/>
      <point x="802" y="86"/>
      <point x="719" y="85" type="curve" smooth="yes"/>
      <point x="631" y="84"/>
      <point x="546" y="138"/>
      <point x="583" y="404" type="curve" smooth="yes"/>
      <point x="690" y="1185" type="line" smooth="yes"/>
      <point x="692" y="1204"/>
      <point x="741" y="1198"/>
      <point x="824" y="1217" type="curve"/>
      <point x="830" y="1260" type="line"/>
      <point x="425" y="1260" type="line"/>
      <point x="419" y="1217" type="line"/>
      <point x="504" y="1198"/>
      <point x="548" y="1201"/>
      <point x="546" y="1185" type="curve" smooth="yes"/>
      <point x="432" y="354" type="line" smooth="yes"/>
      <point x="395" y="84"/>
      <point x="495" y="-30"/>
    </contour>
    <contour>
      <point x="649" y="1320" type="move" name="U"/>
    </contour>
    <contour>
      <point x="460" y="-100" type="move" name="L"/>
    </contour>
  </outline>
</glyph>
<glyph name="CyCapRevZe" format="1">
  <advance width="903"/>
  <unicode hex="0510"/>
  <outline>
    <contour>
      <point x="755" y="88" type="curve"/>
      <point x="771" y="97"/>
      <point x="793" y="222"/>
      <point x="787" y="324" type="curve"/>
      <point x="787" y="324"/>
      <point x="748" y="319"/>
      <point x="749" y="319" type="curve"/>
      <point x="685" y="152"/>
      <point x="598" y="90"/>
      <point x="477" y="90" type="curve" smooth="yes"/>
      <point x="327" y="90"/>
      <point x="199" y="193"/>
      <point x="221" y="356" type="curve" smooth="yes"/>
      <point x="247" y="541"/>
      <point x="400" y="630"/>
      <point x="522" y="630" type="curve" smooth="yes"/>
      <point x="594" y="630"/>
      <point x="644" y="617"/>
      <point x="678" y="602" type="curve"/>
      <point x="729" y="727" type="line"/>
      <point x="713" y="754" type="line"/>
      <point x="666" y="725"/>
      <point x="594" y="720"/>
      <point x="570" y="720" type="curve" smooth="yes"/>
      <point x="379" y="723"/>
      <point x="330" y="873"/>
      <point x="342" y="962" type="curve" smooth="yes"/>
      <point x="361" y="1097"/>
      <point x="459" y="1190"/>
      <point x="587" y="1190" type="curve" smooth="yes"/>
      <point x="748" y="1190"/>
      <point x="824" y="1109"/>
      <point x="817" y="961" type="curve"/>
      <point x="856" y="953" type="line"/>
      <point x="886" y="1010"/>
      <point x="919" y="1202"/>
      <point x="909" y="1209" type="curve" smooth="yes"/>
      <point x="851" y="1252"/>
      <point x="761" y="1290"/>
      <point x="656" y="1290" type="curve" smooth="yes"/>
      <point x="448" y="1290"/>
      <point x="235" y="1128"/>
      <point x="207" y="921" type="curve" smooth="yes"/>
      <point x="187" y="781"/>
      <point x="244" y="705"/>
      <point x="351" y="665" type="curve"/>
      <point x="230" y="623"/>
      <point x="101" y="494"/>
      <point x="77" y="314" type="curve" smooth="yes"/>
      <point x="47" y="98"/>
      <point x="203" y="-30"/>
      <point x="396" y="-30" type="curve" smooth="yes"/>
      <point x="535" y="-30"/>
      <point x="665" y="21"/>
    </contour>
    <contour>
      <point x="614" y="1320" type="move" name="U"/>
    </contour>
    <contour>
      <point x="416" y="-100" type="move" name="L"/>
    </contour>
  </outline>
</glyph>
<glyph name="CyCapQa" format="1">
  <advance width="1135"/>
  <unicode hex="051A"/>
  <outline>
    <component base="LtnCapQ"/>
    <contour>
      <point x="681" y="1320" type="move" name="U"/>
    </contour>
    <contour>
      <point x="462" y="-260" type="move" name="L"/>
    </contour>
  </outline>
</glyph>
<glyph name="CySmQa" format="1">
  <advance width="918"/>
  <unicode hex="051B"/>
  <outline>
    <component base="LtnSmQ"/>
    <contour>
      <point x="952" y="870" type="move" name="R"/>
    </contour>
    <contour>
      <point x="525" y="1000" type="move" name="U"/>
    </contour>
    <contour>
      <point x="305" y="-600" type="move" name="L"/>
    </contour>
  </outline>
</glyph>
<glyph name="CySmEnMiddleHook" format="1">
  <advance width="1348"/>
  <unicode hex="0523"/>
  <outline>
    <contour>
      <point x="295" y="360" type="curve" smooth="yes"/>
      <point x="328" y="597"/>
      <point x="358" y="759"/>
      <point x="358" y="850" type="curve" smooth="yes"/>
      <point x="358" y="912"/>
      <point x="352" y="936"/>
      <point x="315" y="936" type="curve" smooth="yes"/>
      <point x="282" y="936"/>
      <point x="160" y="891"/>
      <point x="47" y="842" type="curve"/>
      <point x="61" y="803" type="line"/>
      <point x="61" y="803"/>
      <point x="145" y="829"/>
      <point x="168" y="829" type="curve" smooth="yes"/>
      <point x="192" y="829"/>
      <point x="205" y="823"/>
      <point x="205" y="762" type="curve" smooth="yes"/>
      <point x="205" y="668"/>
      <point x="147" y="256"/>
      <point x="92" y="-10" type="curve"/>
      <point x="125" y="-41" type="line"/>
      <point x="158" y="-23"/>
      <point x="233" y="6"/>
      <point x="268" y="25" type="curve"/>
      <point x="268" y="105"/>
      <point x="278" y="241"/>
    </contour>
    <contour>
      <point x="874" y="936" type="line"/>
      <point x="841" y="918"/>
      <point x="766" y="889"/>
      <point x="731" y="870" type="curve"/>
      <point x="731" y="602"/>
      <point x="662" y="233"/>
      <point x="610" y="-10" type="curve"/>
      <point x="643" y="-41" type="line"/>
      <point x="676" y="-23"/>
      <point x="751" y="6"/>
      <point x="786" y="25" type="curve"/>
      <point x="784" y="104"/>
      <point x="809" y="332"/>
      <point x="828" y="451" type="curve" smooth="yes"/>
      <point x="852" y="598"/>
      <point x="886" y="796"/>
      <point x="907" y="905" type="curve"/>
    </contour>
    <contour>
      <point x="768" y="504" type="line"/>
      <point x="749" y="529" type="line"/>
      <point x="555" y="499"/>
      <point x="441" y="501"/>
      <point x="265" y="511" type="curve"/>
      <point x="253" y="490"/>
      <point x="243" y="444"/>
      <point x="234" y="423" type="curve"/>
      <point x="253" y="401" type="line"/>
      <point x="452" y="431"/>
      <point x="565" y="429"/>
      <point x="737" y="419" type="curve"/>
    </contour>
    <contour>
      <point x="1261" y="80" type="curve" smooth="yes"/>
      <point x="1322" y="388"/>
      <point x="1236" y="540"/>
      <point x="1002" y="540" type="curve" smooth="yes"/>
      <point x="954" y="540"/>
      <point x="846" y="518"/>
      <point x="784" y="471" type="curve"/>
      <point x="780" y="396" type="line"/>
      <point x="838" y="440"/>
      <point x="921" y="460"/>
      <point x="965" y="460" type="curve" smooth="yes"/>
      <point x="1109" y="460"/>
      <point x="1166" y="300"/>
      <point x="1111" y="40" type="curve" smooth="yes"/>
      <point x="1060" y="-201"/>
      <point x="903" y="-371"/>
      <point x="675" y="-439" type="curve"/>
      <point x="681" y="-462"/>
      <point x="692" y="-482"/>
      <point x="704" y="-500" type="curve"/>
      <point x="1013" y="-400"/>
      <point x="1200" y="-230"/>
    </contour>
    <contour>
      <point x="584" y="1000" type="move" name="U"/>
    </contour>
    <contour>
      <point x="433" y="-100" type="move" name="L"/>
    </contour>
  </outline>
</glyph>
<glyph name="CyCapDeCheLig" format="1">
  <advance width="1142"/>
  <unicode hex="052C"/>
  <outline>
    <contour>
      <point x="936" y="1190" type="curve"/>
      <point x="931" y="1194"/>
      <point x="907" y="1170"/>
      <point x="907" y="1170" type="curve"/>
      <point x="759" y="90" type="line"/>
      <point x="273" y="90" type="line"/>
      <point x="519" y="423"/>
      <point x="720" y="720"/>
    </contour>
    <contour>
      <point x="852" y="0" type="line"/>
      <point x="898" y="0"/>
      <point x="895" y="-175"/>
      <point x="864" y="-380" type="curve"/>
      <point x="909" y="-380" type="line"/>
      <point x="957" y="-261"/>
      <point x="1023" y="-62"/>
      <point x="1047" y="65" type="curve"/>
      <point x="1023" y="90" type="line"/>
      <point x="903" y="90" type="line"/>
      <point x="1049" y="1155" type="line" smooth="yes"/>
      <point x="1051" y="1174"/>
      <point x="1104" y="1198"/>
      <point x="1188" y="1217" type="curve"/>
      <point x="1194" y="1260" type="line"/>
      <point x="744" y="1260" type="line"/>
      <point x="738" y="1217" type="line"/>
      <point x="798" y="1203"/>
      <point x="820" y="1194"/>
      <point x="836" y="1175" type="curve"/>
      <point x="643" y="765"/>
      <point x="421" y="429"/>
      <point x="136" y="90" type="curve"/>
      <point x="123" y="90"/>
      <point x="31" y="90"/>
      <point x="17" y="90" type="curve"/>
      <point x="-35" y="-50"/>
      <point x="-76" y="-267"/>
      <point x="-92" y="-380" type="curve"/>
      <point x="-47" y="-380" type="line"/>
      <point x="56" y="-82"/>
      <point x="132" y="-9"/>
      <point x="170" y="0" type="curve"/>
    </contour>
    <contour>
      <point x="190" y="1260" type="line"/>
      <point x="184" y="1217" type="line"/>
      <point x="268" y="1199"/>
      <point x="308" y="1172"/>
      <point x="306" y="1156" type="curve" smooth="yes"/>
      <point x="257" y="800" type="line"/>
      <point x="230" y="587"/>
      <point x="421" y="535"/>
      <point x="546" y="535" type="curve" smooth="yes"/>
      <point x="680" y="535"/>
      <point x="803" y="565"/>
      <point x="897" y="601" type="curve"/>
      <point x="908" y="681" type="line"/>
      <point x="807" y="646"/>
      <point x="715" y="629"/>
      <point x="619" y="629" type="curve" smooth="yes"/>
      <point x="513" y="629"/>
      <point x="387" y="676"/>
      <point x="412" y="877" type="curve"/>
      <point x="450" y="1156" type="line" smooth="yes"/>
      <point x="452" y="1174"/>
      <point x="497" y="1199"/>
      <point x="580" y="1217" type="curve"/>
      <point x="586" y="1260" type="line"/>
    </contour>
    <contour>
      <point x="682" y="1320" type="move" name="U"/>
    </contour>
    <contour>
      <point x="466" y="-100" type="move" name="L"/>
    </contour>
  </outline>
</glyph>
<glyph name="LtnSmTrndAe" format="1">
  <advance width="1347"/>
  <unicode hex="1D02"/>
  <outline>
    <contour>
      <point x="50" y="134" type="curve" smooth="yes"/>
      <point x="50" y="48"/>
      <point x="103" y="-42"/>
      <point x="218" y="-42" type="curve" smooth="yes"/>
      <point x="308" y="-42"/>
      <point x="409" y="-5"/>
      <point x="479" y="48" type="curve" smooth="yes"/>
      <point x="655" y="185"/>
      <point x="736" y="382"/>
      <point x="736" y="591" type="curve" smooth="yes"/>
      <point x="736" y="843"/>
      <point x="583" y="935"/>
      <point x="495" y="935" type="curve" smooth="yes"/>
      <point x="398" y="935"/>
      <point x="294" y="904"/>
      <point x="73" y="714" type="curve"/>
      <point x="79" y="704"/>
      <point x="89" y="681"/>
      <point x="103" y="673" type="curve"/>
      <point x="265" y="802"/>
      <point x="366" y="818"/>
      <point x="423" y="818" type="curve" smooth="yes"/>
      <point x="501" y="818"/>
      <point x="595" y="691"/>
      <point x="595" y="517" type="curve" smooth="yes"/>
      <point x="595" y="370"/>
      <point x="534" y="219"/>
      <point x="454" y="135" type="curve" smooth="yes"/>
      <point x="404" y="83"/>
      <point x="338" y="62"/>
      <point x="302" y="62" type="curve" smooth="yes"/>
      <point x="257" y="62"/>
      <point x="210" y="95"/>
      <point x="210" y="179" type="curve" smooth="yes"/>
      <point x="210" y="278"/>
      <point x="250" y="394"/>
      <point x="657" y="544" type="curve"/>
      <point x="682" y="573"/>
      <point x="651" y="615"/>
      <point x="651" y="615" type="curve"/>
      <point x="112" y="427"/>
      <point x="50" y="251"/>
    </contour>
    <contour>
      <point x="458" y="-7" type="curve"/>
      <point x="478" y="-42" type="line"/>
      <point x="566" y="1"/>
      <point x="658" y="73"/>
      <point x="671" y="134" type="curve"/>
      <point x="685" y="212"/>
      <point x="745" y="613"/>
      <point x="745" y="613" type="curve"/>
      <point x="745" y="613"/>
      <point x="572" y="325"/>
      <point x="534" y="134" type="curve"/>
      <point x="513" y="44"/>
      <point x="503" y="30"/>
    </contour>
    <contour>
      <point x="509" y="52" type="curve"/>
      <point x="556" y="46"/>
      <point x="638" y="-42"/>
      <point x="728" y="-42" type="curve" smooth="yes"/>
      <point x="810" y="-42"/>
      <point x="910" y="3"/>
      <point x="982" y="52" type="curve" smooth="yes"/>
      <point x="1173" y="181"/>
      <point x="1267" y="378"/>
      <point x="1267" y="589" type="curve" smooth="yes"/>
      <point x="1267" y="839"/>
      <point x="1148" y="935"/>
      <point x="1058" y="935" type="curve" smooth="yes"/>
      <point x="947" y="935"/>
      <point x="796" y="736"/>
      <point x="730" y="615" type="curve"/>
      <point x="714" y="437" type="line"/>
      <point x="790" y="597"/>
      <point x="927" y="798"/>
      <point x="994" y="798" type="curve" smooth="yes"/>
      <point x="1072" y="798"/>
      <point x="1130" y="687"/>
      <point x="1130" y="515" type="curve" smooth="yes"/>
      <point x="1130" y="357"/>
      <point x="1013" y="63"/>
      <point x="831" y="63" type="curve" smooth="yes"/>
      <point x="720" y="63"/>
      <point x="640" y="173"/>
      <point x="603" y="173" type="curve" smooth="yes"/>
      <point x="570" y="173"/>
      <point x="566" y="91"/>
    </contour>
    <contour>
      <point x="747" y="1000" type="move" name="U"/>
    </contour>
    <contour>
      <point x="592" y="-100" type="move" name="L"/>
    </contour>
  </outline>
</glyph>
<glyph name="ModCapG" format="1">
  <advance width="743"/>
  <unicode hex="1D33"/>
  <outline>
    <contour>
      <point x="781" y="957" type="line"/>
      <point x="458" y="957" type="line"/>
      <point x="453" y="921" type="line"/>
      <point x="594" y="903"/>
      <point x="594" y="889"/>
      <point x="591" y="872" type="curve" smooth="yes"/>
      <point x="565" y="709" type="line"/>
      <point x="532" y="688"/>
      <point x="491" y="677"/>
      <point x="443" y="677" type="curve" smooth="yes"/>
      <point x="338" y="677"/>
      <point x="214" y="756"/>
      <point x="214" y="918" type="curve" smooth="yes"/>
      <point x="214" y="1132"/>
      <point x="367" y="1301"/>
      <point x="493" y="1301" type="curve" smooth="yes"/>
      <point x="570" y="1301"/>
      <point x="631" y="1282"/>
      <point x="672" y="1234" type="curve"/>
      <point x="697" y="1229" type="line"/>
      <point x="722" y="1247"/>
      <point x="787" y="1312"/>
      <point x="775" y="1321" type="curve" smooth="yes"/>
      <point x="727" y="1359"/>
      <point x="647" y="1382"/>
      <point x="592" y="1382" type="curve" smooth="yes"/>
      <point x="481" y="1382"/>
      <point x="381" y="1349"/>
      <point x="303" y="1296" type="curve" smooth="yes"/>
      <point x="176" y="1210"/>
      <point x="90" y="1044"/>
      <point x="90" y="892" type="curve" smooth="yes"/>
      <point x="90" y="699"/>
      <point x="234" y="589"/>
      <point x="388" y="589" type="curve" smooth="yes"/>
      <point x="464" y="589"/>
      <point x="532" y="603"/>
      <point x="673" y="700" type="curve"/>
      <point x="701" y="872" type="line" smooth="yes"/>
      <point x="704" y="890"/>
      <point x="725" y="909"/>
      <point x="776" y="921" type="curve"/>
    </contour>
    <contour>
      <point x="538" y="1422" type="move" name="U"/>
    </contour>
    <contour>
      <point x="405" y="540" type="move" name="L"/>
    </contour>
  </outline>
</glyph>
<glyph name="CombMacron_Acute" format="1">
  <advance width="0"/>
  <unicode hex="1DC4"/>
  <outline>
    <contour>
      <point x="-290" y="1189" type="line"/>
      <point x="-276" y="1150" type="line"/>
      <point x="-250" y="1141"/>
      <point x="-186" y="1130"/>
      <point x="-159" y="1128" type="curve"/>
      <point x="52" y="1476" type="line"/>
      <point x="40" y="1488"/>
      <point x="26" y="1500"/>
      <point x="6" y="1504" type="curve"/>
    </contour>
    <contour>
      <point x="-110" y="1232" type="curve"/>
      <point x="-126" y="1256" type="line"/>
      <point x="-555" y="1256" type="line"/>
      <point x="-570" y="1230"/>
      <point x="-596" y="1181"/>
      <point x="-606" y="1152" type="curve"/>
      <point x="-589" y="1128" type="line"/>
      <point x="-159" y="1128" type="line"/>
      <point x="-147" y="1152"/>
      <point x="-119" y="1204"/>
    </contour>
    <contour>
      <point x="-354" y="1000" type="move" name="_U"/>
    </contour>
  </outline>
</glyph>
<glyph name="CombAcute_Macron" format="1">
  <advance width="0"/>
  <unicode hex="1DC7"/>
  <outline>
    <contour>
      <point x="-304" y="1316" type="line"/>
      <point x="-320" y="1355" type="line"/>
      <point x="-346" y="1364"/>
      <point x="-409" y="1376"/>
      <point x="-436" y="1378" type="curve"/>
      <point x="-648" y="1029" type="line"/>
      <point x="-636" y="1017"/>
      <point x="-622" y="1005"/>
      <point x="-601" y="1001" type="curve"/>
    </contour>
    <contour>
      <point x="7" y="1354" type="curve"/>
      <point x="-9" y="1378" type="line"/>
      <point x="-436" y="1378" type="line"/>
      <point x="-451" y="1352"/>
      <point x="-477" y="1303"/>
      <point x="-486" y="1274" type="curve"/>
      <point x="-471" y="1250" type="line"/>
      <point x="-42" y="1250" type="line"/>
      <point x="-29" y="1274"/>
      <point x="-2" y="1325"/>
    </contour>
    <contour>
      <point x="-354" y="1000" type="move" name="_U"/>
    </contour>
  </outline>
</glyph>
<glyph name="CombLftArrwhdAbv" format="1">
  <advance width="0"/>
  <unicode hex="1DFE"/>
  <outline>
    <contour>
      <point x="4" y="1500" type="curve"/>
      <point x="-11" y="1520" type="line"/>
      <point x="-551" y="1307" type="line"/>
      <point x="-562" y="1286"/>
      <point x="-576" y="1250"/>
      <point x="-584" y="1229" type="curve"/>
      <point x="-569" y="1210" type="line"/>
      <point x="-27" y="1422" type="line"/>
      <point x="-19" y="1441"/>
      <point x="-4" y="1478"/>
    </contour>
    <contour>
      <point x="-58" y="1065" type="curve"/>
      <point x="-64" y="1094" type="line"/>
      <point x="-551" y="1307" type="line"/>
      <point x="-562" y="1286"/>
      <point x="-576" y="1250"/>
      <point x="-584" y="1229" type="curve"/>
      <point x="-569" y="1210" type="line"/>
      <point x="-124" y="1013" type="line"/>
      <point x="-91" y="1032"/>
      <point x="-80" y="1043"/>
    </contour>
    <contour>
      <point x="-274" y="1422" type="move" name="U"/>
    </contour>
    <contour>
      <point x="-332" y="1000" type="move" name="_U"/>
    </contour>
  </outline>
</glyph>
<glyph name="LtnCapARingBlw" format="1">
  <advance width="1147"/>
  <unicode hex="1E00"/>
  <outline>
    <component base="LtnCapA"/>
    <component base="CombRingBlw" xOffset="1010"/>
    <contour>
      <point x="514" y="0" type="move" name="H"/>
    </contour>
    <contour>
      <point x="696" y="1320" type="move" name="U"/>
    </contour>
    <contour>
      <point x="424" y="-650" type="move" name="L"/>
    </contour>
    <contour>
      <point x="846" y="0" type="move" name="O"/>
    </contour>
  </outline>
</glyph>
<glyph name="LtnCapBDotBlw" format="1">
  <advance width="1014"/>
  <unicode hex="1E04"/>
  <outline>
    <component base="LtnCapB"/>
    <component base="CombDotBlw" xOffset="915"/>
    <contour>
      <point x="608" y="1320" type="move" name="U"/>
    </contour>
    <contour>
      <point x="344" y="-600" type="move" name="L"/>
    </contour>
  </outline>
</glyph>
<glyph name="LtnSmBDotBlw" format="1">
  <advance width="956"/>
  <unicode hex="1E05"/>
  <outline>
    <component base="LtnSmB"/>
    <component base="CombDotBlw" xOffset="932"/>
    <contour>
      <point x="440" y="0" type="move" name="H"/>
    </contour>
    <contour>
      <point x="968" y="870" type="move" name="R"/>
    </contour>
    <contour>
      <point x="690" y="1580" type="move" name="U"/>
    </contour>
    <contour>
      <point x="361" y="-600" type="move" name="L"/>
    </contour>
  </outline>
</glyph>
<glyph name="LtnSmCCedillaAcute" format="1">
  <advance width="795"/>
  <unicode hex="1E09"/>
  <outline>
    <component base="LtnSmC"/>
    <component base="CombAcute" xOffset="883"/>
    <component base="CombCedilla" xOffset="840"/>
    <contour>
      <point x="870" y="870" type="move" name="R"/>
    </contour>
    <contour>
      <point x="581" y="1370" type="move" name="U"/>
    </contour>
    <contour>
      <point x="271" y="-600" type="move" name="L"/>
    </contour>
  </outline>
</glyph>
<glyph name="LtnCapDDotAbv" format="1">
  <advance width="1118"/>
  <unicode hex="1E0A"/>
  <outline>
    <component base="LtnCapD"/>
    <component base="CombDotAbv.LP" xOffset="1015" yOffset="320"/>
    <contour>
      <point x="703" y="1640" type="move" name="U"/>
    </contour>
    <contour>
      <point x="464" y="-100" type="move" name="L"/>
    </contour>
  </outline>
</glyph>
<glyph name="LtnCapDDotBlw" format="1">
  <advance width="1118"/>
  <unicode hex="1E0C"/>
  <outline>
    <component base="LtnCapD"/>
    <component base="CombDotBlw" xOffset="966"/>
    <contour>
      <point x="659" y="1320" type="move" name="U"/>
    </contour>
    <contour>
      <point x="395" y="-600" type="move" name="L"/>
    </contour>
  </outline>
</glyph>
<glyph name="LtnCapDLineBlw" format="1">
  <advance width="1118"/>
  <unicode hex="1E0E"/>
  <outline>
    <component base="LtnCapD"/>
    <component base="CombMacronBlw" xOffset="968"/>
    <contour>
      <point x="659" y="1320" type="move" name="U"/>
    </contour>
    <contour>
      <point x="396" y="-600" type="move" name="L"/>
    </contour>
  </outline>
</glyph>
<glyph name="LtnSmDLineBlw" format="1">
  <advance width="969"/>
  <unicode hex="1E0F"/>
  <outline>
    <component base="LtnSmD"/>
    <component base="CombMacronBlw" xOffset="878"/>
    <contour>
      <point x="388" y="0" type="move" name="H"/>
    </contour>
    <contour>
      <point x="962" y="870" type="move" name="R"/>
    </contour>
    <contour>
      <point x="354" y="1000" type="move" name="U"/>
    </contour>
    <contour>
      <point x="306" y="-600" type="move" name="L"/>
    </contour>
  </outline>
</glyph>
<glyph name="LtnCapETildeBlw" format="1">
  <advance width="946"/>
  <unicode hex="1E1A"/>
  <outline>
    <component base="LtnCapE"/>
    <component base="CombTildeBlw" xOffset="903"/>
    <contour>
      <point x="411" y="0" type="move" name="H"/>
    </contour>
    <contour>
      <point x="972" y="1072" type="move" name="R"/>
    </contour>
    <contour>
      <point x="591" y="1320" type="move" name="U"/>
    </contour>
    <contour>
      <point x="328" y="-600" type="move" name="L"/>
    </contour>
    <contour>
      <point x="621" y="0" type="move" name="O"/>
    </contour>
  </outline>
</glyph>
<glyph name="LtnSmECedillaBreve" format="1">
  <advance width="805"/>
  <unicode hex="1E1D"/>
  <outline>
    <component base="LtnSmE"/>
    <component base="CombBreve" xOffset="864"/>
    <component base="CombCedilla" xOffset="845"/>
    <contour>
      <point x="884" y="870" type="move" name="R"/>
    </contour>
    <contour>
      <point x="554" y="1320" type="move" name="U"/>
    </contour>
    <contour>
      <point x="276" y="-600" type="move" name="L"/>
    </contour>
    <contour>
      <point x="408" y="0" type="move" name="O"/>
    </contour>
  </outline>
</glyph>
<glyph name="LtnSmHBreveBlw" format="1">
  <advance width="1012"/>
  <unicode hex="1E2B"/>
  <outline>
    <component base="LtnSmH"/>
    <component base="CombBreveBlw" xOffset="937"/>
    <contour>
      <point x="158" y="0" type="move" name="H"/>
    </contour>
    <contour>
      <point x="657" y="1580" type="move" name="U"/>
    </contour>
    <contour>
      <point x="355" y="-600" type="move" name="L"/>
    </contour>
  </outline>
</glyph>
<glyph name="LtnCapITildeBlw" format="1">
  <advance width="573"/>
  <unicode hex="1E2C"/>
  <outline>
    <component base="LtnCapI"/>
    <component base="CombTildeBlw" xOffset="717"/>
    <contour>
      <point x="225" y="0" type="move" name="H"/>
    </contour>
    <contour>
      <point x="568" y="1072" type="move" name="R"/>
    </contour>
    <contour>
      <point x="406" y="1320" type="move" name="U"/>
    </contour>
    <contour>
      <point x="142" y="-600" type="move" name="L"/>
    </contour>
    <contour>
      <point x="285" y="0" type="move" name="O"/>
    </contour>
  </outline>
</glyph>
<glyph name="LtnSmITildeBlw" format="1">
  <advance width="504"/>
  <unicode hex="1E2D"/>
  <outline>
    <component base="LtnSmI"/>
    <component base="CombTildeBlw" xOffset="712"/>
    <contour>
      <point x="210" y="0" type="move" name="H"/>
    </contour>
    <contour>
      <point x="504" y="870" type="move" name="R"/>
    </contour>
    <contour>
      <point x="357" y="1000" type="move" name="U"/>
    </contour>
    <contour>
      <point x="137" y="-600" type="move" name="L"/>
    </contour>
    <contour>
      <point x="275" y="0" type="move" name="O"/>
    </contour>
  </outline>
</glyph>
<glyph name="LtnSmKAcute" format="1">
  <advance width="899"/>
  <unicode hex="1E31"/>
  <outline>
    <component base="LtnSmK"/>
    <component base="CombAcute.LP" xOffset="970" yOffset="580"/>
    <contour>
      <point x="170" y="0" type="move" name="H"/>
    </contour>
    <contour>
      <point x="984" y="870" type="move" name="R"/>
    </contour>
    <contour>
      <point x="661" y="1900" type="move" name="U"/>
    </contour>
    <contour>
      <point x="383" y="-100" type="move" name="L"/>
    </contour>
  </outline>
</glyph>
<glyph name="LtnCapKDotBlw" format="1">
  <advance width="1102"/>
  <unicode hex="1E32"/>
  <outline>
    <component base="LtnCapK"/>
    <component base="CombDotBlw" xOffset="1018"/>
    <contour>
      <point x="200" y="0" type="move" name="H"/>
    </contour>
    <contour>
      <point x="711" y="1320" type="move" name="U"/>
    </contour>
    <contour>
      <point x="447" y="-600" type="move" name="L"/>
    </contour>
  </outline>
</glyph>
<glyph name="LtnSmKDotBlw" format="1">
  <advance width="899"/>
  <unicode hex="1E33"/>
  <outline>
    <component base="LtnSmK"/>
    <component base="CombDotBlw" xOffset="885"/>
    <contour>
      <point x="170" y="0" type="move" name="H"/>
    </contour>
    <contour>
      <point x="984" y="870" type="move" name="R"/>
    </contour>
    <contour>
      <point x="617" y="1580" type="move" name="U"/>
    </contour>
    <contour>
      <point x="314" y="-600" type="move" name="L"/>
    </contour>
  </outline>
</glyph>
<glyph name="LtnCapKLineBlw" format="1">
  <advance width="1102"/>
  <unicode hex="1E34"/>
  <outline>
    <component base="LtnCapK"/>
    <component base="CombMacronBlw" xOffset="1020"/>
    <contour>
      <point x="200" y="0" type="move" name="H"/>
    </contour>
    <contour>
      <point x="711" y="1320" type="move" name="U"/>
    </contour>
    <contour>
      <point x="448" y="-600" type="move" name="L"/>
    </contour>
  </outline>
</glyph>
<glyph name="LtnSmKLineBlw" format="1">
  <advance width="899"/>
  <unicode hex="1E35"/>
  <outline>
    <component base="LtnSmK"/>
    <component base="CombMacronBlw" xOffset="887"/>
    <contour>
      <point x="170" y="0" type="move" name="H"/>
    </contour>
    <contour>
      <point x="984" y="870" type="move" name="R"/>
    </contour>
    <contour>
      <point x="617" y="1580" type="move" name="U"/>
    </contour>
    <contour>
      <point x="315" y="-600" type="move" name="L"/>
    </contour>
  </outline>
</glyph>
<glyph name="LtnCapLDotBlw" format="1">
  <advance width="918"/>
  <unicode hex="1E36"/>
  <outline>
    <component base="LtnCapL"/>
    <component base="CombDotBlw" xOffset="895"/>
    <contour>
      <point x="415" y="0" type="move" name="H"/>
    </contour>
    <contour>
      <point x="750" y="870" type="move" name="R"/>
    </contour>
    <contour>
      <point x="557" y="1320" type="move" name="U"/>
    </contour>
    <contour>
      <point x="324" y="-600" type="move" name="L"/>
    </contour>
  </outline>
</glyph>
<glyph name="LtnCapLDotBlwMacron" format="1">
  <advance width="918"/>
  <unicode hex="1E38"/>
  <outline>
    <component base="LtnCapL"/>
    <component base="CombDotBlw" xOffset="895"/>
    <component base="CombMacron.LP" xOffset="922" yOffset="320"/>
    <contour>
      <point x="415" y="0" type="move" name="H"/>
    </contour>
    <contour>
      <point x="750" y="870" type="move" name="R"/>
    </contour>
    <contour>
      <point x="601" y="1640" type="move" name="U"/>
    </contour>
    <contour>
      <point x="324" y="-600" type="move" name="L"/>
    </contour>
  </outline>
</glyph>
<glyph name="LtnSmLDotBlwMacron" format="1">
  <advance width="481"/>
  <unicode hex="1E39"/>
  <outline>
    <component base="LtnSmL"/>
    <component base="CombDotBlw" xOffset="690"/>
    <component base="CombMacron.LP" xOffset="749" yOffset="640"/>
    <contour>
      <point x="180" y="0" type="move" name="H"/>
    </contour>
    <contour>
      <point x="484" y="870" type="move" name="R"/>
    </contour>
    <contour>
      <point x="428" y="1960" type="move" name="U"/>
    </contour>
    <contour>
      <point x="119" y="-600" type="move" name="L"/>
    </contour>
  </outline>
</glyph>
<glyph name="LtnCapLLineBlw" format="1">
  <advance width="918"/>
  <unicode hex="1E3A"/>
  <outline>
    <component base="LtnCapL"/>
    <component base="CombMacronBlw" xOffset="897"/>
    <contour>
      <point x="415" y="0" type="move" name="H"/>
    </contour>
    <contour>
      <point x="750" y="870" type="move" name="R"/>
    </contour>
    <contour>
      <point x="557" y="1320" type="move" name="U"/>
    </contour>
    <contour>
      <point x="325" y="-600" type="move" name="L"/>
    </contour>
  </outline>
</glyph>
<glyph name="LtnSmLLineBlw" format="1">
  <advance width="481"/>
  <unicode hex="1E3B"/>
  <outline>
    <component base="LtnSmL"/>
    <component base="CombMacronBlw.Short" xOffset="492"/>
    <contour>
      <point x="180" y="0" type="move" name="H"/>
    </contour>
    <contour>
      <point x="484" y="870" type="move" name="R"/>
    </contour>
    <contour>
      <point x="384" y="1640" type="move" name="U"/>
    </contour>
    <contour>
      <point x="120" y="-600" type="move" name="L"/>
    </contour>
  </outline>
</glyph>
<glyph name="LtnSmMAcute" format="1">
  <advance width="1477"/>
  <unicode hex="1E3F"/>
  <outline>
    <component base="LtnSmM"/>
    <component base="CombAcute" xOffset="1166"/>
    <contour>
      <point x="1172" y="0" type="move" name="H"/>
    </contour>
    <contour>
      <point x="864" y="1370" type="move" name="U"/>
    </contour>
    <contour>
      <point x="662" y="-100" type="move" name="L"/>
    </contour>
  </outline>
</glyph>
<glyph name="LtnCapMDotAbv" format="1">
  <advance width="1511"/>
  <unicode hex="1E40"/>
  <outline>
    <component base="LtnCapM"/>
    <component base="CombDotAbv.LP" xOffset="1239" yOffset="320"/>
    <contour>
      <point x="1195" y="0" type="move" name="H"/>
    </contour>
    <contour>
      <point x="927" y="1640" type="move" name="U"/>
    </contour>
    <contour>
      <point x="688" y="-100" type="move" name="L"/>
    </contour>
  </outline>
</glyph>
<glyph name="LtnSmMDotAbv" format="1">
  <advance width="1477"/>
  <unicode hex="1E41"/>
  <outline>
    <component base="LtnSmM"/>
    <component base="CombDotAbv" xOffset="1169"/>
    <contour>
      <point x="1172" y="0" type="move" name="H"/>
    </contour>
    <contour>
      <point x="862" y="1353" type="move" name="U"/>
    </contour>
    <contour>
      <point x="662" y="-100" type="move" name="L"/>
    </contour>
  </outline>
</glyph>
<glyph name="LtnCapOMacronGrave" format="1">
  <advance width="1116"/>
  <unicode hex="1E50"/>
  <outline>
    <component base="LtnCapO"/>
    <component base="CombMacron.LP" xOffset="1065" yOffset="320"/>
    <component base="CombGrave.LP" xOffset="1019" yOffset="640"/>
    <contour>
      <point x="500" y="0" type="move" name="H"/>
    </contour>
    <contour>
      <point x="1202" y="1072" type="move" name="R"/>
    </contour>
    <contour>
      <point x="787" y="1960" type="move" name="U"/>
    </contour>
    <contour>
      <point x="505" y="-100" type="move" name="L"/>
    </contour>
    <contour>
      <point x="560" y="0" type="move" name="O"/>
    </contour>
  </outline>
</glyph>
<glyph name="LtnSmOMacronGrave" format="1">
  <advance width="864"/>
  <unicode hex="1E51"/>
  <outline>
    <component base="LtnSmO"/>
    <component base="CombMacron" xOffset="870"/>
    <component base="CombGrave" xOffset="832" yOffset="370"/>
    <contour>
      <point x="374" y="0" type="move" name="H"/>
    </contour>
    <contour>
      <point x="920" y="870" type="move" name="R"/>
    </contour>
    <contour>
      <point x="607" y="1740" type="move" name="U"/>
    </contour>
    <contour>
      <point x="354" y="-100" type="move" name="L"/>
    </contour>
    <contour>
      <point x="429" y="0" type="move" name="O"/>
    </contour>
  </outline>
</glyph>
<glyph name="LtnCapOMacronAcute" format="1">
  <advance width="1116"/>
  <unicode hex="1E52"/>
  <outline>
    <component base="LtnCapO"/>
    <component base="CombMacron.LP" xOffset="1065" yOffset="320"/>
    <component base="CombAcute.LP" xOffset="1097" yOffset="640"/>
    <contour>
      <point x="500" y="0" type="move" name="H"/>
    </contour>
    <contour>
      <point x="1202" y="1072" type="move" name="R"/>
    </contour>
    <contour>
      <point x="788" y="1960" type="move" name="U"/>
    </contour>
    <contour>
      <point x="505" y="-100" type="move" name="L"/>
    </contour>
    <contour>
      <point x="560" y="0" type="move" name="O"/>
    </contour>
  </outline>
</glyph>
<glyph name="LtnCapPDotAbv" format="1">
  <advance width="965"/>
  <unicode hex="1E56"/>
  <outline>
    <component base="LtnCapP"/>
    <component base="CombDotAbv.LP" xOffset="948" yOffset="320"/>
    <contour>
      <point x="636" y="1640" type="move" name="U"/>
    </contour>
    <contour>
      <point x="397" y="-100" type="move" name="L"/>
    </contour>
  </outline>
</glyph>
<glyph name="LtnSmPDotAbv" format="1">
  <advance width="965"/>
  <unicode hex="1E57"/>
  <outline>
    <component base="LtnSmP"/>
    <component base="CombDotAbv" xOffset="918"/>
    <contour>
      <point x="87" y="-448" type="move" name="H"/>
    </contour>
    <contour>
      <point x="1012" y="870" type="move" name="R"/>
    </contour>
    <contour>
      <point x="611" y="1353" type="move" name="U"/>
    </contour>
    <contour>
      <point x="343" y="-600" type="move" name="L"/>
    </contour>
  </outline>
</glyph>
<glyph name="LtnCapRDotAbv" format="1">
  <advance width="1077"/>
  <unicode hex="1E58"/>
  <outline>
    <component base="LtnCapR"/>
    <component base="CombDotAbv.LP" xOffset="974" yOffset="320"/>
    <contour>
      <point x="200" y="0" type="move" name="H"/>
    </contour>
    <contour>
      <point x="662" y="1640" type="move" name="U"/>
    </contour>
    <contour>
      <point x="423" y="-100" type="move" name="L"/>
    </contour>
  </outline>
</glyph>
<glyph name="LtnCapRDotBlw" format="1">
  <advance width="1077"/>
  <unicode hex="1E5A"/>
  <outline>
    <component base="LtnCapR"/>
    <component base="CombDotBlw" xOffset="925"/>
    <contour>
      <point x="200" y="0" type="move" name="H"/>
    </contour>
    <contour>
      <point x="618" y="1320" type="move" name="U"/>
    </contour>
    <contour>
      <point x="354" y="-600" type="move" name="L"/>
    </contour>
  </outline>
</glyph>
<glyph name="LtnSmRDotBlw" format="1">
  <advance width="727"/>
  <unicode hex="1E5B"/>
  <outline>
    <component base="LtnSmR"/>
    <component base="CombDotBlw" xOffset="666"/>
    <contour>
      <point x="175" y="0" type="move" name="H"/>
    </contour>
    <contour>
      <point x="460" y="1000" type="move" name="U"/>
    </contour>
    <contour>
      <point x="95" y="-600" type="move" name="L"/>
    </contour>
  </outline>
</glyph>
<glyph name="LtnSmRDotBlwMacron" format="1">
  <advance width="727"/>
  <unicode hex="1E5D"/>
  <outline>
    <component base="LtnSmR"/>
    <component base="CombDotBlw" xOffset="666"/>
    <component base="CombMacron" xOffset="825"/>
    <contour>
      <point x="175" y="0" type="move" name="H"/>
    </contour>
    <contour>
      <point x="512" y="1370" type="move" name="U"/>
    </contour>
    <contour>
      <point x="95" y="-600" type="move" name="L"/>
    </contour>
  </outline>
</glyph>
<glyph name="LtnCapRLineBlw" format="1">
  <advance width="1077"/>
  <unicode hex="1E5E"/>
  <outline>
    <component base="LtnCapR"/>
    <component base="CombMacronBlw" xOffset="927"/>
    <contour>
      <point x="200" y="0" type="move" name="H"/>
    </contour>
    <contour>
      <point x="618" y="1320" type="move" name="U"/>
    </contour>
    <contour>
      <point x="355" y="-600" type="move" name="L"/>
    </contour>
  </outline>
</glyph>
<glyph name="LtnSmRLineBlw" format="1">
  <advance width="727"/>
  <unicode hex="1E5F"/>
  <outline>
    <component base="LtnSmR"/>
    <component base="CombMacronBlw.Short" xOffset="468"/>
    <contour>
      <point x="175" y="0" type="move" name="H"/>
    </contour>
    <contour>
      <point x="460" y="1000" type="move" name="U"/>
    </contour>
    <contour>
      <point x="96" y="-600" type="move" name="L"/>
    </contour>
  </outline>
</glyph>
<glyph name="LtnSmSDotBlwDotAbv" format="1">
  <advance width="711"/>
  <unicode hex="1E69"/>
  <outline>
    <component base="LtnSmS"/>
    <component base="CombDotBlw" xOffset="788"/>
    <component base="CombDotAbv" xOffset="793"/>
    <contour>
      <point x="290" y="0" type="move" name="H"/>
    </contour>
    <contour>
      <point x="486" y="1353" type="move" name="U"/>
    </contour>
    <contour>
      <point x="217" y="-600" type="move" name="L"/>
    </contour>
  </outline>
</glyph>
<glyph name="LtnCapTDotAbv" format="1">
  <advance width="1067"/>
  <unicode hex="1E6A"/>
  <outline>
    <component base="LtnCapT"/>
    <component base="CombDotAbv.LP" xOffset="997" yOffset="320"/>
    <contour>
      <point x="461" y="0" type="move" name="H"/>
    </contour>
    <contour>
      <point x="685" y="1640" type="move" name="U"/>
    </contour>
    <contour>
      <point x="447" y="-100" type="move" name="L"/>
    </contour>
  </outline>
</glyph>
<glyph name="LtnSmTDotAbv" format="1">
  <advance width="629"/>
  <unicode hex="1E6B"/>
  <outline>
    <component base="LtnSmT"/>
    <component base="CombDotAbv" xOffset="780" yOffset="230"/>
    <contour>
      <point x="253" y="0" type="move" name="H"/>
    </contour>
    <contour>
      <point x="529" y="870" type="move" name="R"/>
    </contour>
    <contour>
      <point x="473" y="1583" type="move" name="U"/>
    </contour>
    <contour>
      <point x="239" y="-100" type="move" name="L"/>
    </contour>
  </outline>
</glyph>
<glyph name="LtnSmTLineBlw" format="1">
  <advance width="629"/>
  <unicode hex="1E6F"/>
  <outline>
    <component base="LtnSmT"/>
    <component base="CombMacronBlw.Short" xOffset="543"/>
    <contour>
      <point x="253" y="0" type="move" name="H"/>
    </contour>
    <contour>
      <point x="529" y="870" type="move" name="R"/>
    </contour>
    <contour>
      <point x="424" y="1230" type="move" name="U"/>
    </contour>
    <contour>
      <point x="171" y="-600" type="move" name="L"/>
    </contour>
  </outline>
</glyph>
<glyph name="LtnCapTCircumBlw" format="1">
  <advance width="1067"/>
  <unicode hex="1E70"/>
  <outline>
    <component base="LtnCapT"/>
    <component base="CombCircumBlw" xOffset="953"/>
    <contour>
      <point x="461" y="0" type="move" name="H"/>
    </contour>
    <contour>
      <point x="641" y="1320" type="move" name="U"/>
    </contour>
    <contour>
      <point x="379" y="-600" type="move" name="L"/>
    </contour>
  </outline>
</glyph>
<glyph name="LtnCapUTildeBlw" format="1">
  <advance width="1227"/>
  <unicode hex="1E74"/>
  <outline>
    <component base="LtnCapU"/>
    <component base="CombTildeBlw" xOffset="1069"/>
    <contour>
      <point x="580" y="0" type="move" name="H"/>
    </contour>
    <contour>
      <point x="1256" y="1072" type="move" name="R"/>
    </contour>
    <contour>
      <point x="757" y="1320" type="move" name="U"/>
    </contour>
    <contour>
      <point x="494" y="-600" type="move" name="L"/>
    </contour>
    <contour>
      <point x="661" y="0" type="move" name="O"/>
    </contour>
  </outline>
</glyph>
<glyph name="LtnCapUTildeAcute" format="1">
  <advance width="1227"/>
  <unicode hex="1E78"/>
  <outline>
    <component base="LtnCapU"/>
    <component base="CombTilde.LP" xOffset="1112" yOffset="320"/>
    <component base="CombAcute.LP" xOffset="1154" yOffset="640"/>
    <contour>
      <point x="580" y="0" type="move" name="H"/>
    </contour>
    <contour>
      <point x="1256" y="1072" type="move" name="R"/>
    </contour>
    <contour>
      <point x="845" y="1960" type="move" name="U"/>
    </contour>
    <contour>
      <point x="563" y="-100" type="move" name="L"/>
    </contour>
    <contour>
      <point x="661" y="0" type="move" name="O"/>
    </contour>
  </outline>
</glyph>
<glyph name="LtnSmUTildeAcute" format="1">
  <advance width="1022"/>
  <unicode hex="1E79"/>
  <outline>
    <component base="LtnSmU"/>
    <component base="CombTilde" xOffset="936"/>
    <component base="CombAcute" xOffset="983" yOffset="353"/>
    <contour>
      <point x="408" y="0" type="move" name="H"/>
    </contour>
    <contour>
      <point x="1000" y="870" type="move" name="R"/>
    </contour>
    <contour>
      <point x="681" y="1723" type="move" name="U"/>
    </contour>
    <contour>
      <point x="430" y="-100" type="move" name="L"/>
    </contour>
    <contour>
      <point x="797" y="0" type="move" name="O"/>
    </contour>
  </outline>
</glyph>
<glyph name="LtnSmVTilde" format="1">
  <advance width="913"/>
  <unicode hex="1E7D"/>
  <outline>
    <component base="LtnSmV"/>
    <component base="CombTilde" xOffset="881"/>
    <contour>
      <point x="400" y="0" type="move" name="H"/>
    </contour>
    <contour>
      <point x="575" y="1353" type="move" name="U"/>
    </contour>
    <contour>
      <point x="375" y="-100" type="move" name="L"/>
    </contour>
    <contour>
      <point x="382" y="0" type="move" name="O"/>
    </contour>
  </outline>
</glyph>
<glyph name="LtnCapVDotBlw" format="1">
  <advance width="1214"/>
  <unicode hex="1E7E"/>
  <outline>
    <component base="LtnCapV"/>
    <component base="CombDotBlw" xOffset="1040"/>
    <contour>
      <point x="557" y="0" type="move" name="H"/>
    </contour>
    <contour>
      <point x="733" y="1320" type="move" name="U"/>
    </contour>
    <contour>
      <point x="469" y="-600" type="move" name="L"/>
    </contour>
    <contour>
      <point x="522" y="0" type="move" name="O"/>
    </contour>
  </outline>
</glyph>
<glyph name="LtnCapWGrave" format="1">
  <advance width="1571"/>
  <unicode hex="1E80"/>
  <outline>
    <component base="LtnCapW"/>
    <component base="CombGrave.LP" xOffset="1186" yOffset="320"/>
    <contour>
      <point x="954" y="1640" type="move" name="U"/>
    </contour>
    <contour>
      <point x="716" y="-100" type="move" name="L"/>
    </contour>
  </outline>
</glyph>
<glyph name="LtnSmWGrave" format="1">
  <advance width="1290"/>
  <unicode hex="1E81"/>
  <outline>
    <component base="LtnSmW"/>
    <component base="CombGrave" xOffset="1028"/>
    <contour>
      <point x="803" y="1370" type="move" name="U"/>
    </contour>
    <contour>
      <point x="602" y="-100" type="move" name="L"/>
    </contour>
  </outline>
</glyph>
<glyph name="LtnCapWAcute" format="1">
  <advance width="1571"/>
  <unicode hex="1E82"/>
  <outline>
    <component base="LtnCapW"/>
    <component base="CombAcute.LP" xOffset="1264" yOffset="320"/>
    <contour>
      <point x="955" y="1640" type="move" name="U"/>
    </contour>
    <contour>
      <point x="716" y="-100" type="move" name="L"/>
    </contour>
  </outline>
</glyph>
<glyph name="LtnSmWDiaer" format="1">
  <advance width="1290"/>
  <unicode hex="1E85"/>
  <outline>
    <component base="LtnSmW"/>
    <component base="CombDiaer" xOffset="1108"/>
    <contour>
      <point x="805" y="1370" type="move" name="U"/>
    </contour>
    <contour>
      <point x="602" y="-100" type="move" name="L"/>
    </contour>
  </outline>
</glyph>
<glyph name="LtnSmWDotAbv" format="1">
  <advance width="1290"/>
  <unicode hex="1E87"/>
  <outline>
    <component base="LtnSmW"/>
    <component base="CombDotAbv" xOffset="1109"/>
    <contour>
      <point x="802" y="1353" type="move" name="U"/>
    </contour>
    <contour>
      <point x="602" y="-100" type="move" name="L"/>
    </contour>
  </outline>
</glyph>
<glyph name="LtnCapXDiaer" format="1">
  <advance width="1171"/>
  <unicode hex="1E8C"/>
  <outline>
    <component base="LtnCapX"/>
    <component base="CombDiaer.LP" xOffset="1068" yOffset="320"/>
    <contour>
      <point x="757" y="1640" type="move" name="U"/>
    </contour>
    <contour>
      <point x="519" y="-100" type="move" name="L"/>
    </contour>
  </outline>
</glyph>
<glyph name="LtnSmXDiaer" format="1">
  <advance width="901"/>
  <unicode hex="1E8D"/>
  <outline>
    <component base="LtnSmX"/>
    <component base="CombDiaer" xOffset="905"/>
    <contour>
      <point x="660" y="0" type="move" name="H"/>
    </contour>
    <contour>
      <point x="602" y="1370" type="move" name="U"/>
    </contour>
    <contour>
      <point x="400" y="-100" type="move" name="L"/>
    </contour>
  </outline>
</glyph>
<glyph name="LtnCapYDotAbv" format="1">
  <advance width="1145"/>
  <unicode hex="1E8E"/>
  <outline>
    <component base="LtnCapY"/>
    <component base="CombDotAbv.LP" xOffset="1043" yOffset="320"/>
    <contour>
      <point x="731" y="1640" type="move" name="U"/>
    </contour>
    <contour>
      <point x="493" y="-100" type="move" name="L"/>
    </contour>
  </outline>
</glyph>
<glyph name="LtnSmYDotAbv" format="1">
  <advance width="926"/>
  <unicode hex="1E8F"/>
  <outline>
    <component base="LtnSmY"/>
    <component base="CombDotAbv" xOffset="921"/>
    <contour>
      <point x="988" y="870" type="move" name="R"/>
    </contour>
    <contour>
      <point x="614" y="1353" type="move" name="U"/>
    </contour>
    <contour>
      <point x="620" y="-100" type="move" name="L"/>
    </contour>
  </outline>
</glyph>
<glyph name="LtnSmZCircum" format="1">
  <advance width="776"/>
  <unicode hex="1E91"/>
  <outline>
    <component base="LtnSmZ"/>
    <component base="CombCircum" xOffset="840"/>
    <contour>
      <point x="380" y="0" type="move" name="H"/>
    </contour>
    <contour>
      <point x="561" y="1490" type="move" name="U"/>
    </contour>
    <contour>
      <point x="347" y="-100" type="move" name="L"/>
    </contour>
  </outline>
</glyph>
<glyph name="LtnCapZDotBlw" format="1">
  <advance width="1022"/>
  <unicode hex="1E92"/>
  <outline>
    <component base="LtnCapZ"/>
    <component base="CombDotBlw" xOffset="967"/>
    <contour>
      <point x="639" y="1320" type="move" name="U"/>
    </contour>
    <contour>
      <point x="396" y="-600" type="move" name="L"/>
    </contour>
  </outline>
</glyph>
<glyph name="LtnSmZDotBlw" format="1">
  <advance width="776"/>
  <unicode hex="1E93"/>
  <outline>
    <component base="LtnSmZ"/>
    <component base="CombDotBlw" xOffset="849"/>
    <contour>
      <point x="380" y="0" type="move" name="H"/>
    </contour>
    <contour>
      <point x="488" y="1000" type="move" name="U"/>
    </contour>
    <contour>
      <point x="278" y="-600" type="move" name="L"/>
    </contour>
  </outline>
</glyph>
<glyph name="LtnSmZLineBlw" format="1">
  <advance width="776"/>
  <unicode hex="1E95"/>
  <outline>
    <component base="LtnSmZ"/>
    <component base="CombMacronBlw" xOffset="851"/>
    <contour>
      <point x="380" y="0" type="move" name="H"/>
    </contour>
    <contour>
      <point x="488" y="1000" type="move" name="U"/>
    </contour>
    <contour>
      <point x="279" y="-600" type="move" name="L"/>
    </contour>
  </outline>
</glyph>
<glyph name="LtnSmHLineBlw" format="1">
  <advance width="1012"/>
  <unicode hex="1E96"/>
  <outline>
    <component base="LtnSmH"/>
    <component base="CombMacronBlw" xOffset="928"/>
    <contour>
      <point x="158" y="0" type="move" name="H"/>
    </contour>
    <contour>
      <point x="657" y="1580" type="move" name="U"/>
    </contour>
    <contour>
      <point x="356" y="-600" type="move" name="L"/>
    </contour>
  </outline>
</glyph>
<glyph name="LtnSmTDiaer" format="1">
  <advance width="629"/>
  <unicode hex="1E97"/>
  <outline>
    <component base="LtnSmT"/>
    <component base="CombDiaer" xOffset="779" yOffset="230"/>
    <contour>
      <point x="253" y="0" type="move" name="H"/>
    </contour>
    <contour>
      <point x="529" y="870" type="move" name="R"/>
    </contour>
    <contour>
      <point x="476" y="1600" type="move" name="U"/>
    </contour>
    <contour>
      <point x="239" y="-100" type="move" name="L"/>
    </contour>
  </outline>
</glyph>
<glyph name="LtnSmLngSDotAbv" format="1">
  <advance width="559"/>
  <unicode hex="1E9B"/>
  <outline>
    <component base="LtnSmLngS"/>
    <component base="CombDotAbv.LP" xOffset="904" yOffset="640"/>
    <contour>
      <point x="592" y="1960" type="move" name="U"/>
    </contour>
    <contour>
      <point x="310" y="-100" type="move" name="L"/>
    </contour>
  </outline>
</glyph>
<glyph name="LtnCapADotBlw" format="1">
  <advance width="1147"/>
  <unicode hex="1EA0"/>
  <outline>
    <component base="LtnCapA"/>
    <component base="CombDotBlw" xOffset="1004"/>
    <contour>
      <point x="514" y="0" type="move" name="H"/>
    </contour>
    <contour>
      <point x="696" y="1320" type="move" name="U"/>
    </contour>
    <contour>
      <point x="433" y="-600" type="move" name="L"/>
    </contour>
    <contour>
      <point x="846" y="0" type="move" name="O"/>
    </contour>
  </outline>
</glyph>
<glyph name="LtnCapACircumGrave" format="1">
  <advance width="1147"/>
  <unicode hex="1EA6"/>
  <outline>
    <component base="LtnCapA"/>
    <component base="CombCircum.LP" xOffset="1048" yOffset="320"/>
    <component base="CombGrave.LP" xOffset="1030" yOffset="735"/>
    <contour>
      <point x="514" y="0" type="move" name="H"/>
    </contour>
    <contour>
      <point x="798" y="2055" type="move" name="U"/>
    </contour>
    <contour>
      <point x="502" y="-100" type="move" name="L"/>
    </contour>
    <contour>
      <point x="846" y="0" type="move" name="O"/>
    </contour>
  </outline>
</glyph>
<glyph name="LtnSmACircumGrave" format="1">
  <advance width="922"/>
  <unicode hex="1EA7"/>
  <outline>
    <component base="LtnSmA"/>
    <component base="CombCircum" xOffset="902"/>
    <component base="CombGrave" xOffset="898" yOffset="490"/>
    <contour>
      <point x="368" y="0" type="move" name="H"/>
    </contour>
    <contour>
      <point x="933" y="870" type="move" name="R"/>
    </contour>
    <contour>
      <point x="673" y="1860" type="move" name="U"/>
    </contour>
    <contour>
      <point x="400" y="-100" type="move" name="L"/>
    </contour>
    <contour>
      <point x="723" y="0" type="move" name="O"/>
    </contour>
  </outline>
</glyph>
<glyph name="LtnCapACircumDotBlw" format="1">
  <advance width="1147"/>
  <unicode hex="1EAC"/>
  <outline>
    <component base="LtnCapA"/>
    <component base="CombDotBlw" xOffset="1004"/>
    <component base="CombCircum.LP" xOffset="1048" yOffset="320"/>
    <contour>
      <point x="514" y="0" type="move" name="H"/>
    </contour>
    <contour>
      <point x="755" y="1735" type="move" name="U"/>
    </contour>
    <contour>
      <point x="433" y="-600" type="move" name="L"/>
    </contour>
    <contour>
      <point x="846" y="0" type="move" name="O"/>
    </contour>
  </outline>
</glyph>
<glyph name="LtnSmACircumDotBlw" format="1">
  <advance width="922"/>
  <unicode hex="1EAD"/>
  <outline>
    <component base="LtnSmA"/>
    <component base="CombDotBlw" xOffset="902"/>
    <component base="CombCircum" xOffset="902"/>
    <contour>
      <point x="368" y="0" type="move" name="H"/>
    </contour>
    <contour>
      <point x="933" y="870" type="move" name="R"/>
    </contour>
    <contour>
      <point x="623" y="1490" type="move" name="U"/>
    </contour>
    <contour>
      <point x="331" y="-600" type="move" name="L"/>
    </contour>
    <contour>
      <point x="723" y="0" type="move" name="O"/>
    </contour>
  </outline>
</glyph>
<glyph name="LtnCapABreveAcute" format="1">
  <advance width="1147"/>
  <unicode hex="1EAE"/>
  <outline>
    <component base="LtnCapA"/>
    <component base="CombBreve" xOffset="1050" yOffset="320"/>
    <component base="CombAcute.LP" xOffset="1093" yOffset="640"/>
    <contour>
      <point x="514" y="0" type="move" name="H"/>
    </contour>
    <contour>
      <point x="784" y="1960" type="move" name="U"/>
    </contour>
    <contour>
      <point x="502" y="-100" type="move" name="L"/>
    </contour>
    <contour>
      <point x="846" y="0" type="move" name="O"/>
    </contour>
  </outline>
</glyph>
<glyph name="LtnCapABreveGrave" format="1">
  <advance width="1147"/>
  <unicode hex="1EB0"/>
  <outline>
    <component base="LtnCapA"/>
    <component base="CombBreve" xOffset="1050" yOffset="320"/>
    <component base="CombGrave.LP" xOffset="1015" yOffset="640"/>
    <contour>
      <point x="514" y="0" type="move" name="H"/>
    </contour>
    <contour>
      <point x="783" y="1960" type="move" name="U"/>
    </contour>
    <contour>
      <point x="502" y="-100" type="move" name="L"/>
    </contour>
    <contour>
      <point x="846" y="0" type="move" name="O"/>
    </contour>
  </outline>
</glyph>
<glyph name="LtnSmEDotBlw" format="1">
  <advance width="805"/>
  <unicode hex="1EB9"/>
  <outline>
    <component base="LtnSmE"/>
    <component base="CombDotBlw" xOffset="846"/>
    <contour>
      <point x="358" y="0" type="move" name="H"/>
    </contour>
    <contour>
      <point x="884" y="870" type="move" name="R"/>
    </contour>
    <contour>
      <point x="510" y="1000" type="move" name="U"/>
    </contour>
    <contour>
      <point x="275" y="-600" type="move" name="L"/>
    </contour>
    <contour>
      <point x="408" y="0" type="move" name="O"/>
    </contour>
  </outline>
</glyph>
<glyph name="LtnCapECircumTilde" format="1">
  <advance width="946"/>
  <unicode hex="1EC4"/>
  <outline>
    <component base="LtnCapE"/>
    <component base="CombCircum.LP" xOffset="943" yOffset="320"/>
    <component base="CombTilde.LP" xOffset="1005" yOffset="735"/>
    <contour>
      <point x="411" y="0" type="move" name="H"/>
    </contour>
    <contour>
      <point x="972" y="1072" type="move" name="R"/>
    </contour>
    <contour>
      <point x="694" y="2055" type="move" name="U"/>
    </contour>
    <contour>
      <point x="397" y="-100" type="move" name="L"/>
    </contour>
    <contour>
      <point x="621" y="0" type="move" name="O"/>
    </contour>
  </outline>
</glyph>
<glyph name="LtnSmODotBlw" format="1">
  <advance width="864"/>
  <unicode hex="1ECD"/>
  <outline>
    <component base="LtnSmO"/>
    <component base="CombDotBlw" xOffset="856"/>
    <contour>
      <point x="374" y="0" type="move" name="H"/>
    </contour>
    <contour>
      <point x="920" y="870" type="move" name="R"/>
    </contour>
    <contour>
      <point x="505" y="1000" type="move" name="U"/>
    </contour>
    <contour>
      <point x="285" y="-600" type="move" name="L"/>
    </contour>
    <contour>
      <point x="429" y="0" type="move" name="O"/>
    </contour>
  </outline>
</glyph>
<glyph name="LtnCapOHookAbv" format="1">
  <advance width="1116"/>
  <unicode hex="1ECE"/>
  <outline>
    <component base="LtnCapO"/>
    <component base="CombHookAbv" xOffset="1060" yOffset="320"/>
    <contour>
      <point x="500" y="0" type="move" name="H"/>
    </contour>
    <contour>
      <point x="1202" y="1072" type="move" name="R"/>
    </contour>
    <contour>
      <point x="744" y="1640" type="move" name="U"/>
    </contour>
    <contour>
      <point x="505" y="-100" type="move" name="L"/>
    </contour>
    <contour>
      <point x="560" y="0" type="move" name="O"/>
    </contour>
  </outline>
</glyph>
<glyph name="LtnCapOCircumAcute" format="1">
  <advance width="1116"/>
  <unicode hex="1ED0"/>
  <outline>
    <component base="LtnCapO"/>
    <component base="CombCircum.LP" xOffset="1052" yOffset="320"/>
    <component base="CombAcute.LP" xOffset="1112" yOffset="735"/>
    <contour>
      <point x="500" y="0" type="move" name="H"/>
    </contour>
    <contour>
      <point x="1202" y="1072" type="move" name="R"/>
    </contour>
    <contour>
      <point x="803" y="2055" type="move" name="U"/>
    </contour>
    <contour>
      <point x="505" y="-100" type="move" name="L"/>
    </contour>
    <contour>
      <point x="560" y="0" type="move" name="O"/>
    </contour>
  </outline>
</glyph>
<glyph name="LtnCapOCircumGrave" format="1">
  <advance width="1116"/>
  <unicode hex="1ED2"/>
  <outline>
    <component base="LtnCapO"/>
    <component base="CombCircum.LP" xOffset="1052" yOffset="320"/>
    <component base="CombGrave.LP" xOffset="1034" yOffset="735"/>
    <contour>
      <point x="500" y="0" type="move" name="H"/>
    </contour>
    <contour>
      <point x="1202" y="1072" type="move" name="R"/>
    </contour>
    <contour>
      <point x="802" y="2055" type="move" name="U"/>
    </contour>
    <contour>
      <point x="505" y="-100" type="move" name="L"/>
    </contour>
    <contour>
      <point x="560" y="0" type="move" name="O"/>
    </contour>
  </outline>
</glyph>
<glyph name="LtnSmOCircumGrave" format="1">
  <advance width="864"/>
  <unicode hex="1ED3"/>
  <outline>
    <component base="LtnSmO"/>
    <component base="CombCircum" xOffset="857"/>
    <component base="CombGrave" xOffset="853" yOffset="490"/>
    <contour>
      <point x="374" y="0" type="move" name="H"/>
    </contour>
    <contour>
      <point x="920" y="870" type="move" name="R"/>
    </contour>
    <contour>
      <point x="628" y="1860" type="move" name="U"/>
    </contour>
    <contour>
      <point x="354" y="-100" type="move" name="L"/>
    </contour>
    <contour>
      <point x="429" y="0" type="move" name="O"/>
    </contour>
  </outline>
</glyph>
<glyph name="LtnCapOCircumDotBlw" format="1">
  <advance width="1116"/>
  <unicode hex="1ED8"/>
  <outline>
    <component base="LtnCapO"/>
    <component base="CombDotBlw" xOffset="1007"/>
    <component base="CombCircum.LP" xOffset="1052" yOffset="320"/>
    <contour>
      <point x="500" y="0" type="move" name="H"/>
    </contour>
    <contour>
      <point x="1202" y="1072" type="move" name="R"/>
    </contour>
    <contour>
      <point x="759" y="1735" type="move" name="U"/>
    </contour>
    <contour>
      <point x="436" y="-600" type="move" name="L"/>
    </contour>
    <contour>
      <point x="560" y="0" type="move" name="O"/>
    </contour>
  </outline>
</glyph>
<glyph name="LtnSmOCircumDotBlw" format="1">
  <advance width="864"/>
  <unicode hex="1ED9"/>
  <outline>
    <component base="LtnSmO"/>
    <component base="CombDotBlw" xOffset="856"/>
    <component base="CombCircum" xOffset="857"/>
    <contour>
      <point x="374" y="0" type="move" name="H"/>
    </contour>
    <contour>
      <point x="920" y="870" type="move" name="R"/>
    </contour>
    <contour>
      <point x="578" y="1490" type="move" name="U"/>
    </contour>
    <contour>
      <point x="285" y="-600" type="move" name="L"/>
    </contour>
    <contour>
      <point x="429" y="0" type="move" name="O"/>
    </contour>
  </outline>
</glyph>
<glyph name="LtnSmOHornTilde" format="1">
  <advance width="948"/>
  <unicode hex="1EE1"/>
  <outline>
    <component base="LtnSmO"/>
    <component base="CombHorn" xOffset="860"/>
    <component base="CombTilde" xOffset="860"/>
    <contour>
      <point x="554" y="1353" type="move" name="U"/>
    </contour>
    <contour>
      <point x="354" y="-100" type="move" name="L"/>
    </contour>
  </outline>
</glyph>
<glyph name="LtnCapUHornGrave" format="1">
  <advance width="1365"/>
  <unicode hex="1EEA"/>
  <outline>
    <component base="LtnCapU"/>
    <component base="CombHorn" xOffset="1277" yOffset="380"/>
    <component base="CombGrave.LP" xOffset="1032" yOffset="320"/>
    <contour>
      <point x="800" y="1640" type="move" name="U"/>
    </contour>
    <contour>
      <point x="563" y="-100" type="move" name="L"/>
    </contour>
  </outline>
</glyph>
<glyph name="LtnSmUHornGrave" format="1">
  <advance width="1108"/>
  <unicode hex="1EEB"/>
  <outline>
    <component base="LtnSmU"/>
    <component base="CombHorn" xOffset="1020"/>
    <component base="CombGrave" xOffset="856"/>
    <contour>
      <point x="631" y="1370" type="move" name="U"/>
    </contour>
    <contour>
      <point x="430" y="-100" type="move" name="L"/>
    </contour>
  </outline>
</glyph>
<glyph name="LtnSmUHornHookAbv" format="1">
  <advance width="1108"/>
  <unicode hex="1EED"/>
  <outline>
    <component base="LtnSmU"/>
    <component base="CombHorn" xOffset="1020"/>
    <component base="CombHookAbv" xOffset="941"/>
    <contour>
      <point x="625" y="1320" type="move" name="U"/>
    </contour>
    <contour>
      <point x="430" y="-100" type="move" name="L"/>
    </contour>
  </outline>
</glyph>
<glyph name="LtnCapUHornTilde" format="1">
  <advance width="1365"/>
  <unicode hex="1EEE"/>
  <outline>
    <component base="LtnCapU"/>
    <component base="CombHorn" xOffset="1277" yOffset="380"/>
    <component base="CombTilde.LP" xOffset="1112" yOffset="320"/>
    <contour>
      <point x="801" y="1640" type="move" name="U"/>
    </contour>
    <contour>
      <point x="563" y="-100" type="move" name="L"/>
    </contour>
  </outline>
</glyph>
<glyph name="LtnSmUHornTilde" format="1">
  <advance width="1108"/>
  <unicode hex="1EEF"/>
  <outline>
    <component base="LtnSmU"/>
    <component base="CombHorn" xOffset="1020"/>
    <component base="CombTilde" xOffset="936"/>
    <contour>
      <point x="630" y="1353" type="move" name="U"/>
    </contour>
    <contour>
      <point x="430" y="-100" type="move" name="L"/>
    </contour>
  </outline>
</glyph>
<glyph name="LtnCapUHornDotBlw" format="1">
  <advance width="1365"/>
  <unicode hex="1EF0"/>
  <outline>
    <component base="LtnCapU"/>
    <component base="CombHorn" xOffset="1277" yOffset="380"/>
    <component base="CombDotBlw" xOffset="1065"/>
    <contour>
      <point x="757" y="1320" type="move" name="U"/>
    </contour>
    <contour>
      <point x="494" y="-600" type="move" name="L"/>
    </contour>
  </outline>
</glyph>
<glyph name="LtnCapYDotBlw" format="1">
  <advance width="1145"/>
  <unicode hex="1EF4"/>
  <outline>
    <component base="LtnCapY"/>
    <component base="CombDotBlw" xOffset="995"/>
    <contour>
      <point x="687" y="1320" type="move" name="U"/>
    </contour>
    <contour>
      <point x="424" y="-600" type="move" name="L"/>
    </contour>
  </outline>
</glyph>
<glyph name="LtnSmYHookAbv" format="1">
  <advance width="926"/>
  <unicode hex="1EF7"/>
  <outline>
    <component base="LtnSmY"/>
    <component base="CombHookAbv" xOffset="925"/>
    <contour>
      <point x="988" y="870" type="move" name="R"/>
    </contour>
    <contour>
      <point x="609" y="1320" type="move" name="U"/>
    </contour>
    <contour>
      <point x="620" y="-100" type="move" name="L"/>
    </contour>
  </outline>
</glyph>
<glyph name="EnSpace" format="1">
  <advance width="823"/>
  <unicode hex="2002"/>
  <outline>
    <contour>
      <point x="823" y="870" type="move" name="R"/>
    </contour>
    <contour>
      <point x="363" y="0" type="move" name="H"/>
    </contour>
    <contour>
      <point x="413" y="0" type="move" name="O"/>
    </contour>
    <contour>
      <point x="559" y="1435" type="move" name="U"/>
    </contour>
    <contour>
      <point x="349" y="-100" type="move" name="L"/>
    </contour>
  </outline>
</glyph>
<glyph name="Hyphen" format="1">
  <advance width="641"/>
  <unicode hex="2010"/>
  <outline>
    <contour>
      <point x="580" y="541" type="curve"/>
      <point x="561" y="565" type="line"/>
      <point x="86" y="565" type="line"/>
      <point x="70" y="539"/>
      <point x="53" y="508"/>
      <point x="43" y="479" type="curve"/>
      <point x="61" y="455" type="line"/>
      <point x="539" y="455" type="line"/>
      <point x="551" y="477"/>
      <point x="569" y="512"/>
    </contour>
    <contour>
      <point x="364" y="1000" type="move" name="U"/>
    </contour>
  </outline>
</glyph>
<glyph name="SglRtPtngAngQuotMrk" format="1">
  <advance width="554"/>
  <unicode hex="203A"/>
  <outline>
    <contour>
      <point x="470" y="414" type="line"/>
      <point x="470" y="414"/>
      <point x="479" y="482"/>
      <point x="478" y="485" type="curve"/>
      <point x="214" y="889" type="line"/>
      <point x="172" y="860" type="line"/>
      <point x="171" y="860"/>
      <point x="324" y="448"/>
      <point x="321" y="450" type="curve"/>
      <point x="60" y="36" type="line"/>
      <point x="94" y="7" type="line"/>
    </contour>
  </outline>
</glyph>
<glyph name="RupeeSgn" format="1">
  <advance width="1184"/>
  <unicode hex="20A8"/>
  <outline>
    <contour>
      <point x="307" y="0" type="line"/>
      <point x="312" y="40" type="line"/>
      <point x="238" y="58"/>
      <point x="206" y="83"/>
      <point x="208" y="99" type="curve" smooth="yes"/>
      <point x="274" y="583" type="line"/>
      <point x="300" y="576"/>
      <point x="326" y="574"/>
      <point x="353" y="574" type="curve" smooth="yes"/>
      <point x="365" y="574" type="line"/>
      <point x="557" y="39" type="line" smooth="yes"/>
      <point x="577" y="-17"/>
      <point x="762" y="-30"/>
      <point x="782" y="-30" type="curve" smooth="yes"/>
      <point x="837" y="-30"/>
      <point x="1054" y="-2"/>
      <point x="1084" y="220" type="curve" smooth="yes"/>
      <point x="1100" y="338"/>
      <point x="1018" y="400"/>
      <point x="938" y="442" type="curve" smooth="yes"/>
      <point x="861" y="482"/>
      <point x="787" y="516"/>
      <point x="796" y="584" type="curve" smooth="yes"/>
      <point x="802" y="627"/>
      <point x="841" y="679"/>
      <point x="909" y="679" type="curve" smooth="yes"/>
      <point x="982" y="679"/>
      <point x="1013" y="605"/>
      <point x="1036" y="605" type="curve" smooth="yes"/>
      <point x="1063" y="605"/>
      <point x="1107" y="650"/>
      <point x="1135" y="689" type="curve"/>
      <point x="1087" y="708"/>
      <point x="1025" y="750"/>
      <point x="937" y="750" type="curve" smooth="yes"/>
      <point x="830" y="750"/>
      <point x="711" y="675"/>
      <point x="694" y="555" type="curve" smooth="yes"/>
      <point x="681" y="455"/>
      <point x="754" y="400"/>
      <point x="833" y="355" type="curve" smooth="yes"/>
      <point x="915" y="308"/>
      <point x="995" y="264"/>
      <point x="984" y="179" type="curve" smooth="yes"/>
      <point x="973" y="99"/>
      <point x="915" y="47"/>
      <point x="828" y="47" type="curve" smooth="yes"/>
      <point x="767" y="47"/>
      <point x="702" y="63"/>
      <point x="671" y="132" type="curve" smooth="yes"/>
      <point x="475" y="589" type="line"/>
      <point x="630" y="630"/>
      <point x="754" y="730"/>
      <point x="781" y="925" type="curve" smooth="yes"/>
      <point x="803" y="1089"/>
      <point x="696" y="1235"/>
      <point x="449" y="1235" type="curve" smooth="yes"/>
      <point x="311" y="1235"/>
      <point x="209" y="1207"/>
      <point x="108" y="1177" type="curve"/>
      <point x="106" y="1118" type="line"/>
      <point x="146" y="1125"/>
      <point x="185" y="1132"/>
      <point x="223" y="1137" type="curve"/>
      <point x="82" y="99" type="line" smooth="yes"/>
      <point x="80" y="82"/>
      <point x="33" y="58"/>
      <point x="-40" y="40" type="curve"/>
      <point x="-45" y="0" type="line"/>
    </contour>
    <contour>
      <point x="408" y="1154" type="curve"/>
      <point x="602" y="1154"/>
      <point x="676" y="1035"/>
      <point x="657" y="896" type="curve" smooth="yes"/>
      <point x="634" y="727"/>
      <point x="522" y="656"/>
      <point x="351" y="656" type="curve" smooth="yes"/>
      <point x="329" y="656"/>
      <point x="311" y="657"/>
      <point x="284" y="662" type="curve"/>
      <point x="351" y="1152" type="line"/>
      <point x="369" y="1153"/>
      <point x="389" y="1154"/>
    </contour>
  </outline>
</glyph>
<glyph name="NumeroSgn" format="1">
  <advance width="1930"/>
  <unicode hex="2116"/>
  <outline>
    <contour>
      <point x="1177" y="-30" type="curve"/>
      <point x="1198" y="120" type="line"/>
      <point x="1198" y="120"/>
      <point x="1133" y="234"/>
      <point x="1113" y="273" type="curve" smooth="yes"/>
      <point x="644" y="1182" type="line" smooth="yes"/>
      <point x="609" y="1251"/>
      <point x="604" y="1260"/>
      <point x="569" y="1260" type="curve" smooth="yes"/>
      <point x="378" y="1260" type="line"/>
      <point x="372" y="1217" type="line"/>
      <point x="434" y="1206"/>
      <point x="487" y="1177"/>
      <point x="525" y="1100" type="curve"/>
      <point x="1077" y="21" type="line" smooth="yes"/>
      <point x="1089" y="-1"/>
      <point x="1119" y="-22"/>
    </contour>
    <contour>
      <point x="611" y="1221" type="line"/>
      <point x="499" y="1196" type="line"/>
      <point x="499" y="1196"/>
      <point x="388" y="389"/>
      <point x="385" y="370" type="curve" smooth="yes"/>
      <point x="361" y="186"/>
      <point x="344" y="92"/>
      <point x="268" y="92" type="curve" smooth="yes"/>
      <point x="235" y="92"/>
      <point x="186" y="112"/>
      <point x="150" y="204" type="curve"/>
      <point x="112" y="186"/>
      <point x="24" y="118"/>
      <point x="21" y="96" type="curve" smooth="yes"/>
      <point x="18" y="71"/>
      <point x="77" y="-31"/>
      <point x="182" y="-31" type="curve" smooth="yes"/>
      <point x="229" y="-31"/>
      <point x="306" y="0"/>
      <point x="375" y="61" type="curve" smooth="yes"/>
      <point x="455" y="132"/>
      <point x="478" y="241"/>
      <point x="503" y="428" type="curve" smooth="yes"/>
    </contour>
    <contour>
      <point x="1851" y="721" type="curve" smooth="yes"/>
      <point x="1871" y="866"/>
      <point x="1801" y="973"/>
      <point x="1685" y="973" type="curve" smooth="yes"/>
      <point x="1558" y="973"/>
      <point x="1437" y="840"/>
      <point x="1418" y="701" type="curve" smooth="yes"/>
      <point x="1398" y="555"/>
      <point x="1464" y="449"/>
      <point x="1583" y="449" type="curve" smooth="yes"/>
      <point x="1696" y="449"/>
      <point x="1833" y="584"/>
    </contour>
    <contour>
      <point x="1755" y="705" type="curve" smooth="yes"/>
      <point x="1740" y="592"/>
      <point x="1687" y="516"/>
      <point x="1622" y="516" type="curve" smooth="yes"/>
      <point x="1548" y="516"/>
      <point x="1497" y="602"/>
      <point x="1512" y="715" type="curve" smooth="yes"/>
      <point x="1528" y="828"/>
      <point x="1574" y="904"/>
      <point x="1645" y="904" type="curve" smooth="yes"/>
      <point x="1724" y="904"/>
      <point x="1770" y="817"/>
    </contour>
    <contour>
      <point x="1813" y="357" type="curve"/>
      <point x="1795" y="381" type="line"/>
      <point x="1388" y="381" type="line"/>
      <point x="1373" y="355"/>
      <point x="1368" y="340"/>
      <point x="1357" y="311" type="curve"/>
      <point x="1377" y="287" type="line"/>
      <point x="1784" y="287" type="line"/>
      <point x="1796" y="309"/>
      <point x="1802" y="328"/>
    </contour>
    <contour>
      <point x="1078" y="38" type="line"/>
      <point x="1190" y="63" type="line"/>
      <point x="1190" y="63"/>
      <point x="1301" y="870"/>
      <point x="1304" y="889" type="curve" smooth="yes"/>
      <point x="1328" y="1073"/>
      <point x="1345" y="1167"/>
      <point x="1421" y="1167" type="curve" smooth="yes"/>
      <point x="1454" y="1167"/>
      <point x="1503" y="1147"/>
      <point x="1539" y="1055" type="curve"/>
      <point x="1577" y="1073"/>
      <point x="1665" y="1141"/>
      <point x="1668" y="1163" type="curve" smooth="yes"/>
      <point x="1671" y="1188"/>
      <point x="1612" y="1290"/>
      <point x="1507" y="1290" type="curve" smooth="yes"/>
      <point x="1460" y="1290"/>
      <point x="1386" y="1256"/>
      <point x="1314" y="1198" type="curve" smooth="yes"/>
      <point x="1229" y="1130"/>
      <point x="1211" y="1018"/>
      <point x="1186" y="831" type="curve" smooth="yes"/>
    </contour>
  </outline>
</glyph>
<glyph name="RomNumFive" format="1">
  <advance width="1214"/>
  <unicode hex="2164"/>
  <outline>
    <component base="LtnCapV"/>
    <contour>
      <point x="733" y="1320" type="move" name="U"/>
    </contour>
  </outline>
</glyph>
<glyph name="RomNumEight" format="1">
  <advance width="2933"/>
  <unicode hex="2167"/>
  <outline>
    <component base="LtnCapV"/>
    <component base="LtnCapI" xOffset="1214"/>
    <component base="LtnCapI" xOffset="1787"/>
    <component base="LtnCapI" xOffset="2360"/>
    <contour>
      <point x="1650" y="1320" type="move" name="U"/>
    </contour>
  </outline>
</glyph>
<glyph name="RomNumNine" format="1">
  <advance width="1744"/>
  <unicode hex="2168"/>
  <outline>
    <component base="LtnCapI"/>
    <component base="LtnCapX" xOffset="573"/>
    <contour>
      <point x="1037" y="1320" type="move" name="U"/>
    </contour>
  </outline>
</glyph>
<glyph name="RomNumTen" format="1">
  <advance width="1171"/>
  <unicode hex="2169"/>
  <outline>
    <component base="LtnCapX"/>
    <contour>
      <point x="713" y="1320" type="move" name="U"/>
    </contour>
  </outline>
</glyph>
<glyph name="RomNumOneHundred" format="1">
  <advance width="995"/>
  <unicode hex="216D"/>
  <outline>
    <component base="LtnCapC"/>
    <contour>
      <point x="686" y="1320" type="move" name="U"/>
    </contour>
  </outline>
</glyph>
<glyph name="SmRomNumTwelve" format="1">
  <advance width="1909"/>
  <unicode hex="217B"/>
  <outline>
    <component base="LtnSmX"/>
    <component base="LtnSmI" xOffset="901"/>
    <component base="LtnSmI" xOffset="1405"/>
    <contour>
      <point x="1040" y="1320" type="move" name="U"/>
    </contour>
  </outline>
</glyph>
<glyph name="SmRomNumOneHundred" format="1">
  <advance width="795"/>
  <unicode hex="217D"/>
  <outline>
    <component base="LtnSmC"/>
    <contour>
      <point x="647" y="1320" type="move" name="U"/>
    </contour>
  </outline>
</glyph>
<glyph name="RomNumFiftyEarly" format="1">
  <advance width="1216"/>
  <unicode hex="2186"/>
  <outline>
    <contour>
      <point x="816" y="1260" type="line"/>
      <point x="659" y="1260" type="line"/>
      <point x="475" y="295" type="line"/>
      <point x="253" y="824" type="line"/>
      <point x="77" y="824" type="line"/>
      <point x="472" y="-30" type="line"/>
      <point x="511" y="-30" type="line"/>
      <point x="1233" y="824" type="line"/>
      <point x="1057" y="824" type="line"/>
      <point x="632" y="295" type="line"/>
    </contour>
    <contour>
      <point x="752" y="1320" type="move" name="U"/>
    </contour>
  </outline>
</glyph>
<glyph name="NArySummation" format="1">
  <advance width="1027"/>
  <unicode hex="2211"/>
  <outline>
    <component base="LtnCapEsh"/>
    <contour>
      <point x="642" y="1320" type="move" name="U"/>
    </contour>
    <contour>
      <point x="464" y="-100" type="move" name="L"/>
    </contour>
  </outline>
</glyph>
<glyph name="LftBtmSqrBrac" format="1">
  <advance width="900"/>
  <unicode hex="23A3"/>
  <outline>
    <contour>
      <point x="700" y="-450" type="line"/>
      <point x="700" y="-360" type="line"/>
      <point x="360" y="-360" type="line"/>
      <point x="360" y="2500" type="line"/>
      <point x="210" y="2500" type="line"/>
      <point x="210" y="-450" type="line"/>
    </contour>
  </outline>
</glyph>
<glyph name="RtMidSqrBrac" format="1">
  <advance width="900"/>
  <unicode hex="23A5"/>
  <outline>
    <contour>
      <point x="690" y="-950" type="line"/>
      <point x="690" y="2500" type="line"/>
      <point x="540" y="2500" type="line"/>
      <point x="540" y="-950" type="line"/>
    </contour>
  </outline>
</glyph>
<glyph name="LtnCapHDesc" format="1">
  <advance width="1220"/>
  <unicode hex="2C67"/>
  <outline>
    <component base="CyCapEnDesc"/>
    <contour>
      <point x="734" y="1320" type="move" name="U"/>
    </contour>
    <contour>
      <point x="536" y="-100" type="move" name="L"/>
    </contour>
  </outline>
</glyph>
<glyph name="LtnSmTrndInsularG" format="1">
  <advance width="975"/>
  <unicode hex="A77F"/>
  <outline>
    <contour>
      <point x="20" y="-449" type="curve"/>
      <point x="37" y="-473" type="line"/>
      <point x="717" y="-473" type="line"/>
      <point x="731" y="-447"/>
      <point x="748" y="-412"/>
      <point x="758" y="-383" type="curve"/>
      <point x="738" y="-360" type="line"/>
      <point x="58" y="-360" type="line"/>
      <point x="45" y="-381"/>
      <point x="28" y="-421"/>
    </contour>
    <contour>
      <point x="924" y="655" type="curve" smooth="yes"/>
      <point x="924" y="840"/>
      <point x="764" y="936"/>
      <point x="590" y="936" type="curve" smooth="yes"/>
      <point x="343" y="936"/>
      <point x="103" y="699"/>
      <point x="103" y="465" type="curve" smooth="yes"/>
      <point x="103" y="217"/>
      <point x="486" y="152"/>
      <point x="486" y="-51" type="curve" smooth="yes"/>
      <point x="486" y="-229"/>
      <point x="244" y="-360"/>
      <point x="67" y="-360" type="curve"/>
      <point x="66" y="-375"/>
      <point x="99" y="-400"/>
      <point x="180" y="-400" type="curve" smooth="yes"/>
      <point x="306" y="-400"/>
      <point x="624" y="-241"/>
      <point x="624" y="21" type="curve" smooth="yes"/>
      <point x="624" y="283"/>
      <point x="207" y="315"/>
      <point x="238" y="532" type="curve" smooth="yes"/>
      <point x="261" y="699"/>
      <point x="369" y="834"/>
      <point x="535" y="834" type="curve" smooth="yes"/>
      <point x="693" y="834"/>
      <point x="778" y="739"/>
      <point x="778" y="606" type="curve" smooth="yes"/>
      <point x="778" y="478"/>
      <point x="701" y="380"/>
      <point x="398" y="262" type="curve"/>
      <point x="436" y="200" type="line"/>
      <point x="765" y="327"/>
      <point x="924" y="445"/>
    </contour>
    <contour>
      <point x="315" y="-600" type="move" name="L"/>
    </contour>
    <contour>
      <point x="538" y="1000" type="move" name="U"/>
    </contour>
  </outline>
</glyph>
<glyph name="LtnCapILonga" format="1">
  <advance width="573"/>
  <unicode hex="A7FE"/>
  <outline>
    <contour>
      <point x="644" y="1550" type="line"/>
      <point x="235" y="1550" type="line"/>
      <point x="228" y="1507" type="line"/>
      <point x="312" y="1488"/>
      <point x="353" y="1461"/>
      <point x="351" y="1445" type="curve" smooth="yes"/>
      <point x="168" y="104" type="line"/>
      <point x="164" y="86"/>
      <point x="111" y="61"/>
      <point x="27" y="43" type="curve"/>
      <point x="20" y="0" type="line"/>
      <point x="430" y="0" type="line"/>
      <point x="436" y="43" type="line"/>
      <point x="350" y="61"/>
      <point x="309" y="88"/>
      <point x="311" y="104" type="curve" smooth="yes"/>
      <point x="497" y="1445" type="line" smooth="yes"/>
      <point x="499" y="1464"/>
      <point x="554" y="1488"/>
      <point x="638" y="1507" type="curve"/>
    </contour>
    <contour>
      <point x="446" y="1610" type="move" name="U"/>
    </contour>
    <contour>
      <point x="211" y="-100" type="move" name="L"/>
    </contour>
    <contour>
      <point x="285" y="0" type="move" name="O"/>
    </contour>
    <contour>
      <point x="225" y="0" type="move" name="H"/>
    </contour>
    <contour>
      <point x="550" y="1070" type="move" name="R"/>
    </contour>
  </outline>
</glyph>
<glyph name="LtnSupSmRevOpnEDep" format="1">
  <advance width="570"/>
  <unicode hex="F18B"/>
  <outline>
    <contour>
      <point x="39" y="553" type="line"/>
      <point x="593" y="553" type="line"/>
      <point x="593" y="1200" type="line"/>
      <point x="39" y="1200" type="line"/>
    </contour>
    <contour>
      <point x="100" y="741" type="line"/>
      <point x="165" y="671"/>
      <point x="259" y="665"/>
      <point x="306" y="665" type="curve" smooth="yes"/>
      <point x="377" y="665"/>
      <point x="414" y="710"/>
      <point x="423" y="750" type="curve" smooth="yes"/>
      <point x="434" y="797"/>
      <point x="388" y="872"/>
      <point x="265" y="876" type="curve"/>
      <point x="276" y="917" type="line"/>
      <point x="409" y="927"/>
      <point x="448" y="987"/>
      <point x="451" y="1027" type="curve" smooth="yes"/>
      <point x="454" y="1067"/>
      <point x="420" y="1098"/>
      <point x="365" y="1098" type="curve" smooth="yes"/>
      <point x="283" y="1098"/>
      <point x="231" y="1059"/>
      <point x="214" y="1000" type="curve"/>
      <point x="183" y="993" type="line"/>
      <point x="174" y="1015"/>
      <point x="157" y="1080"/>
      <point x="164" y="1099" type="curve"/>
      <point x="211" y="1138"/>
      <point x="312" y="1170"/>
      <point x="387" y="1170" type="curve" smooth="yes"/>
      <point x="470" y="1170"/>
      <point x="566" y="1138"/>
      <point x="562" y="1044" type="curve" smooth="yes"/>
      <point x="558" y="977"/>
      <point x="500" y="926"/>
      <point x="434" y="903" type="curve"/>
      <point x="509" y="889"/>
      <point x="557" y="823"/>
      <point x="546" y="754" type="curve" smooth="yes"/>
      <point x="533" y="670"/>
      <point x="443" y="583"/>
      <point x="293" y="583" type="curve" smooth="yes"/>
      <point x="222" y="583"/>
      <point x="127" y="616"/>
      <point x="69" y="712" type="curve"/>
    </contour>
    <contour>
      <point x="319" y="1400" type="move" name="U"/>
    </contour>
    <contour>
      <point x="319" y="750" type="move" name="L"/>
    </contour>
  </outline>
</glyph>
<glyph name="LtnSupSmIStrkDep" format="1">
  <advance width="352"/>
  <unicode hex="F1A7"/>
  <outline>
    <contour>
      <point x="23" y="553" type="line"/>
      <point x="426" y="553" type="line"/>
      <point x="426" y="1438" type="line"/>
      <point x="23" y="1438" type="line"/>
    </contour>
    <contour>
      <point x="372" y="856" type="line"/>
      <point x="277" y="856" type="line"/>
      <point x="263" y="788"/>
      <point x="252" y="726"/>
      <point x="252" y="699" type="curve" smooth="yes"/>
      <point x="252" y="667"/>
      <point x="257" y="664"/>
      <point x="273" y="664" type="curve" smooth="yes"/>
      <point x="301" y="664"/>
      <point x="311" y="669"/>
      <point x="350" y="682" type="curve"/>
      <point x="363" y="651" type="line"/>
      <point x="276" y="607"/>
      <point x="226" y="583"/>
      <point x="184" y="583" type="curve" smooth="yes"/>
      <point x="153" y="583"/>
      <point x="122" y="603"/>
      <point x="122" y="654" type="curve" smooth="yes"/>
      <point x="122" y="688"/>
      <point x="138" y="773"/>
      <point x="155" y="856" type="curve"/>
      <point x="66" y="856" type="line"/>
      <point x="53" y="869" type="line"/>
      <point x="58" y="882"/>
      <point x="68" y="907"/>
      <point x="76" y="920" type="curve"/>
      <point x="169" y="920" type="line"/>
      <point x="181" y="982"/>
      <point x="192" y="1035"/>
      <point x="192" y="1054" type="curve" smooth="yes"/>
      <point x="192" y="1091"/>
      <point x="188" y="1094"/>
      <point x="164" y="1094" type="curve" smooth="yes"/>
      <point x="148" y="1094"/>
      <point x="124" y="1086"/>
      <point x="107" y="1081" type="curve"/>
      <point x="94" y="1112" type="line"/>
      <point x="172" y="1143"/>
      <point x="254" y="1170"/>
      <point x="279" y="1170" type="curve" smooth="yes"/>
      <point x="305" y="1170"/>
      <point x="324" y="1164"/>
      <point x="324" y="1119" type="curve" smooth="yes"/>
      <point x="324" y="1085"/>
      <point x="307" y="1003"/>
      <point x="290" y="920" type="curve"/>
      <point x="382" y="920" type="line"/>
      <point x="396" y="905" type="line"/>
    </contour>
    <contour>
      <point x="389" y="1355" type="curve" smooth="yes"/>
      <point x="389" y="1306"/>
      <point x="349" y="1252"/>
      <point x="292" y="1252" type="curve" smooth="yes"/>
      <point x="258" y="1252"/>
      <point x="237" y="1272"/>
      <point x="237" y="1304" type="curve" smooth="yes"/>
      <point x="237" y="1351"/>
      <point x="275" y="1408"/>
      <point x="333" y="1408" type="curve" smooth="yes"/>
      <point x="367" y="1408"/>
      <point x="389" y="1387"/>
    </contour>
    <contour>
      <point x="216" y="1625" type="move" name="U"/>
    </contour>
    <contour>
      <point x="216" y="750" type="move" name="L"/>
    </contour>
  </outline>
</glyph>
<glyph name="LtnSupSmEzhDep" format="1">
  <advance width="571"/>
  <unicode hex="F1B8"/>
  <outline>
    <contour>
      <point x="-39" y="277" type="line"/>
      <point x="614" y="277" type="line"/>
      <point x="614" y="1200" type="line"/>
      <point x="-39" y="1200" type="line"/>
    </contour>
    <contour>
      <point x="538" y="593" type="curve"/>
      <point x="489" y="408"/>
      <point x="333" y="307"/>
      <point x="163" y="307" type="curve" smooth="yes"/>
      <point x="65" y="307"/>
      <point x="-9" y="360"/>
      <point x="-9" y="378" type="curve" smooth="yes"/>
      <point x="-9" y="386"/>
      <point x="40" y="460"/>
      <point x="62" y="460" type="curve" smooth="yes"/>
      <point x="88" y="460"/>
      <point x="118" y="385"/>
      <point x="221" y="385" type="curve" smooth="yes"/>
      <point x="351" y="385"/>
      <point x="434" y="502"/>
      <point x="434" y="615" type="curve" smooth="yes"/>
      <point x="434" y="710"/>
      <point x="372" y="774"/>
      <point x="273" y="770" type="curve" smooth="yes"/>
      <point x="240" y="769"/>
      <point x="185" y="748"/>
      <point x="144" y="725" type="curve"/>
      <point x="137" y="732"/>
      <point x="121" y="754"/>
      <point x="118" y="760" type="curve"/>
      <point x="257" y="904"/>
      <point x="329" y="992"/>
      <point x="410" y="1075" type="curve"/>
      <point x="235" y="1075" type="line" smooth="yes"/>
      <point x="190" y="1075"/>
      <point x="172" y="1066"/>
      <point x="146" y="1003" type="curve"/>
      <point x="109" y="1007" type="line"/>
      <point x="127" y="1079"/>
      <point x="149" y="1135"/>
      <point x="156" y="1170" type="curve"/>
      <point x="173" y="1166"/>
      <point x="192" y="1157"/>
      <point x="225" y="1157" type="curve" smooth="yes"/>
      <point x="566" y="1157" type="line"/>
      <point x="584" y="1134" type="line"/>
      <point x="456" y="1016"/>
      <point x="365" y="914"/>
      <point x="294" y="836" type="curve"/>
      <point x="314" y="841"/>
      <point x="332" y="843"/>
      <point x="347" y="843" type="curve" smooth="yes"/>
      <point x="481" y="842"/>
      <point x="571" y="753"/>
    </contour>
    <contour>
      <point x="301" y="1400" type="move" name="U"/>
    </contour>
    <contour>
      <point x="302" y="500" type="move" name="L"/>
    </contour>
  </outline>
</glyph>
<glyph name="LftStemTnLtr2Dep" format="1">
  <advance width="695"/>
  <unicode hex="F1D3"/>
  <outline>
    <contour>
      <point x="8" y="-61" type="line"/>
      <point x="607" y="-61" type="line"/>
      <point x="607" y="1551" type="line"/>
      <point x="8" y="1551" type="line"/>
    </contour>
    <contour>
      <point x="139" y="13" type="line"/>
      <point x="135" y="-15"/>
      <point x="110" y="-34"/>
      <point x="82" y="-30" type="curve" smooth="yes"/>
      <point x="54" y="-26"/>
      <point x="35" y="-1"/>
      <point x="39" y="27" type="curve" smooth="yes"/>
      <point x="237" y="1477" type="line" smooth="yes"/>
      <point x="241" y="1505"/>
      <point x="266" y="1524"/>
      <point x="294" y="1520" type="curve" smooth="yes"/>
      <point x="322" y="1516"/>
      <point x="341" y="1491"/>
      <point x="337" y="1463" type="curve" smooth="yes"/>
      <point x="196" y="433" type="line"/>
      <point x="527" y="433" type="line" smooth="yes"/>
      <point x="555" y="433"/>
      <point x="577" y="411"/>
      <point x="577" y="383" type="curve" smooth="yes"/>
      <point x="577" y="355"/>
      <point x="555" y="333"/>
      <point x="527" y="333" type="curve" smooth="yes"/>
      <point x="182" y="333" type="line"/>
    </contour>
  </outline>
</glyph>
<glyph name="DotLftStemTnLtr4Dep" format="1">
  <advance width="631"/>
  <unicode hex="F1DB"/>
  <outline>
    <contour>
      <point x="8" y="-61" type="line"/>
      <point x="621" y="-61" type="line"/>
      <point x="621" y="1551" type="line"/>
      <point x="8" y="1551" type="line"/>
    </contour>
    <contour>
      <point x="139" y="13" type="line"/>
      <point x="135" y="-15"/>
      <point x="110" y="-34"/>
      <point x="82" y="-30" type="curve" smooth="yes"/>
      <point x="54" y="-26"/>
      <point x="35" y="-1"/>
      <point x="39" y="27" type="curve" smooth="yes"/>
      <point x="237" y="1477" type="line" smooth="yes"/>
      <point x="241" y="1505"/>
      <point x="266" y="1524"/>
      <point x="294" y="1520" type="curve" smooth="yes"/>
      <point x="322" y="1516"/>
      <point x="341" y="1491"/>
      <point x="337" y="1463" type="curve" smooth="yes"/>
    </contour>
    <contour>
      <point x="516" y="1020" type="curve" smooth="yes"/>
      <point x="475" y="1020"/>
      <point x="441" y="1054"/>
      <point x="441" y="1095" type="curve" smooth="yes"/>
      <point x="441" y="1136"/>
      <point x="475" y="1170"/>
      <point x="516" y="1170" type="curve" smooth="yes"/>
      <point x="557" y="1170"/>
      <point x="591" y="1136"/>
      <point x="591" y="1095" type="curve" smooth="yes"/>
      <point x="591" y="1054"/>
      <point x="557" y="1020"/>
    </contour>
  </outline>
</glyph>
<glyph name="ModLowColonDep" format="1">
  <advance width="382"/>
  <unicode hex="F1E9"/>
  <outline>
    <contour>
      <point x="20" y="59" type="line"/>
      <point x="376" y="59" type="line"/>
      <point x="376" y="871" type="line"/>
      <point x="20" y="871" type="line"/>
    </contour>
    <contour>
      <point x="282" y="272" type="curve"/>
      <point x="282" y="190"/>
      <point x="224" y="89"/>
      <point x="134" y="89" type="curve" smooth="yes"/>
      <point x="81" y="89"/>
      <point x="50" y="128"/>
      <point x="50" y="188" type="curve" smooth="yes"/>
      <point x="50" y="265"/>
      <point x="116" y="366"/>
      <point x="200" y="366" type="curve" smooth="yes"/>
      <point x="249" y="366"/>
      <point x="282" y="327"/>
    </contour>
    <contour>
      <point x="346" y="746" type="curve"/>
      <point x="346" y="666"/>
      <point x="289" y="566"/>
      <point x="199" y="566" type="curve" smooth="yes"/>
      <point x="145" y="566"/>
      <point x="115" y="605"/>
      <point x="115" y="664" type="curve" smooth="yes"/>
      <point x="115" y="740"/>
      <point x="180" y="841"/>
      <point x="264" y="841" type="curve" smooth="yes"/>
      <point x="313" y="841"/>
      <point x="346" y="804"/>
    </contour>
  </outline>
</glyph>
<glyph name="TnLtrNineSeg11" format="1">
  <advance width="820"/>
  <unicode hex="F1F1"/>
  <outline>
    <contour>
      <point x="-38" y="-335" type="curve" smooth="yes"/>
      <point x="780" y="-335" type="line" smooth="yes"/>
      <point x="808" y="-335"/>
      <point x="830" y="-313"/>
      <point x="830" y="-285" type="curve" smooth="yes"/>
      <point x="830" y="-257"/>
      <point x="808" y="-235"/>
      <point x="780" y="-235" type="curve" smooth="yes"/>
      <point x="-38" y="-235" type="line" smooth="yes"/>
      <point x="-66" y="-235"/>
      <point x="-88" y="-257"/>
      <point x="-88" y="-285" type="curve" smooth="yes"/>
      <point x="-88" y="-313"/>
      <point x="-66" y="-335"/>
    </contour>
  </outline>
</glyph>
<glyph name="TnLtrNineSeg44" format="1">
  <advance width="820"/>
  <unicode hex="F1F4"/>
  <outline>
    <contour>
      <point x="56" y="352" type="curve" smooth="yes"/>
      <point x="874" y="352" type="line" smooth="yes"/>
      <point x="902" y="352"/>
      <point x="924" y="374"/>
      <point x="924" y="402" type="curve" smooth="yes"/>
      <point x="924" y="430"/>
      <point x="902" y="452"/>
      <point x="874" y="452" type="curve" smooth="yes"/>
      <point x="56" y="452" type="line" smooth="yes"/>
      <point x="28" y="452"/>
      <point x="6" y="430"/>
      <point x="6" y="402" type="curve" smooth="yes"/>
      <point x="6" y="374"/>
      <point x="28" y="352"/>
    </contour>
  </outline>
</glyph>
<glyph name="TnLtrNineSeg88" format="1">
  <advance width="820"/>
  <unicode hex="F1F8"/>
  <outline>
    <contour>
      <point x="182" y="1268" type="curve" smooth="yes"/>
      <point x="1000" y="1268" type="line" smooth="yes"/>
      <point x="1028" y="1268"/>
      <point x="1050" y="1290"/>
      <point x="1050" y="1318" type="curve" smooth="yes"/>
      <point x="1050" y="1346"/>
      <point x="1028" y="1368"/>
      <point x="1000" y="1368" type="curve" smooth="yes"/>
      <point x="182" y="1368" type="line" smooth="yes"/>
      <point x="154" y="1368"/>
      <point x="132" y="1346"/>
      <point x="132" y="1318" type="curve" smooth="yes"/>
      <point x="132" y="1290"/>
      <point x="154" y="1268"/>
    </contour>
  </outline>
</glyph>
<glyph name="TnLtrNineSeg99" format="1">
  <advance width="820"/>
  <unicode hex="F1F9"/>
  <outline>
    <contour>
      <point x="213" y="1500" type="curve" smooth="yes"/>
      <point x="1031" y="1500" type="line" smooth="yes"/>
      <point x="1059" y="1500"/>
      <point x="1081" y="1522"/>
      <point x="1081" y="1550" type="curve" smooth="yes"/>
      <point x="1081" y="1578"/>
      <point x="1059" y="1600"/>
      <point x="1031" y="1600" type="curve" smooth="yes"/>
      <point x="213" y="1600" type="line" smooth="yes"/>
      <point x="185" y="1600"/>
      <point x="163" y="1578"/>
      <point x="163" y="1550" type="curve" smooth="yes"/>
      <point x="163" y="1522"/>
      <point x="185" y="1500"/>
    </contour>
  </outline>
</glyph>
<glyph name="LtnSmCStrkDep" format="1">
  <advance width="795"/>
  <unicode hex="F20B"/>
  <outline>
    <contour>
      <point x="-51" y="-172" type="line"/>
      <point x="874" y="-172" type="line"/>
      <point x="874" y="1068" type="line"/>
      <point x="-51" y="1068" type="line"/>
    </contour>
    <contour>
      <point x="116" y="-62" type="line"/>
      <point x="93" y="-84"/>
      <point x="31" y="-131"/>
      <point x="1" y="-142" type="curve"/>
      <point x="-21" y="-113" type="line"/>
      <point x="109" y="79" type="line"/>
      <point x="75" y="135"/>
      <point x="53" y="213"/>
      <point x="53" y="322" type="curve" smooth="yes"/>
      <point x="53" y="502"/>
      <point x="123" y="711"/>
      <point x="319" y="842" type="curve" smooth="yes"/>
      <point x="393" y="891"/>
      <point x="508" y="936"/>
      <point x="590" y="936" type="curve" smooth="yes"/>
      <point x="622" y="936"/>
      <point x="651" y="928"/>
      <point x="676" y="915" type="curve"/>
      <point x="706" y="959" type="line"/>
      <point x="741" y="984"/>
      <point x="783" y="1025"/>
      <point x="819" y="1038" type="curve"/>
      <point x="844" y="1008" type="line"/>
      <point x="747" y="866" type="line"/>
      <point x="774" y="842"/>
      <point x="796" y="821"/>
      <point x="813" y="815" type="curve"/>
      <point x="756" y="774"/>
      <point x="684" y="721"/>
      <point x="649" y="721" type="curve"/>
      <point x="258" y="147" type="line"/>
      <point x="293" y="101"/>
      <point x="340" y="76"/>
      <point x="395" y="76" type="curve" smooth="yes"/>
      <point x="444" y="76"/>
      <point x="543" y="104"/>
      <point x="686" y="221" type="curve"/>
      <point x="696" y="207"/>
      <point x="711" y="190"/>
      <point x="717" y="180" type="curve"/>
      <point x="508" y="-10"/>
      <point x="393" y="-41"/>
      <point x="297" y="-41" type="curve" smooth="yes"/>
      <point x="259" y="-41"/>
      <point x="210" y="-26"/>
      <point x="166" y="11" type="curve"/>
    </contour>
    <contour>
      <point x="477" y="831" type="curve" smooth="yes"/>
      <point x="295" y="831"/>
      <point x="199" y="545"/>
      <point x="199" y="358" type="curve" smooth="yes"/>
      <point x="199" y="312"/>
      <point x="204" y="271"/>
      <point x="215" y="235" type="curve"/>
      <point x="583" y="778" type="line"/>
      <point x="554" y="805"/>
      <point x="519" y="831"/>
    </contour>
  </outline>
</glyph>
<glyph name="LtnSmGlottalStopDep" format="1">
  <advance width="691"/>
  <unicode hex="F21E"/>
  <outline>
    <contour>
      <point x="23" y="-30" type="line"/>
      <point x="701" y="-30" type="line"/>
      <point x="701" y="966" type="line"/>
      <point x="23" y="966" type="line"/>
    </contour>
    <contour>
      <point x="53" y="0" type="line"/>
      <point x="58" y="42" type="line"/>
      <point x="162" y="62"/>
      <point x="214" y="80"/>
      <point x="217" y="102" type="curve" smooth="yes"/>
      <point x="238" y="256" type="line" smooth="yes"/>
      <point x="268" y="480"/>
      <point x="508" y="495"/>
      <point x="530" y="652" type="curve" smooth="yes"/>
      <point x="546" y="773"/>
      <point x="471" y="842"/>
      <point x="375" y="842" type="curve" smooth="yes"/>
      <point x="289" y="842"/>
      <point x="233" y="769"/>
      <point x="221" y="687" type="curve" smooth="yes"/>
      <point x="219" y="668"/>
      <point x="221" y="649"/>
      <point x="223" y="630" type="curve"/>
      <point x="183" y="608"/>
      <point x="141" y="599"/>
      <point x="89" y="593" type="curve"/>
      <point x="69" y="622" type="line"/>
      <point x="69" y="632"/>
      <point x="70" y="645"/>
      <point x="72" y="655" type="curve" smooth="yes"/>
      <point x="94" y="819"/>
      <point x="286" y="936"/>
      <point x="456" y="936" type="curve" smooth="yes"/>
      <point x="602" y="936"/>
      <point x="686" y="830"/>
      <point x="668" y="696" type="curve" smooth="yes"/>
      <point x="639" y="483"/>
      <point x="401" y="485"/>
      <point x="375" y="294" type="curve" smooth="yes"/>
      <point x="349" y="102" type="line" smooth="yes"/>
      <point x="346" y="82"/>
      <point x="397" y="60"/>
      <point x="490" y="42" type="curve"/>
      <point x="485" y="0" type="line"/>
    </contour>
    <contour>
      <point x="410" y="1000" type="move" name="U"/>
    </contour>
    <contour>
      <point x="256" y="-100" type="move" name="L"/>
    </contour>
  </outline>
</glyph>
<glyph name="LtnSmPPalHookDep" format="1">
  <advance width="965"/>
  <unicode hex="F22D"/>
  <outline>
    <contour>
      <point x="-36" y="-530" type="line"/>
      <point x="915" y="-530" type="line"/>
      <point x="915" y="966" type="line"/>
      <point x="-36" y="966" type="line"/>
    </contour>
    <contour>
      <point x="318" y="-290" type="curve"/>
      <point x="342" y="-262"/>
      <point x="413" y="-214"/>
      <point x="451" y="-198" type="curve"/>
      <point x="455" y="-204"/>
      <point x="464" y="-214"/>
      <point x="469" y="-225" type="curve"/>
      <point x="413" y="-343"/>
      <point x="478" y="-406"/>
      <point x="525" y="-406" type="curve" smooth="yes"/>
      <point x="583" y="-406"/>
      <point x="646" y="-361"/>
      <point x="667" y="-200" type="curve"/>
      <point x="709" y="101" type="line"/>
      <point x="650" y="24"/>
      <point x="575" y="-41"/>
      <point x="492" y="-41" type="curve" smooth="yes"/>
      <point x="402" y="-41"/>
      <point x="316" y="79"/>
      <point x="246" y="192" type="curve"/>
      <point x="215" y="6" type="line" smooth="yes"/>
      <point x="170" y="-269"/>
      <point x="162" y="-410"/>
      <point x="176" y="-447" type="curve"/>
      <point x="137" y="-457"/>
      <point x="61" y="-484"/>
      <point x="26" y="-500" type="curve"/>
      <point x="-6" y="-471" type="line"/>
      <point x="14" y="-318"/>
      <point x="190" y="590"/>
      <point x="190" y="760" type="curve" smooth="yes"/>
      <point x="190" y="821"/>
      <point x="166" y="827"/>
      <point x="143" y="827" type="curve" smooth="yes"/>
      <point x="119" y="827"/>
      <point x="43" y="803"/>
      <point x="43" y="803" type="curve"/>
      <point x="29" y="840" type="line"/>
      <point x="141" y="891"/>
      <point x="268" y="936"/>
      <point x="301" y="936" type="curve" smooth="yes"/>
      <point x="328" y="936"/>
      <point x="348" y="922"/>
      <point x="348" y="870" type="curve" smooth="yes"/>
      <point x="348" y="830"/>
      <point x="339" y="760"/>
      <point x="321" y="644" type="curve"/>
      <point x="493" y="907"/>
      <point x="617" y="936"/>
      <point x="696" y="936" type="curve" smooth="yes"/>
      <point x="799" y="936"/>
      <point x="885" y="827"/>
      <point x="885" y="627" type="curve" smooth="yes"/>
      <point x="885" y="533"/>
      <point x="868" y="429"/>
      <point x="828" y="323" type="curve"/>
      <point x="820" y="296"/>
      <point x="810" y="261"/>
      <point x="807" y="237" type="curve" smooth="yes"/>
      <point x="751" y="-171" type="line"/>
      <point x="714" y="-452"/>
      <point x="562" y="-500"/>
      <point x="472" y="-500" type="curve" smooth="yes"/>
      <point x="370" y="-500"/>
      <point x="292" y="-401"/>
    </contour>
    <contour>
      <point x="526" y="106" type="curve" smooth="yes"/>
      <point x="598" y="106"/>
      <point x="654" y="147"/>
      <point x="686" y="219" type="curve" smooth="yes"/>
      <point x="733" y="325"/>
      <point x="739" y="451"/>
      <point x="739" y="532" type="curve" smooth="yes"/>
      <point x="739" y="719"/>
      <point x="674" y="805"/>
      <point x="610" y="805" type="curve" smooth="yes"/>
      <point x="539" y="805"/>
      <point x="377" y="666"/>
      <point x="291" y="460" type="curve"/>
      <point x="266" y="314" type="line"/>
      <point x="305" y="234"/>
      <point x="418" y="106"/>
    </contour>
    <contour>
      <point x="472" y="1000" type="move" name="U"/>
    </contour>
    <contour>
      <point x="453" y="-600" type="move" name="L"/>
    </contour>
  </outline>
</glyph>
<glyph name="LtnSmCuatrilloDep" format="1">
  <advance width="823"/>
  <unicode hex="F246"/>
  <outline>
    <contour>
      <point x="-100" y="-531" type="line"/>
      <point x="791" y="-531" type="line"/>
      <point x="791" y="966" type="line"/>
      <point x="-100" y="966" type="line"/>
    </contour>
    <contour>
      <point x="133" y="105" type="line"/>
      <point x="485" y="105" type="line"/>
      <point x="570" y="731" type="line"/>
    </contour>
    <contour>
      <point x="470" y="0" type="line"/>
      <point x="10" y="0" type="line"/>
      <point x="-17" y="33" type="line"/>
      <point x="565" y="865" type="line"/>
      <point x="621" y="889"/>
      <point x="674" y="916"/>
      <point x="710" y="936" type="curve"/>
      <point x="737" y="901" type="line"/>
      <point x="630" y="107" type="line"/>
      <point x="738" y="107" type="line"/>
      <point x="761" y="76" type="line"/>
      <point x="728" y="35"/>
      <point x="707" y="23"/>
      <point x="679" y="0" type="curve"/>
      <point x="615" y="0" type="line"/>
      <point x="564" y="-261"/>
      <point x="496" y="-323"/>
      <point x="375" y="-425" type="curve" smooth="yes"/>
      <point x="303" y="-485"/>
      <point x="197" y="-501"/>
      <point x="150" y="-501" type="curve" smooth="yes"/>
      <point x="76" y="-501"/>
      <point x="-70" y="-431"/>
      <point x="-70" y="-407" type="curve" smooth="yes"/>
      <point x="-70" y="-372"/>
      <point x="10" y="-284"/>
      <point x="39" y="-284" type="curve" smooth="yes"/>
      <point x="62" y="-284"/>
      <point x="135" y="-386"/>
      <point x="234" y="-386" type="curve" smooth="yes"/>
      <point x="369" y="-386"/>
      <point x="444" y="-281"/>
      <point x="469" y="-11" type="curve"/>
    </contour>
  </outline>
</glyph>
<glyph name="LtnSmBLftHook" format="1">
  <advance width="999"/>
  <unicode hex="F26D"/>
  <outline>
    <contour>
      <point x="319" y="256" type="curve"/>
      <point x="330" y="517"/>
      <point x="457" y="1101"/>
      <point x="457" y="1258" type="curve" smooth="yes"/>
      <point x="457" y="1418"/>
      <point x="394" y="1520"/>
      <point x="299" y="1520" type="curve" smooth="yes"/>
      <point x="128" y="1520"/>
      <point x="-77" y="1348"/>
      <point x="-71" y="1213" type="curve"/>
      <point x="-53" y="1178" type="line"/>
      <point x="-6" y="1194"/>
      <point x="52" y="1221"/>
      <point x="101" y="1248" type="curve"/>
      <point x="58" y="1325"/>
      <point x="115" y="1407"/>
      <point x="191" y="1407" type="curve" smooth="yes"/>
      <point x="267" y="1407"/>
      <point x="311" y="1348"/>
      <point x="311" y="1228" type="curve" smooth="yes"/>
      <point x="311" y="1132"/>
      <point x="166" y="430"/>
      <point x="166" y="217" type="curve"/>
      <point x="166" y="96"/>
      <point x="322" y="-41"/>
      <point x="405" y="-41" type="curve" smooth="yes"/>
      <point x="573" y="-41"/>
      <point x="705" y="68"/>
      <point x="795" y="188" type="curve"/>
      <point x="891" y="322"/>
      <point x="926" y="469"/>
      <point x="928" y="610" type="curve" smooth="yes"/>
      <point x="930" y="821"/>
      <point x="850" y="936"/>
      <point x="745" y="936" type="curve" smooth="yes"/>
      <point x="649" y="936"/>
      <point x="442" y="827"/>
      <point x="297" y="498" type="curve"/>
      <point x="313" y="414" type="line"/>
      <point x="410" y="635"/>
      <point x="592" y="803"/>
      <point x="647" y="803" type="curve" smooth="yes"/>
      <point x="711" y="803"/>
      <point x="784" y="715"/>
      <point x="784" y="530" type="curve" smooth="yes"/>
      <point x="784" y="440"/>
      <point x="772" y="326"/>
      <point x="711" y="229" type="curve" smooth="yes"/>
      <point x="668" y="162"/>
      <point x="598" y="86"/>
      <point x="502" y="86" type="curve" smooth="yes"/>
      <point x="410" y="86"/>
      <point x="319" y="186"/>
    </contour>
    <contour>
      <point x="733" y="1580" type="move" name="U"/>
    </contour>
    <contour>
      <point x="473" y="-100" type="move" name="L"/>
    </contour>
  </outline>
</glyph>
<glyph name="CySmHaHookDep" format="1">
  <advance width="881"/>
  <unicode hex="F325"/>
  <outline>
    <contour>
      <point x="-59" y="-531" type="line"/>
      <point x="923" y="-531" type="line"/>
      <point x="923" y="966" type="line"/>
      <point x="-59" y="966" type="line"/>
    </contour>
    <contour>
      <point x="646" y="320" type="curve" smooth="yes"/>
      <point x="733" y="116"/>
      <point x="812" y="-94"/>
      <point x="812" y="-208" type="curve" smooth="yes"/>
      <point x="812" y="-290"/>
      <point x="751" y="-372"/>
      <point x="683" y="-424" type="curve" smooth="yes"/>
      <point x="603" y="-485"/>
      <point x="546" y="-501"/>
      <point x="499" y="-501" type="curve" smooth="yes"/>
      <point x="402" y="-501"/>
      <point x="303" y="-446"/>
      <point x="303" y="-422" type="curve" smooth="yes"/>
      <point x="303" y="-387"/>
      <point x="383" y="-299"/>
      <point x="412" y="-299" type="curve" smooth="yes"/>
      <point x="435" y="-299"/>
      <point x="484" y="-386"/>
      <point x="583" y="-386" type="curve" smooth="yes"/>
      <point x="633" y="-386"/>
      <point x="678" y="-332"/>
      <point x="678" y="-254" type="curve" smooth="yes"/>
      <point x="678" y="-172"/>
      <point x="607" y="21"/>
      <point x="516" y="241" type="curve" smooth="yes"/>
      <point x="500" y="278"/>
      <point x="478" y="330"/>
      <point x="452" y="386" type="curve"/>
      <point x="392" y="302"/>
      <point x="261" y="142"/>
      <point x="160" y="-10" type="curve"/>
      <point x="111" y="-16"/>
      <point x="43" y="-27"/>
      <point x="-6" y="-41" type="curve"/>
      <point x="-29" y="-6" type="line"/>
      <point x="96" y="104"/>
      <point x="293" y="322"/>
      <point x="414" y="469" type="curve"/>
      <point x="331" y="642"/>
      <point x="226" y="827"/>
      <point x="166" y="827" type="curve" smooth="yes"/>
      <point x="143" y="827"/>
      <point x="41" y="801"/>
      <point x="41" y="801" type="curve"/>
      <point x="27" y="840" type="line"/>
      <point x="139" y="889"/>
      <point x="238" y="936"/>
      <point x="266" y="936" type="curve" smooth="yes"/>
      <point x="324" y="936"/>
      <point x="432" y="764"/>
      <point x="529" y="572" type="curve"/>
      <point x="626" y="693"/>
      <point x="713" y="820"/>
      <point x="713" y="838" type="curve" smooth="yes"/>
      <point x="713" y="866"/>
      <point x="702" y="879"/>
      <point x="616" y="870" type="curve"/>
      <point x="614" y="911" type="line"/>
      <point x="702" y="930"/>
      <point x="774" y="936"/>
      <point x="807" y="936" type="curve" smooth="yes"/>
      <point x="870" y="936"/>
      <point x="893" y="911"/>
      <point x="893" y="883" type="curve" smooth="yes"/>
      <point x="893" y="834"/>
      <point x="781" y="716"/>
      <point x="570" y="487" type="curve"/>
      <point x="598" y="430"/>
      <point x="623" y="373"/>
    </contour>
    <contour>
      <point x="526" y="1000" type="move" name="U"/>
    </contour>
    <contour>
      <point x="304" y="-600" type="move" name="L"/>
    </contour>
  </outline>
</glyph>
